{"glyphs":{"0":{"ha":769,"x_min":87,"x_max":682,"o":"m 377 -11 q 159 104 231 -11 q 87 454 87 220 q 110 670 87 579 q 171 820 132 761 q 267 908 211 880 q 388 937 322 937 q 609 822 536 937 q 682 475 682 707 q 604 112 682 235 q 377 -11 526 -11 m 220 475 q 261 150 220 254 q 388 47 302 47 q 510 144 470 47 q 549 446 549 241 q 529 698 549 602 q 472 837 509 795 q 385 879 436 879 q 306 851 338 879 q 255 771 275 823 q 228 644 236 719 q 220 475 220 569 z "},"1":{"ha":769,"x_min":121,"x_max":661,"o":"m 471 177 q 476 118 471 138 q 491 85 480 98 q 524 65 503 73 q 576 55 545 58 q 661 50 608 51 l 661 0 l 159 0 l 159 50 q 267 59 235 53 q 316 76 299 64 q 341 109 333 87 q 349 177 349 130 l 349 727 q 339 767 349 754 q 311 779 330 779 q 250 757 290 779 q 151 695 210 734 l 121 747 l 438 937 l 475 937 q 471 756 471 871 l 471 177 z "},"2":{"ha":769,"x_min":87,"x_max":657,"o":"m 476 109 q 530 113 509 109 q 562 126 550 117 q 582 151 574 136 q 600 198 589 166 l 657 198 l 646 0 l 87 0 l 87 33 q 166 178 117 104 q 307 354 216 253 q 420 486 385 441 q 476 570 458 534 q 503 637 495 606 q 511 701 511 669 q 495 790 511 751 q 445 852 479 829 q 361 874 412 874 q 190 733 234 874 l 108 733 l 108 863 q 261 919 190 902 q 390 937 333 937 q 581 881 516 937 q 645 721 645 826 q 638 655 645 685 q 615 595 631 625 q 574 532 600 566 q 517 463 549 498 q 410 347 486 428 q 220 109 281 210 l 476 109 z "},"3":{"ha":769,"x_min":98,"x_max":658,"o":"m 108 734 l 108 863 q 255 918 186 900 q 387 937 323 937 q 522 913 464 937 q 610 845 579 889 q 640 739 640 800 q 617 637 640 681 q 552 561 594 593 q 444 497 511 528 l 444 491 q 524 466 486 484 q 592 419 562 448 q 640 351 622 391 q 658 260 658 311 q 624 121 658 182 q 519 24 589 60 q 347 -11 448 -11 q 221 2 289 -11 q 98 37 154 16 l 98 181 l 179 181 q 242 79 203 111 q 348 47 281 47 q 481 95 436 47 q 526 237 526 143 q 467 389 526 336 q 292 441 407 441 l 231 441 l 231 500 q 385 536 322 506 q 478 612 448 566 q 509 718 509 659 q 469 833 509 793 q 352 874 429 874 q 248 840 288 874 q 189 734 208 805 l 108 734 z "},"4":{"ha":769,"x_min":52,"x_max":717,"o":"m 350 33 q 406 57 392 44 q 425 95 420 71 q 429 170 429 119 l 429 281 l 52 281 l 52 332 l 449 930 l 546 930 l 546 347 l 560 347 q 616 352 600 347 q 645 373 633 358 q 665 420 656 387 l 717 420 l 709 281 l 546 281 l 546 170 q 549 103 546 124 q 559 70 552 82 q 580 50 566 58 q 625 33 594 41 l 625 0 l 350 0 l 350 33 m 164 347 l 429 347 l 429 515 q 431 658 429 579 q 436 777 433 737 l 429 777 l 164 356 l 164 347 z "},"5":{"ha":769,"x_min":102,"x_max":665,"o":"m 102 37 l 102 181 l 184 181 q 245 79 204 112 q 351 47 286 47 q 488 101 441 47 q 534 263 534 155 q 509 382 534 335 q 444 450 485 429 q 347 471 402 471 q 268 466 301 471 q 197 448 235 460 l 142 479 l 142 926 l 516 926 q 549 929 539 926 q 566 941 559 933 q 580 970 572 949 l 633 970 l 623 813 l 233 813 l 233 515 q 309 538 268 530 q 392 545 351 545 q 535 512 473 545 q 631 419 597 479 q 665 278 665 358 q 627 122 665 187 q 517 23 589 57 q 347 -11 446 -11 q 102 37 230 -11 z "},"6":{"ha":769,"x_min":88,"x_max":701,"o":"m 618 899 l 618 866 q 433 821 513 866 q 299 690 352 777 q 224 484 245 603 l 231 481 q 343 541 288 522 q 463 559 398 559 q 593 526 539 559 q 674 432 647 492 q 701 290 701 371 q 667 134 701 201 q 563 28 633 66 q 388 -11 492 -11 q 164 81 239 -11 q 88 353 88 174 q 126 579 88 474 q 234 763 164 684 q 396 886 304 841 q 590 937 488 931 l 618 899 m 416 488 q 352 481 382 488 q 294 459 321 473 q 241 423 267 445 q 229 408 233 416 q 220 376 222 395 q 218 312 218 357 q 261 115 218 182 q 393 47 304 47 q 478 64 444 47 q 534 113 513 82 q 565 185 555 144 q 574 276 574 227 q 532 432 574 376 q 416 488 491 488 z "},"7":{"ha":769,"x_min":100,"x_max":696,"o":"m 696 893 l 301 -5 l 203 -5 l 203 28 l 568 802 l 568 812 l 270 812 q 225 807 242 812 q 198 793 209 802 q 179 768 186 783 q 159 706 172 752 l 100 706 l 114 926 l 696 926 l 696 893 z "},"8":{"ha":769,"x_min":75,"x_max":694,"o":"m 537 489 l 538 480 q 654 393 615 450 q 694 255 694 336 q 656 115 694 176 q 546 22 618 55 q 377 -11 473 -11 q 219 19 287 -11 q 113 107 151 50 q 75 244 75 165 q 96 347 75 303 q 149 418 116 390 q 232 469 182 446 l 231 478 q 85 694 85 541 q 123 819 85 764 q 232 905 161 874 q 389 937 303 937 q 553 909 487 937 q 653 830 620 882 q 687 705 687 778 q 650 577 687 631 q 537 489 614 523 m 212 701 q 222 625 212 661 q 252 564 231 590 q 307 523 273 538 q 389 508 340 508 q 484 530 446 508 q 541 594 522 552 q 559 692 559 637 q 537 796 559 753 q 477 859 515 838 q 388 879 438 879 q 257 832 302 879 q 212 701 212 786 m 205 256 q 215 173 205 212 q 247 107 225 135 q 304 63 269 79 q 388 47 338 47 q 483 70 444 47 q 544 137 523 92 q 564 243 564 182 q 542 355 564 308 q 479 427 519 402 q 385 452 438 452 q 300 436 334 452 q 244 394 266 420 q 214 332 223 368 q 205 256 205 296 z "},"9":{"ha":769,"x_min":68,"x_max":680,"o":"m 212 26 l 212 60 q 377 102 307 60 q 489 226 446 144 q 545 442 531 309 l 538 445 q 426 385 481 404 q 307 366 371 366 q 176 400 230 366 q 95 494 122 433 q 68 636 68 555 q 88 752 68 697 q 149 847 109 806 q 249 912 189 888 q 389 937 309 937 q 606 838 531 937 q 680 555 680 740 q 625 263 680 387 q 471 70 570 139 q 240 -11 372 1 l 212 26 m 353 437 q 402 442 379 437 q 448 455 426 446 q 492 476 471 463 q 530 505 513 490 q 541 519 536 510 q 549 542 546 528 q 551 587 551 556 q 533 746 551 680 q 476 845 514 812 q 381 879 437 879 q 295 861 330 879 q 238 813 260 844 q 205 740 216 782 q 195 650 195 699 q 237 493 195 549 q 353 437 278 437 z "},"\u0000":{"ha":0,"x_min":0,"x_max":0,"o":""},"\r":{"ha":306,"x_min":0,"x_max":0,"o":""}," ":{"ha":306,"x_min":0,"x_max":0,"o":""}," ":{"ha":306,"x_min":0,"x_max":0,"o":""},"A":{"ha":865,"x_min":4,"x_max":852,"o":"m 540 0 l 540 33 q 590 48 574 40 q 615 71 607 56 q 623 110 623 85 q 618 160 623 133 q 602 220 612 186 l 577 307 l 261 307 l 238 241 q 215 165 220 191 q 210 118 210 139 q 230 58 210 77 q 294 33 251 39 l 294 0 l 4 0 l 4 33 q 70 77 42 39 q 125 186 98 115 l 408 937 l 515 937 l 745 180 q 774 100 762 127 q 804 56 787 72 q 852 33 822 41 l 852 0 l 540 0 m 279 366 l 563 366 l 434 804 l 279 366 z "},"B":{"ha":849,"x_min":82,"x_max":766,"o":"m 82 0 l 82 33 q 138 57 124 44 q 157 95 153 71 q 161 170 161 119 l 161 756 q 158 824 161 803 q 147 858 155 846 q 126 877 139 869 q 82 892 113 884 l 82 926 l 453 926 q 626 903 561 926 q 724 834 692 880 q 755 718 755 789 q 733 616 755 659 q 673 544 710 572 q 579 491 637 515 l 579 485 q 719 399 671 457 q 766 261 766 341 q 725 111 766 169 q 610 26 684 52 q 431 0 536 0 l 82 0 m 407 511 q 565 561 510 511 q 619 705 619 610 q 604 783 619 752 q 562 832 589 814 q 498 858 535 850 q 419 866 462 866 q 351 865 393 866 q 288 862 309 863 l 288 511 l 407 511 m 288 64 q 399 60 338 60 q 537 82 488 60 q 608 148 586 104 q 630 258 630 192 q 606 366 630 323 q 532 430 582 409 q 393 451 481 451 l 288 451 l 288 64 z "},"C":{"ha":781,"x_min":81,"x_max":707,"o":"m 707 906 l 707 718 l 640 718 q 598 812 623 777 q 540 862 573 847 q 460 877 507 877 q 335 830 390 877 q 250 691 281 784 q 218 465 218 597 q 244 238 218 332 q 320 97 270 144 q 444 49 370 49 q 534 65 499 49 q 594 115 570 81 q 640 217 618 150 l 707 217 l 707 23 q 576 -2 643 6 q 429 -11 509 -11 q 169 106 257 -11 q 81 454 81 222 q 126 708 81 599 q 261 877 172 817 q 473 937 350 937 q 587 930 535 937 q 707 906 640 924 z "},"D":{"ha":919,"x_min":81,"x_max":838,"o":"m 81 0 l 81 33 q 126 49 113 41 q 147 68 140 56 q 158 101 155 79 q 161 170 161 123 l 161 756 q 158 825 161 804 q 147 858 155 846 q 126 877 139 869 q 81 892 113 884 l 81 926 l 378 926 q 588 898 507 926 q 726 814 670 869 q 810 678 783 760 q 838 483 838 596 q 812 281 838 368 q 736 135 786 194 q 629 50 692 83 q 509 12 577 23 q 327 0 440 0 l 81 0 m 288 63 q 368 60 315 60 q 470 70 425 60 q 551 100 515 79 q 617 156 588 120 q 665 240 646 193 q 691 345 683 287 q 700 471 700 402 q 660 697 700 608 q 548 826 621 785 q 376 867 476 867 q 288 864 330 867 l 288 63 z "},"E":{"ha":799,"x_min":82,"x_max":723,"o":"m 716 926 l 716 721 l 650 721 q 629 779 640 754 q 606 821 618 804 q 581 848 595 838 q 548 862 567 859 q 503 866 529 866 l 288 866 l 288 511 l 433 511 q 480 519 463 511 q 508 548 497 528 q 530 612 519 568 l 593 612 l 593 351 l 530 351 q 509 413 520 392 q 481 442 497 433 q 433 451 465 451 l 288 451 l 288 60 l 499 60 q 553 65 532 60 q 589 85 574 71 q 615 121 604 99 q 634 168 627 144 q 656 238 642 192 l 723 238 l 710 0 l 82 0 l 82 33 q 138 57 124 44 q 157 95 153 71 q 161 170 161 119 l 161 756 q 158 824 161 803 q 147 858 155 846 q 126 877 139 869 q 82 892 113 884 l 82 926 l 716 926 z "},"F":{"ha":745,"x_min":82,"x_max":701,"o":"m 701 926 l 701 721 l 634 721 q 605 795 619 767 q 576 839 591 824 q 541 860 561 854 q 487 866 520 866 l 288 866 l 288 497 l 428 497 q 475 507 458 497 q 503 540 492 517 q 524 611 514 563 l 588 611 l 588 325 l 524 325 q 503 394 514 371 q 475 428 491 418 q 428 437 459 437 l 288 437 l 288 172 q 293 106 288 131 q 309 68 298 82 q 338 46 319 54 q 383 33 356 39 l 383 0 l 82 0 l 82 33 q 138 57 124 44 q 157 95 153 71 q 161 170 161 119 l 161 756 q 158 824 161 803 q 147 858 155 846 q 126 877 139 869 q 82 892 113 884 l 82 926 l 701 926 z "},"G":{"ha":848,"x_min":81,"x_max":798,"o":"m 731 3 l 678 -11 l 629 42 q 536 2 585 15 q 426 -11 488 -11 q 168 107 254 -11 q 81 456 81 224 q 128 710 81 601 q 264 878 176 819 q 473 937 353 937 q 595 929 536 937 q 724 905 653 922 l 724 718 l 657 718 q 614 813 639 779 q 554 862 589 848 q 465 877 519 877 q 336 829 391 877 q 249 689 280 782 q 218 466 218 597 q 244 239 218 333 q 322 97 271 144 q 449 49 374 49 q 568 84 529 49 q 606 191 606 119 l 606 232 q 600 320 606 293 q 577 362 593 347 q 524 387 561 377 l 524 420 l 798 420 l 798 387 q 761 368 773 378 q 742 342 749 357 q 733 303 736 326 q 731 239 731 281 l 731 3 z "},"H":{"ha":954,"x_min":82,"x_max":871,"o":"m 792 170 q 794 111 792 130 q 801 79 796 91 q 812 60 806 67 q 832 46 819 52 q 871 33 844 40 l 871 0 l 587 0 l 587 33 q 639 54 624 43 q 660 90 654 66 q 665 170 665 113 l 665 454 l 288 454 l 288 170 q 291 103 288 124 q 301 70 294 82 q 322 50 309 58 q 368 33 336 41 l 368 0 l 82 0 l 82 33 q 138 57 124 44 q 157 95 153 71 q 161 170 161 119 l 161 756 q 158 824 161 803 q 147 858 155 846 q 126 877 139 869 q 82 892 113 884 l 82 926 l 368 926 l 368 892 q 325 878 338 885 q 303 859 311 870 q 292 825 296 848 q 288 756 288 803 l 288 516 l 665 516 l 665 756 q 660 837 665 815 q 640 870 654 859 q 587 892 627 882 l 587 926 l 871 926 l 871 892 q 818 871 833 883 q 798 836 803 859 q 792 756 792 812 l 792 170 z "},"I":{"ha":450,"x_min":82,"x_max":368,"o":"m 289 170 q 292 103 289 124 q 302 70 295 82 q 323 50 309 58 q 368 33 337 41 l 368 0 l 82 0 l 82 33 q 138 57 124 44 q 157 95 153 71 q 161 170 161 119 l 161 756 q 158 824 161 803 q 147 858 155 846 q 126 877 139 869 q 82 892 113 884 l 82 926 l 368 926 l 368 892 q 325 878 338 885 q 304 859 312 870 q 293 825 296 848 q 289 756 289 803 l 289 170 z "},"J":{"ha":426,"x_min":20,"x_max":356,"o":"m 277 46 q 255 -102 277 -45 q 183 -199 234 -159 q 42 -266 133 -238 l 20 -206 q 104 -160 79 -183 q 139 -101 130 -136 q 149 -6 149 -66 l 149 756 q 143 837 149 815 q 124 870 138 859 q 70 892 111 882 l 70 926 l 356 926 l 356 892 q 313 878 326 885 q 292 859 300 870 q 280 825 284 848 q 277 756 277 803 l 277 46 z "},"K":{"ha":874,"x_min":82,"x_max":874,"o":"m 288 507 l 308 507 q 355 515 334 507 q 403 546 376 524 q 484 629 429 568 q 572 734 549 702 q 612 800 602 773 q 621 838 621 819 q 605 877 621 865 q 562 892 589 890 l 562 926 l 858 926 l 858 892 q 815 876 836 888 q 772 843 794 864 q 707 775 750 823 l 479 519 l 726 160 q 788 80 766 103 q 831 47 810 58 q 874 33 851 37 l 874 0 l 575 0 l 575 33 q 612 43 600 35 q 623 65 623 50 q 615 95 623 77 q 591 136 608 112 l 433 372 q 392 427 405 414 q 364 447 379 441 q 324 454 349 454 l 288 454 l 288 170 q 291 103 288 124 q 301 70 294 82 q 322 50 309 58 q 368 33 336 41 l 368 0 l 82 0 l 82 33 q 138 57 124 44 q 157 95 153 71 q 161 170 161 119 l 161 756 q 158 824 161 803 q 147 858 155 846 q 126 877 139 869 q 82 892 113 884 l 82 926 l 368 926 l 368 892 q 325 878 338 885 q 303 859 311 870 q 292 825 296 848 q 288 756 288 803 l 288 507 z "},"L":{"ha":745,"x_min":82,"x_max":705,"o":"m 288 62 l 466 62 q 515 66 495 62 q 548 76 534 69 q 573 96 562 83 q 595 129 585 109 q 614 180 605 149 q 637 273 623 211 l 705 273 l 692 0 l 82 0 l 82 33 q 138 57 124 44 q 157 95 153 71 q 161 170 161 119 l 161 756 q 158 824 161 803 q 147 858 155 846 q 126 877 139 869 q 82 892 113 884 l 82 926 l 368 926 l 368 892 q 325 878 338 884 q 304 861 313 871 q 292 827 296 850 q 288 756 288 805 l 288 62 z "},"M":{"ha":1133,"x_min":79,"x_max":1050,"o":"m 1050 892 q 1007 878 1021 885 q 986 859 994 870 q 975 825 979 848 q 971 756 971 803 l 971 170 q 974 103 971 124 q 984 70 977 82 q 1005 50 991 58 q 1050 33 1019 41 l 1050 0 l 768 0 l 768 33 q 821 55 806 43 q 842 91 836 67 q 847 170 847 115 l 847 429 q 850 636 847 532 q 857 780 853 741 l 846 780 l 577 108 l 499 108 l 250 791 l 238 791 q 244 641 241 749 q 248 418 248 532 l 248 170 q 251 103 248 124 q 261 70 254 82 q 282 50 268 58 q 327 33 296 41 l 327 0 l 79 0 l 79 33 q 136 57 121 44 q 154 95 150 71 q 159 170 159 119 l 159 756 q 155 824 159 803 q 144 858 152 846 q 123 877 136 869 q 79 892 111 884 l 79 926 l 321 926 l 559 266 l 821 926 l 1050 926 l 1050 892 z "},"N":{"ha":945,"x_min":79,"x_max":870,"o":"m 627 367 q 668 296 651 326 q 702 227 684 265 l 711 227 q 705 392 707 269 q 702 614 702 515 l 702 756 q 699 825 702 803 q 689 858 696 846 q 670 877 682 869 q 626 892 657 884 l 626 926 l 870 926 l 870 892 q 827 878 840 884 q 807 860 814 871 q 795 827 799 849 q 791 756 791 806 l 791 -4 l 706 -4 l 328 629 q 278 715 293 688 q 250 769 263 743 l 239 769 q 245 580 243 717 q 248 308 248 444 l 248 170 q 251 103 248 124 q 261 70 254 82 q 282 50 268 58 q 327 33 296 41 l 327 0 l 79 0 l 79 33 q 136 57 121 44 q 154 95 150 71 q 159 170 159 119 l 159 756 q 155 824 159 803 q 144 858 152 846 q 123 877 136 869 q 79 892 111 884 l 79 926 l 292 926 l 627 367 z "},"O":{"ha":907,"x_min":81,"x_max":827,"o":"m 444 -11 q 295 16 362 -11 q 181 99 229 43 q 107 244 133 156 q 81 455 81 332 q 127 715 81 606 q 259 880 173 823 q 458 937 345 937 q 661 883 578 937 q 785 727 743 830 q 827 475 827 623 q 779 207 827 316 q 645 43 732 98 q 444 -11 559 -11 m 220 474 q 281 157 220 266 q 458 49 342 49 q 584 96 532 49 q 661 234 635 143 q 687 446 687 325 q 657 691 687 594 q 574 833 627 789 q 453 877 522 877 q 348 848 392 877 q 276 767 304 820 q 234 640 247 715 q 220 474 220 566 z "},"P":{"ha":789,"x_min":82,"x_max":732,"o":"m 288 172 q 293 108 288 132 q 306 70 297 84 q 331 48 315 56 q 380 33 347 41 l 380 0 l 82 0 l 82 33 q 138 57 124 44 q 157 95 153 71 q 161 170 161 119 l 161 756 q 158 824 161 803 q 147 858 155 846 q 126 877 139 869 q 82 892 113 884 l 82 926 l 418 926 q 655 865 577 926 q 732 680 732 804 q 708 553 732 610 q 639 461 684 497 q 533 410 594 425 q 405 394 472 394 q 288 397 330 394 l 288 172 m 288 453 l 367 453 q 493 473 444 453 q 570 539 543 493 q 596 663 596 586 q 581 760 596 721 q 537 823 565 799 q 472 856 510 846 q 389 866 434 866 q 288 863 322 866 l 288 453 z "},"Q":{"ha":907,"x_min":81,"x_max":902,"o":"m 564 6 l 588 -28 q 623 -76 606 -55 q 657 -117 639 -98 q 693 -148 676 -136 q 724 -165 709 -160 q 753 -170 739 -170 q 817 -156 790 -170 q 869 -118 844 -142 l 902 -160 q 804 -236 849 -213 q 710 -259 758 -259 q 646 -252 671 -259 q 596 -227 621 -244 q 541 -176 572 -210 q 471 -81 511 -141 l 422 -10 q 167 117 254 -2 q 81 455 81 235 q 127 715 81 606 q 259 880 173 823 q 458 937 345 937 q 661 883 578 937 q 785 727 743 830 q 827 475 827 623 q 760 166 827 286 q 564 6 692 45 m 220 474 q 281 157 220 266 q 458 49 342 49 q 584 96 532 49 q 661 234 635 143 q 687 446 687 325 q 657 691 687 594 q 574 833 627 789 q 453 877 522 877 q 348 848 392 877 q 276 767 304 820 q 234 640 247 715 q 220 474 220 566 z "},"R":{"ha":863,"x_min":82,"x_max":863,"o":"m 289 402 l 289 172 q 293 101 289 123 q 304 67 296 79 q 324 49 311 56 q 368 33 337 42 l 368 0 l 82 0 l 82 33 q 138 57 124 44 q 157 95 153 71 q 161 170 161 119 l 161 756 q 158 824 161 803 q 147 858 155 846 q 126 877 139 869 q 82 892 113 884 l 82 926 l 418 926 q 655 868 576 926 q 734 689 734 810 q 683 531 734 596 q 529 429 631 466 l 529 424 q 600 375 570 407 q 665 277 629 344 l 726 166 q 772 92 753 117 q 810 52 791 66 q 863 33 830 39 l 863 0 l 675 0 q 626 77 649 36 q 581 161 603 119 l 521 275 q 476 351 494 326 q 445 385 459 375 q 413 398 430 395 q 363 402 397 402 l 289 402 m 289 863 l 289 460 l 366 460 q 461 469 425 460 q 529 501 498 477 q 579 567 560 525 q 597 671 597 610 q 575 779 597 736 q 509 844 553 821 q 388 866 464 866 q 289 863 327 866 z "},"S":{"ha":689,"x_min":76,"x_max":622,"o":"m 144 211 q 180 117 157 151 q 240 65 203 82 q 334 49 277 49 q 456 90 414 49 q 498 211 498 132 q 481 296 498 262 q 423 361 463 331 q 301 433 383 392 q 176 510 222 472 q 107 591 130 547 q 84 688 84 635 q 120 820 84 764 q 224 906 155 876 q 382 937 293 937 q 483 931 433 937 q 606 907 532 926 l 606 724 l 538 724 q 499 817 523 783 q 444 863 475 850 q 361 876 412 876 q 282 860 317 876 q 227 811 247 844 q 206 732 206 778 q 223 651 206 684 q 277 589 241 618 q 386 526 314 561 q 520 445 473 482 q 595 360 568 408 q 622 248 622 312 q 600 128 622 177 q 537 48 577 79 q 443 3 498 17 q 321 -11 387 -11 q 76 25 215 -11 l 76 211 l 144 211 z "},"T":{"ha":823,"x_min":45,"x_max":779,"o":"m 45 926 l 779 926 l 779 690 l 712 690 q 683 782 697 748 q 652 833 668 816 q 617 859 635 851 q 561 866 598 866 l 475 866 l 475 172 q 479 108 475 132 q 493 70 484 84 q 517 48 502 56 q 566 33 533 41 l 566 0 l 256 0 l 256 33 q 292 43 277 38 q 318 57 308 49 q 334 77 328 64 q 344 110 340 89 q 348 172 348 131 l 348 866 l 262 866 q 210 860 231 866 q 172 834 189 854 q 139 780 154 815 q 112 690 125 744 l 45 690 l 45 926 z "},"U":{"ha":900,"x_min":61,"x_max":842,"o":"m 763 320 q 749 193 763 246 q 711 102 736 142 q 652 42 687 67 q 566 3 616 18 q 448 -11 516 -11 q 308 7 366 -11 q 211 67 249 26 q 155 166 172 109 q 138 310 138 222 l 138 756 q 135 828 138 809 q 125 857 132 846 q 106 876 119 868 q 61 892 94 884 l 61 926 l 346 926 l 346 892 q 293 871 308 883 q 273 836 278 859 q 267 756 267 812 l 267 276 q 281 165 267 210 q 320 96 295 121 q 380 60 345 71 q 466 49 414 49 q 549 65 513 49 q 609 116 585 82 q 642 199 633 150 q 651 332 651 249 l 651 756 q 645 837 651 815 q 626 870 640 859 q 572 892 613 882 l 572 926 l 842 926 l 842 892 q 788 870 803 882 q 768 835 774 858 q 763 756 763 812 l 763 320 z "},"V":{"ha":838,"x_min":15,"x_max":839,"o":"m 321 926 l 321 892 q 274 879 290 887 q 250 856 258 871 q 241 816 241 841 q 247 766 241 793 q 262 706 252 739 l 421 153 l 616 710 q 624 737 620 723 q 631 765 628 751 q 635 789 634 779 q 636 808 636 799 q 617 867 636 848 q 554 892 599 886 l 554 926 l 839 926 l 839 892 q 794 873 811 886 q 761 831 777 860 q 720 741 744 803 l 439 -11 l 350 -11 l 121 745 q 90 833 103 807 q 60 872 76 859 q 15 892 43 886 l 15 926 l 321 926 z "},"W":{"ha":1280,"x_min":15,"x_max":1280,"o":"m 638 753 l 421 -5 l 311 -5 l 114 732 q 92 807 102 778 q 71 853 81 836 q 49 878 61 869 q 15 892 37 886 l 15 926 l 305 926 l 305 892 q 247 868 263 884 q 230 823 230 852 q 236 766 230 799 q 253 692 242 734 l 389 157 l 608 926 l 722 926 l 899 156 l 1059 673 q 1088 808 1088 768 q 1070 867 1088 849 q 1013 892 1053 886 l 1013 926 l 1280 926 l 1280 892 q 1248 877 1260 886 q 1224 854 1236 869 q 1200 809 1213 840 q 1169 727 1187 779 l 922 -5 l 825 -5 l 638 753 z "},"X":{"ha":793,"x_min":14,"x_max":779,"o":"m 326 926 l 326 892 q 279 875 294 888 q 265 840 265 862 q 278 792 265 821 q 315 724 291 764 l 413 559 l 510 716 q 543 772 532 751 q 558 808 553 793 q 562 837 562 822 q 550 872 562 858 q 509 892 538 887 l 509 926 l 761 926 l 761 892 q 716 869 736 884 q 673 823 696 853 q 608 729 650 793 l 455 492 l 627 208 q 680 124 664 148 q 710 83 696 100 q 740 54 724 66 q 779 33 755 42 l 779 0 l 481 0 l 481 33 q 528 51 513 39 q 543 86 543 62 q 533 128 543 105 q 503 185 523 151 l 380 390 l 250 178 q 218 90 218 124 q 230 53 218 67 q 271 33 242 39 l 271 0 l 14 0 l 14 33 q 56 51 39 41 q 87 78 72 62 q 120 119 102 94 q 178 207 138 144 l 338 456 l 147 771 q 106 834 120 814 q 80 866 92 854 q 59 883 68 878 q 37 892 50 888 l 37 926 l 326 926 z "},"Y":{"ha":792,"x_min":12,"x_max":798,"o":"m 327 389 l 140 736 q 88 827 106 800 q 53 869 71 854 q 12 892 35 885 l 12 926 l 301 926 l 301 892 q 237 838 237 885 q 247 793 237 818 q 279 724 256 769 l 415 466 l 549 702 q 587 781 576 750 q 598 838 598 812 q 584 876 598 862 q 541 892 569 890 l 541 926 l 798 926 l 798 892 q 749 864 770 882 q 706 816 728 846 q 642 713 684 785 l 454 391 l 454 172 q 458 109 454 133 q 471 71 462 85 q 496 49 481 57 q 545 33 512 41 l 545 0 l 235 0 l 235 33 q 283 48 268 40 q 309 70 299 56 q 322 109 318 85 q 327 172 327 132 l 327 389 z "},"Z":{"ha":747,"x_min":64,"x_max":690,"o":"m 222 62 l 467 62 q 534 71 512 62 q 570 97 556 79 q 596 148 585 115 q 624 249 608 180 l 690 249 l 690 0 l 64 0 l 64 33 l 528 863 l 282 863 q 240 859 256 863 q 213 845 225 854 q 189 819 201 836 q 165 770 177 801 q 140 693 153 739 l 74 693 l 74 926 l 686 926 l 686 893 l 222 62 z "},"À":{"ha":865,"x_min":4,"x_max":852,"o":"m 540 0 l 540 33 q 590 48 574 40 q 615 71 607 56 q 623 110 623 85 q 618 160 623 133 q 602 220 612 186 l 577 307 l 261 307 l 238 241 q 215 165 220 191 q 210 118 210 139 q 230 58 210 77 q 294 33 251 39 l 294 0 l 4 0 l 4 33 q 70 77 42 39 q 125 186 98 115 l 408 937 l 515 937 l 745 180 q 774 100 762 127 q 804 56 787 72 q 852 33 822 41 l 852 0 l 540 0 m 279 366 l 563 366 l 434 804 l 279 366 m 401 1208 l 565 1034 l 527 996 l 267 1175 l 267 1208 l 401 1208 z "},"Á":{"ha":865,"x_min":4,"x_max":852,"o":"m 540 0 l 540 33 q 590 48 574 40 q 615 71 607 56 q 623 110 623 85 q 618 160 623 133 q 602 220 612 186 l 577 307 l 261 307 l 238 241 q 215 165 220 191 q 210 118 210 139 q 230 58 210 77 q 294 33 251 39 l 294 0 l 4 0 l 4 33 q 70 77 42 39 q 125 186 98 115 l 408 937 l 515 937 l 745 180 q 774 100 762 127 q 804 56 787 72 q 852 33 822 41 l 852 0 l 540 0 m 279 366 l 563 366 l 434 804 l 279 366 m 648 1208 l 648 1175 l 389 996 l 351 1034 l 515 1208 l 648 1208 z "},"Â":{"ha":865,"x_min":4,"x_max":852,"o":"m 540 0 l 540 33 q 590 48 574 40 q 615 71 607 56 q 623 110 623 85 q 618 160 623 133 q 602 220 612 186 l 577 307 l 261 307 l 238 241 q 215 165 220 191 q 210 118 210 139 q 230 58 210 77 q 294 33 251 39 l 294 0 l 4 0 l 4 33 q 70 77 42 39 q 125 186 98 115 l 408 937 l 515 937 l 745 180 q 774 100 762 127 q 804 56 787 72 q 852 33 822 41 l 852 0 l 540 0 m 279 366 l 563 366 l 434 804 l 279 366 m 507 1207 l 662 1035 l 623 996 l 462 1121 l 454 1121 l 292 996 l 254 1035 l 416 1207 l 507 1207 z "},"Ã":{"ha":865,"x_min":4,"x_max":852,"o":"m 540 0 l 540 33 q 590 48 574 40 q 615 71 607 56 q 623 110 623 85 q 618 160 623 133 q 602 220 612 186 l 577 307 l 261 307 l 238 241 q 215 165 220 191 q 210 118 210 139 q 230 58 210 77 q 294 33 251 39 l 294 0 l 4 0 l 4 33 q 70 77 42 39 q 125 186 98 115 l 408 937 l 515 937 l 745 180 q 774 100 762 127 q 804 56 787 72 q 852 33 822 41 l 852 0 l 540 0 m 279 366 l 563 366 l 434 804 l 279 366 m 629 1165 l 682 1142 q 633 1056 656 1086 q 588 1015 610 1026 q 540 1004 567 1004 q 508 1007 522 1004 q 481 1018 494 1011 q 440 1044 468 1025 q 411 1063 422 1057 q 389 1075 401 1070 q 365 1079 378 1079 q 335 1072 347 1079 q 311 1048 323 1065 q 286 1004 299 1031 l 233 1027 q 286 1117 266 1092 q 328 1154 307 1143 q 379 1165 349 1165 q 409 1161 395 1165 q 433 1152 422 1158 q 471 1127 444 1145 q 503 1106 491 1114 q 526 1094 514 1099 q 554 1090 538 1090 q 593 1106 576 1090 q 629 1165 610 1123 z "},"Ä":{"ha":865,"x_min":4,"x_max":852,"o":"m 540 0 l 540 33 q 590 48 574 40 q 615 71 607 56 q 623 110 623 85 q 618 160 623 133 q 602 220 612 186 l 577 307 l 261 307 l 238 241 q 215 165 220 191 q 210 118 210 139 q 230 58 210 77 q 294 33 251 39 l 294 0 l 4 0 l 4 33 q 70 77 42 39 q 125 186 98 115 l 408 937 l 515 937 l 745 180 q 774 100 762 127 q 804 56 787 72 q 852 33 822 41 l 852 0 l 540 0 m 279 366 l 563 366 l 434 804 l 279 366 m 640 1146 l 640 1027 l 526 1027 l 526 1146 l 640 1146 m 389 1146 l 389 1027 l 276 1027 l 276 1146 l 389 1146 z "},"Ā":{"ha":865,"x_min":4,"x_max":852,"o":"m 540 0 l 540 33 q 590 48 574 40 q 615 71 607 56 q 623 110 623 85 q 618 160 623 133 q 602 220 612 186 l 577 307 l 261 307 l 238 241 q 215 165 220 191 q 210 118 210 139 q 230 58 210 77 q 294 33 251 39 l 294 0 l 4 0 l 4 33 q 70 77 42 39 q 125 186 98 115 l 408 937 l 515 937 l 745 180 q 774 100 762 127 q 804 56 787 72 q 852 33 822 41 l 852 0 l 540 0 m 279 366 l 563 366 l 434 804 l 279 366 m 647 1043 l 269 1043 l 269 1128 l 647 1128 l 647 1043 z "},"Ă":{"ha":865,"x_min":4,"x_max":852,"o":"m 540 0 l 540 33 q 590 48 574 40 q 615 71 607 56 q 623 110 623 85 q 618 160 623 133 q 602 220 612 186 l 577 307 l 261 307 l 238 241 q 215 165 220 191 q 210 118 210 139 q 230 58 210 77 q 294 33 251 39 l 294 0 l 4 0 l 4 33 q 70 77 42 39 q 125 186 98 115 l 408 937 l 515 937 l 745 180 q 774 100 762 127 q 804 56 787 72 q 852 33 822 41 l 852 0 l 540 0 m 279 366 l 563 366 l 434 804 l 279 366 m 669 1194 q 598 1056 652 1101 q 452 1010 545 1010 q 315 1056 366 1010 q 246 1194 264 1101 l 298 1211 q 336 1142 315 1166 q 383 1108 357 1118 q 455 1098 410 1098 q 528 1108 500 1098 q 578 1142 556 1118 q 617 1211 600 1166 l 669 1194 z "},"Å":{"ha":865,"x_min":4,"x_max":852,"o":"m 540 0 l 540 33 q 590 48 574 40 q 615 71 607 56 q 623 110 623 85 q 618 160 623 133 q 602 220 612 186 l 577 307 l 261 307 l 238 241 q 215 165 220 191 q 210 118 210 139 q 230 58 210 77 q 294 33 251 39 l 294 0 l 4 0 l 4 33 q 70 77 42 39 q 125 186 98 115 l 408 937 l 515 937 l 745 180 q 774 100 762 127 q 804 56 787 72 q 852 33 822 41 l 852 0 l 540 0 m 279 366 l 563 366 l 434 804 l 279 366 m 454 966 q 342 1000 380 966 q 304 1099 304 1034 q 324 1176 304 1144 q 379 1222 344 1207 q 459 1238 414 1238 q 572 1204 534 1238 q 611 1105 611 1170 q 570 1002 611 1038 q 454 966 529 966 m 375 1104 q 396 1033 375 1059 q 459 1008 417 1008 q 519 1031 498 1008 q 540 1098 540 1055 q 518 1171 540 1145 q 458 1196 496 1196 q 396 1172 417 1196 q 375 1104 375 1148 z "},"Ǻ":{"ha":865,"x_min":4,"x_max":865,"o":"m 650 1320 l 650 1286 l 388 1141 l 355 1187 l 517 1320 l 650 1320 m 536 868 l 745 180 q 774 99 762 127 q 804 56 787 71 q 852 33 822 41 l 852 0 l 540 0 l 540 33 q 590 48 574 40 q 615 71 607 56 q 623 110 623 85 q 618 160 623 133 q 602 220 612 186 l 577 307 l 261 307 l 238 241 q 221 191 227 210 q 212 152 216 171 q 209 118 209 133 q 230 58 209 77 q 293 33 250 39 l 293 0 l 4 0 l 4 33 q 70 76 43 42 q 125 186 96 110 l 383 867 q 328 913 348 880 q 309 987 309 945 q 329 1063 309 1031 q 384 1110 349 1095 q 464 1125 419 1125 q 577 1091 538 1125 q 616 993 616 1057 q 595 915 616 948 q 536 868 574 882 m 380 991 q 401 921 380 946 q 464 895 422 895 q 524 919 503 895 q 545 985 545 943 q 523 1058 545 1033 q 463 1083 500 1083 q 401 1059 422 1083 q 380 991 380 1036 m 279 366 l 563 366 l 434 804 l 279 366 m 865 926 z "},"Ą":{"ha":865,"x_min":4,"x_max":852,"o":"m 766 0 q 682 -156 682 -77 q 700 -212 682 -194 q 751 -231 717 -231 q 790 -224 774 -231 q 822 -208 807 -218 l 843 -254 q 789 -281 818 -271 q 722 -292 760 -292 q 672 -285 696 -292 q 629 -264 648 -279 q 600 -228 611 -250 q 589 -173 589 -205 q 620 -83 589 -127 q 707 0 652 -38 l 540 0 l 540 33 q 590 48 574 40 q 615 71 607 56 q 623 110 623 85 q 618 160 623 133 q 602 220 612 186 l 577 307 l 261 307 l 238 241 q 215 165 220 191 q 210 118 210 139 q 230 58 210 77 q 294 33 251 39 l 294 0 l 4 0 l 4 33 q 70 77 42 39 q 125 186 98 115 l 408 937 l 515 937 l 745 180 q 774 100 762 127 q 804 56 787 72 q 852 33 822 41 l 852 0 l 766 0 m 279 366 l 563 366 l 434 804 l 279 366 z "},"Æ":{"ha":1203,"x_min":0,"x_max":1127,"o":"m 1120 926 l 1120 721 l 1054 721 q 1033 779 1044 754 q 1010 821 1022 804 q 985 848 999 838 q 952 862 971 859 q 907 866 933 866 l 675 866 l 696 511 l 838 511 q 884 519 867 511 q 912 548 901 528 q 934 612 924 568 l 998 612 l 998 351 l 934 351 q 913 413 924 392 q 885 442 901 433 q 838 451 869 451 l 701 451 l 727 60 l 903 60 q 957 65 937 60 q 993 85 978 71 q 1019 121 1008 99 q 1039 168 1031 144 q 1060 238 1046 192 l 1127 238 l 1114 0 l 515 0 l 515 33 q 564 51 547 40 q 588 80 580 61 q 595 131 595 98 q 594 170 595 151 l 585 307 l 293 307 l 258 241 q 234 191 249 222 q 215 141 220 159 q 210 110 210 123 q 226 54 210 70 q 281 33 243 39 l 281 0 l 0 0 l 0 33 q 72 83 40 47 q 137 185 103 119 l 522 926 l 1120 926 m 581 366 l 561 706 l 558 772 q 557 821 557 802 l 551 821 l 320 366 l 581 366 z "},"Ǽ":{"ha":1203,"x_min":0,"x_max":1127,"o":"m 1120 926 l 1120 721 l 1054 721 q 1033 779 1044 754 q 1010 821 1022 804 q 985 848 999 838 q 952 862 971 859 q 907 866 933 866 l 675 866 l 696 511 l 838 511 q 884 519 867 511 q 912 548 901 528 q 934 612 924 568 l 998 612 l 998 351 l 934 351 q 913 413 924 392 q 885 442 901 433 q 838 451 869 451 l 701 451 l 727 60 l 903 60 q 957 65 937 60 q 993 85 978 71 q 1019 121 1008 99 q 1039 168 1031 144 q 1060 238 1046 192 l 1127 238 l 1114 0 l 515 0 l 515 33 q 564 51 547 40 q 588 80 580 61 q 595 131 595 98 q 594 170 595 151 l 585 307 l 293 307 l 258 241 q 234 191 249 222 q 215 141 220 159 q 210 110 210 123 q 226 54 210 70 q 281 33 243 39 l 281 0 l 0 0 l 0 33 q 72 83 40 47 q 137 185 103 119 l 522 926 l 1120 926 m 581 366 l 561 706 l 558 772 q 557 821 557 802 l 551 821 l 320 366 l 581 366 m 962 1208 l 962 1175 l 703 996 l 665 1034 l 829 1208 l 962 1208 z "},"Ć":{"ha":781,"x_min":81,"x_max":707,"o":"m 707 906 l 707 718 l 640 718 q 598 812 623 777 q 540 862 573 847 q 460 877 507 877 q 335 830 390 877 q 250 691 281 784 q 218 465 218 597 q 244 238 218 332 q 320 97 270 144 q 444 49 370 49 q 534 65 499 49 q 594 115 570 81 q 640 217 618 150 l 707 217 l 707 23 q 576 -2 643 6 q 429 -11 509 -11 q 169 106 257 -11 q 81 454 81 222 q 126 708 81 599 q 261 877 172 817 q 473 937 350 937 q 587 930 535 937 q 707 906 640 924 m 626 1208 l 626 1175 l 367 996 l 329 1034 l 492 1208 l 626 1208 z "},"Ĉ":{"ha":781,"x_min":81,"x_max":707,"o":"m 707 906 l 707 718 l 640 718 q 598 812 623 777 q 540 862 573 847 q 460 877 507 877 q 335 830 390 877 q 250 691 281 784 q 218 465 218 597 q 244 238 218 332 q 320 97 270 144 q 444 49 370 49 q 534 65 499 49 q 594 115 570 81 q 640 217 618 150 l 707 217 l 707 23 q 576 -2 643 6 q 429 -11 509 -11 q 169 106 257 -11 q 81 454 81 222 q 126 708 81 599 q 261 877 172 817 q 473 937 350 937 q 587 930 535 937 q 707 906 640 924 m 485 1207 l 640 1035 l 601 996 l 439 1121 l 432 1121 l 269 996 l 231 1035 l 394 1207 l 485 1207 z "},"Č":{"ha":781,"x_min":81,"x_max":707,"o":"m 707 906 l 707 718 l 640 718 q 598 812 623 777 q 540 862 573 847 q 460 877 507 877 q 335 830 390 877 q 250 691 281 784 q 218 465 218 597 q 244 238 218 332 q 320 97 270 144 q 444 49 370 49 q 534 65 499 49 q 594 115 570 81 q 640 217 618 150 l 707 217 l 707 23 q 576 -2 643 6 q 429 -11 509 -11 q 169 106 257 -11 q 81 454 81 222 q 126 708 81 599 q 261 877 172 817 q 473 937 350 937 q 587 930 535 937 q 707 906 640 924 m 386 996 l 231 1168 l 270 1207 l 431 1082 l 439 1082 l 602 1207 l 640 1168 l 477 996 l 386 996 z "},"Ċ":{"ha":781,"x_min":81,"x_max":707,"o":"m 707 906 l 707 718 l 640 718 q 598 812 623 777 q 540 862 573 847 q 460 877 507 877 q 335 830 390 877 q 250 691 281 784 q 218 465 218 597 q 244 238 218 332 q 320 97 270 144 q 444 49 370 49 q 534 65 499 49 q 594 115 570 81 q 640 217 618 150 l 707 217 l 707 23 q 576 -2 643 6 q 429 -11 509 -11 q 169 106 257 -11 q 81 454 81 222 q 126 708 81 599 q 261 877 172 817 q 473 937 350 937 q 587 930 535 937 q 707 906 640 924 m 498 1152 l 498 1021 l 373 1021 l 373 1152 l 498 1152 z "},"Ç":{"ha":781,"x_min":81,"x_max":707,"o":"m 707 906 l 707 718 l 640 718 q 598 812 623 777 q 540 862 573 847 q 460 877 507 877 q 335 830 390 877 q 250 691 281 784 q 218 465 218 597 q 244 238 218 332 q 320 97 270 144 q 444 49 370 49 q 534 65 499 49 q 594 115 570 81 q 640 217 618 150 l 707 217 l 707 23 q 519 -7 617 0 l 457 -54 q 469 -90 464 -69 q 473 -130 473 -111 q 418 -242 473 -200 q 260 -292 363 -285 l 251 -241 q 321 -221 295 -236 q 358 -186 348 -206 q 368 -138 368 -166 q 364 -102 368 -120 l 364 -75 l 457 -10 q 444 -11 450 -11 l 429 -11 q 169 106 257 -11 q 81 454 81 222 q 126 708 81 599 q 261 877 172 817 q 473 937 350 937 q 587 930 535 937 q 707 906 640 924 z "},"Ď":{"ha":919,"x_min":81,"x_max":838,"o":"m 81 0 l 81 33 q 126 49 113 41 q 147 68 140 56 q 158 101 155 79 q 161 170 161 123 l 161 756 q 158 825 161 804 q 147 858 155 846 q 126 877 139 869 q 81 892 113 884 l 81 926 l 378 926 q 588 898 507 926 q 726 814 670 869 q 810 678 783 760 q 838 483 838 596 q 812 281 838 368 q 736 135 786 194 q 629 50 692 83 q 509 12 577 23 q 327 0 440 0 l 81 0 m 288 63 q 368 60 315 60 q 470 70 425 60 q 551 100 515 79 q 617 156 588 120 q 665 240 646 193 q 691 345 683 287 q 700 471 700 402 q 660 697 700 608 q 548 826 621 785 q 376 867 476 867 q 288 864 330 867 l 288 63 m 410 996 l 256 1168 l 294 1207 l 456 1082 l 463 1082 l 626 1207 l 664 1168 l 501 996 l 410 996 z "},"Đ":{"ha":923,"x_min":34,"x_max":842,"o":"m 34 516 l 165 516 l 165 756 q 162 825 165 804 q 151 858 159 846 q 130 877 143 869 q 85 892 117 884 l 85 926 l 382 926 q 590 898 509 926 q 729 815 672 870 q 814 679 786 761 q 842 483 842 597 q 816 281 842 368 q 740 135 790 194 q 633 50 696 83 q 513 12 581 23 q 331 0 444 0 l 85 0 l 85 33 q 130 49 117 41 q 151 68 144 56 q 162 101 159 79 q 165 170 165 123 l 165 454 l 34 454 l 34 516 m 292 63 q 372 60 319 60 q 556 99 488 60 q 664 228 625 138 q 704 471 704 317 q 664 697 704 608 q 552 826 625 785 q 380 867 480 867 q 292 864 334 867 l 292 516 l 509 516 l 509 454 l 292 454 l 292 63 z "},"È":{"ha":799,"x_min":82,"x_max":723,"o":"m 716 926 l 716 721 l 650 721 q 629 779 640 754 q 606 821 618 804 q 581 848 595 838 q 548 862 567 859 q 503 866 529 866 l 288 866 l 288 511 l 433 511 q 480 519 463 511 q 508 548 497 528 q 530 612 519 568 l 593 612 l 593 351 l 530 351 q 509 413 520 392 q 481 442 497 433 q 433 451 465 451 l 288 451 l 288 60 l 499 60 q 553 65 532 60 q 589 85 574 71 q 615 121 604 99 q 634 168 627 144 q 656 238 642 192 l 723 238 l 710 0 l 82 0 l 82 33 q 138 57 124 44 q 157 95 153 71 q 161 170 161 119 l 161 756 q 158 824 161 803 q 147 858 155 846 q 126 877 139 869 q 82 892 113 884 l 82 926 l 716 926 m 354 1208 l 517 1034 l 479 996 l 220 1175 l 220 1208 l 354 1208 z "},"É":{"ha":799,"x_min":82,"x_max":723,"o":"m 716 926 l 716 721 l 650 721 q 629 779 640 754 q 606 821 618 804 q 581 848 595 838 q 548 862 567 859 q 503 866 529 866 l 288 866 l 288 511 l 433 511 q 480 519 463 511 q 508 548 497 528 q 530 612 519 568 l 593 612 l 593 351 l 530 351 q 509 413 520 392 q 481 442 497 433 q 433 451 465 451 l 288 451 l 288 60 l 499 60 q 553 65 532 60 q 589 85 574 71 q 615 121 604 99 q 634 168 627 144 q 656 238 642 192 l 723 238 l 710 0 l 82 0 l 82 33 q 138 57 124 44 q 157 95 153 71 q 161 170 161 119 l 161 756 q 158 824 161 803 q 147 858 155 846 q 126 877 139 869 q 82 892 113 884 l 82 926 l 716 926 m 604 1208 l 604 1175 l 345 996 l 307 1034 l 470 1208 l 604 1208 z "},"Ê":{"ha":799,"x_min":82,"x_max":723,"o":"m 716 926 l 716 721 l 650 721 q 629 779 640 754 q 606 821 618 804 q 581 848 595 838 q 548 862 567 859 q 503 866 529 866 l 288 866 l 288 511 l 433 511 q 480 519 463 511 q 508 548 497 528 q 530 612 519 568 l 593 612 l 593 351 l 530 351 q 509 413 520 392 q 481 442 497 433 q 433 451 465 451 l 288 451 l 288 60 l 499 60 q 553 65 532 60 q 589 85 574 71 q 615 121 604 99 q 634 168 627 144 q 656 238 642 192 l 723 238 l 710 0 l 82 0 l 82 33 q 138 57 124 44 q 157 95 153 71 q 161 170 161 119 l 161 756 q 158 824 161 803 q 147 858 155 846 q 126 877 139 869 q 82 892 113 884 l 82 926 l 716 926 m 463 1207 l 617 1035 l 578 996 l 417 1121 l 410 1121 l 247 996 l 209 1035 l 372 1207 l 463 1207 z "},"Ě":{"ha":799,"x_min":82,"x_max":723,"o":"m 716 926 l 716 721 l 650 721 q 629 779 640 754 q 606 821 618 804 q 581 848 595 838 q 548 862 567 859 q 503 866 529 866 l 288 866 l 288 511 l 433 511 q 480 519 463 511 q 508 548 497 528 q 530 612 519 568 l 593 612 l 593 351 l 530 351 q 509 413 520 392 q 481 442 497 433 q 433 451 465 451 l 288 451 l 288 60 l 499 60 q 553 65 532 60 q 589 85 574 71 q 615 121 604 99 q 634 168 627 144 q 656 238 642 192 l 723 238 l 710 0 l 82 0 l 82 33 q 138 57 124 44 q 157 95 153 71 q 161 170 161 119 l 161 756 q 158 824 161 803 q 147 858 155 846 q 126 877 139 869 q 82 892 113 884 l 82 926 l 716 926 m 363 996 l 209 1168 l 248 1207 l 409 1082 l 416 1082 l 579 1207 l 617 1168 l 454 996 l 363 996 z "},"Ë":{"ha":799,"x_min":82,"x_max":723,"o":"m 716 926 l 716 721 l 650 721 q 629 779 640 754 q 606 821 618 804 q 581 848 595 838 q 548 862 567 859 q 503 866 529 866 l 288 866 l 288 511 l 433 511 q 480 519 463 511 q 508 548 497 528 q 530 612 519 568 l 593 612 l 593 351 l 530 351 q 509 413 520 392 q 481 442 497 433 q 433 451 465 451 l 288 451 l 288 60 l 499 60 q 553 65 532 60 q 589 85 574 71 q 615 121 604 99 q 634 168 627 144 q 656 238 642 192 l 723 238 l 710 0 l 82 0 l 82 33 q 138 57 124 44 q 157 95 153 71 q 161 170 161 119 l 161 756 q 158 824 161 803 q 147 858 155 846 q 126 877 139 869 q 82 892 113 884 l 82 926 l 716 926 m 595 1146 l 595 1027 l 481 1027 l 481 1146 l 595 1146 m 345 1146 l 345 1027 l 231 1027 l 231 1146 l 345 1146 z "},"Ē":{"ha":799,"x_min":82,"x_max":723,"o":"m 716 926 l 716 721 l 650 721 q 629 779 640 754 q 606 821 618 804 q 581 848 595 838 q 548 862 567 859 q 503 866 529 866 l 288 866 l 288 511 l 433 511 q 480 519 463 511 q 508 548 497 528 q 530 612 519 568 l 593 612 l 593 351 l 530 351 q 509 413 520 392 q 481 442 497 433 q 433 451 465 451 l 288 451 l 288 60 l 499 60 q 553 65 532 60 q 589 85 574 71 q 615 121 604 99 q 634 168 627 144 q 656 238 642 192 l 723 238 l 710 0 l 82 0 l 82 33 q 138 57 124 44 q 157 95 153 71 q 161 170 161 119 l 161 756 q 158 824 161 803 q 147 858 155 846 q 126 877 139 869 q 82 892 113 884 l 82 926 l 716 926 m 602 1043 l 224 1043 l 224 1128 l 602 1128 l 602 1043 z "},"Ĕ":{"ha":799,"x_min":82,"x_max":723,"o":"m 716 926 l 716 721 l 650 721 q 629 779 640 754 q 606 821 618 804 q 581 848 595 838 q 548 862 567 859 q 503 866 529 866 l 288 866 l 288 511 l 433 511 q 480 519 463 511 q 508 548 497 528 q 530 612 519 568 l 593 612 l 593 351 l 530 351 q 509 413 520 392 q 481 442 497 433 q 433 451 465 451 l 288 451 l 288 60 l 499 60 q 553 65 532 60 q 589 85 574 71 q 615 121 604 99 q 634 168 627 144 q 656 238 642 192 l 723 238 l 710 0 l 82 0 l 82 33 q 138 57 124 44 q 157 95 153 71 q 161 170 161 119 l 161 756 q 158 824 161 803 q 147 858 155 846 q 126 877 139 869 q 82 892 113 884 l 82 926 l 716 926 m 625 1194 q 553 1056 607 1101 q 408 1010 500 1010 q 271 1056 321 1010 q 201 1194 220 1101 l 254 1211 q 291 1142 271 1166 q 338 1108 312 1118 q 410 1098 365 1098 q 483 1108 455 1098 q 533 1142 511 1118 q 572 1211 555 1166 l 625 1194 z "},"Ė":{"ha":799,"x_min":82,"x_max":723,"o":"m 716 926 l 716 721 l 650 721 q 629 779 640 754 q 606 821 618 804 q 581 848 595 838 q 548 862 567 859 q 503 866 529 866 l 288 866 l 288 511 l 433 511 q 480 519 463 511 q 508 548 497 528 q 530 612 519 568 l 593 612 l 593 351 l 530 351 q 509 413 520 392 q 481 442 497 433 q 433 451 465 451 l 288 451 l 288 60 l 499 60 q 553 65 532 60 q 589 85 574 71 q 615 121 604 99 q 634 168 627 144 q 656 238 642 192 l 723 238 l 710 0 l 82 0 l 82 33 q 138 57 124 44 q 157 95 153 71 q 161 170 161 119 l 161 756 q 158 824 161 803 q 147 858 155 846 q 126 877 139 869 q 82 892 113 884 l 82 926 l 716 926 m 475 1152 l 475 1021 l 351 1021 l 351 1152 l 475 1152 z "},"Ę":{"ha":799,"x_min":82,"x_max":724,"o":"m 716 926 l 716 721 l 650 721 q 629 779 640 754 q 606 821 618 804 q 581 848 595 838 q 548 862 567 859 q 503 866 529 866 l 288 866 l 288 511 l 433 511 q 480 519 463 511 q 508 548 497 528 q 530 612 519 568 l 593 612 l 593 351 l 530 351 q 509 413 520 392 q 481 442 497 433 q 433 451 465 451 l 288 451 l 288 60 l 499 60 q 553 65 532 60 q 589 85 574 71 q 615 121 604 99 q 634 168 627 144 q 656 238 642 192 l 723 238 l 710 0 l 647 0 q 563 -156 563 -77 q 580 -212 563 -194 q 632 -231 597 -231 q 671 -224 654 -231 q 703 -208 688 -218 l 724 -254 q 669 -281 699 -271 q 603 -292 640 -292 q 552 -285 576 -292 q 510 -264 528 -279 q 480 -228 492 -250 q 469 -173 469 -205 q 501 -83 469 -127 q 588 0 532 -38 l 82 0 l 82 33 q 138 57 124 44 q 157 95 153 71 q 161 170 161 119 l 161 756 q 158 824 161 803 q 147 858 155 846 q 126 877 139 869 q 82 892 113 884 l 82 926 l 716 926 z "},"Ĝ":{"ha":848,"x_min":81,"x_max":798,"o":"m 731 3 l 678 -11 l 629 42 q 536 2 585 15 q 426 -11 488 -11 q 168 107 254 -11 q 81 456 81 224 q 128 710 81 601 q 264 878 176 819 q 473 937 353 937 q 595 929 536 937 q 724 905 653 922 l 724 718 l 657 718 q 614 813 639 779 q 554 862 589 848 q 465 877 519 877 q 336 829 391 877 q 249 689 280 782 q 218 466 218 597 q 244 239 218 333 q 322 97 271 144 q 449 49 374 49 q 568 84 529 49 q 606 191 606 119 l 606 232 q 600 320 606 293 q 577 362 593 347 q 524 387 561 377 l 524 420 l 798 420 l 798 387 q 761 368 773 378 q 742 342 749 357 q 733 303 736 326 q 731 239 731 281 l 731 3 m 488 1207 l 642 1035 l 604 996 l 442 1121 l 435 1121 l 272 996 l 234 1035 l 397 1207 l 488 1207 z "},"Ğ":{"ha":848,"x_min":81,"x_max":798,"o":"m 731 3 l 678 -11 l 629 42 q 536 2 585 15 q 426 -11 488 -11 q 168 107 254 -11 q 81 456 81 224 q 128 710 81 601 q 264 878 176 819 q 473 937 353 937 q 595 929 536 937 q 724 905 653 922 l 724 718 l 657 718 q 614 813 639 779 q 554 862 589 848 q 465 877 519 877 q 336 829 391 877 q 249 689 280 782 q 218 466 218 597 q 244 239 218 333 q 322 97 271 144 q 449 49 374 49 q 568 84 529 49 q 606 191 606 119 l 606 232 q 600 320 606 293 q 577 362 593 347 q 524 387 561 377 l 524 420 l 798 420 l 798 387 q 761 368 773 378 q 742 342 749 357 q 733 303 736 326 q 731 239 731 281 l 731 3 m 650 1194 q 579 1056 633 1101 q 433 1010 526 1010 q 296 1056 347 1010 q 227 1194 245 1101 l 279 1211 q 317 1142 296 1166 q 364 1108 338 1118 q 436 1098 391 1098 q 509 1108 481 1098 q 559 1142 537 1118 q 598 1211 581 1166 l 650 1194 z "},"Ġ":{"ha":848,"x_min":81,"x_max":798,"o":"m 731 3 l 678 -11 l 629 42 q 536 2 585 15 q 426 -11 488 -11 q 168 107 254 -11 q 81 456 81 224 q 128 710 81 601 q 264 878 176 819 q 473 937 353 937 q 595 929 536 937 q 724 905 653 922 l 724 718 l 657 718 q 614 813 639 779 q 554 862 589 848 q 465 877 519 877 q 336 829 391 877 q 249 689 280 782 q 218 466 218 597 q 244 239 218 333 q 322 97 271 144 q 449 49 374 49 q 568 84 529 49 q 606 191 606 119 l 606 232 q 600 320 606 293 q 577 362 593 347 q 524 387 561 377 l 524 420 l 798 420 l 798 387 q 761 368 773 378 q 742 342 749 357 q 733 303 736 326 q 731 239 731 281 l 731 3 m 500 1152 l 500 1021 l 376 1021 l 376 1152 l 500 1152 z "},"Ģ":{"ha":848,"x_min":81,"x_max":798,"o":"m 731 3 l 678 -11 l 629 42 q 536 2 585 15 q 426 -11 488 -11 q 168 107 254 -11 q 81 456 81 224 q 128 710 81 601 q 264 878 176 819 q 473 937 353 937 q 595 929 536 937 q 724 905 653 922 l 724 718 l 657 718 q 614 813 639 779 q 554 862 589 848 q 465 877 519 877 q 336 829 391 877 q 249 689 280 782 q 218 466 218 597 q 244 239 218 333 q 322 97 271 144 q 449 49 374 49 q 568 84 529 49 q 606 191 606 119 l 606 232 q 600 320 606 293 q 577 362 593 347 q 524 387 561 377 l 524 420 l 798 420 l 798 387 q 761 368 773 378 q 742 342 749 357 q 733 303 736 326 q 731 239 731 281 l 731 3 m 513 -67 q 522 -132 522 -95 q 467 -243 522 -201 q 309 -292 412 -285 l 300 -241 q 368 -223 343 -235 q 404 -190 392 -211 q 416 -132 416 -168 q 410 -67 416 -97 l 513 -67 z "},"Ĥ":{"ha":954,"x_min":82,"x_max":871,"o":"m 792 170 q 794 111 792 130 q 801 79 796 91 q 812 60 806 67 q 832 46 819 52 q 871 33 844 40 l 871 0 l 587 0 l 587 33 q 639 54 624 43 q 660 90 654 66 q 665 170 665 113 l 665 454 l 288 454 l 288 170 q 291 103 288 124 q 301 70 294 82 q 322 50 309 58 q 368 33 336 41 l 368 0 l 82 0 l 82 33 q 138 57 124 44 q 157 95 153 71 q 161 170 161 119 l 161 756 q 158 824 161 803 q 147 858 155 846 q 126 877 139 869 q 82 892 113 884 l 82 926 l 368 926 l 368 892 q 325 878 338 885 q 303 859 311 870 q 292 825 296 848 q 288 756 288 803 l 288 516 l 665 516 l 665 756 q 660 837 665 815 q 640 870 654 859 q 587 892 627 882 l 587 926 l 871 926 l 871 892 q 818 871 833 883 q 798 836 803 859 q 792 756 792 812 l 792 170 m 526 1207 l 681 1035 l 642 996 l 481 1121 l 473 1121 l 311 996 l 273 1035 l 435 1207 l 526 1207 z "},"Ħ":{"ha":960,"x_min":82,"x_max":878,"o":"m 799 170 q 801 111 799 130 q 808 79 803 91 q 819 60 812 67 q 839 46 826 52 q 878 33 851 40 l 878 0 l 593 0 l 593 33 q 646 54 631 43 q 666 90 661 66 q 672 170 672 113 l 672 342 l 288 342 l 288 170 q 291 103 288 124 q 301 70 294 82 q 322 50 309 58 q 368 33 336 41 l 368 0 l 82 0 l 82 33 q 138 57 124 44 q 157 95 153 71 q 161 170 161 119 l 161 756 q 158 824 161 803 q 147 858 155 846 q 126 877 139 869 q 82 892 113 884 l 82 926 l 368 926 l 368 892 q 325 878 338 885 q 303 859 311 870 q 292 825 296 848 q 288 756 288 803 l 288 628 l 672 628 l 672 756 q 666 837 672 815 q 647 870 661 859 q 593 892 633 882 l 593 926 l 878 926 l 878 892 q 825 871 840 883 q 804 836 810 859 q 799 756 799 812 l 799 170 m 672 404 l 672 566 l 288 566 l 288 404 l 672 404 z "},"Ì":{"ha":450,"x_min":35,"x_max":368,"o":"m 289 170 q 292 103 289 124 q 302 70 295 82 q 323 50 309 58 q 368 33 337 41 l 368 0 l 82 0 l 82 33 q 138 57 124 44 q 157 95 153 71 q 161 170 161 119 l 161 756 q 158 824 161 803 q 147 858 155 846 q 126 877 139 869 q 82 892 113 884 l 82 926 l 368 926 l 368 892 q 325 878 338 885 q 304 859 312 870 q 293 825 296 848 q 289 756 289 803 l 289 170 m 169 1208 l 332 1034 l 294 996 l 35 1175 l 35 1208 l 169 1208 z "},"Í":{"ha":450,"x_min":82,"x_max":416,"o":"m 289 170 q 292 103 289 124 q 302 70 295 82 q 323 50 309 58 q 368 33 337 41 l 368 0 l 82 0 l 82 33 q 138 57 124 44 q 157 95 153 71 q 161 170 161 119 l 161 756 q 158 824 161 803 q 147 858 155 846 q 126 877 139 869 q 82 892 113 884 l 82 926 l 368 926 l 368 892 q 325 878 338 885 q 304 859 312 870 q 293 825 296 848 q 289 756 289 803 l 289 170 m 416 1208 l 416 1175 l 157 996 l 119 1034 l 282 1208 l 416 1208 z "},"Î":{"ha":450,"x_min":21,"x_max":429,"o":"m 289 170 q 292 103 289 124 q 302 70 295 82 q 323 50 309 58 q 368 33 337 41 l 368 0 l 82 0 l 82 33 q 138 57 124 44 q 157 95 153 71 q 161 170 161 119 l 161 756 q 158 824 161 803 q 147 858 155 846 q 126 877 139 869 q 82 892 113 884 l 82 926 l 368 926 l 368 892 q 325 878 338 885 q 304 859 312 870 q 293 825 296 848 q 289 756 289 803 l 289 170 m 275 1207 l 429 1035 l 391 996 l 229 1121 l 222 1121 l 59 996 l 21 1035 l 184 1207 l 275 1207 z "},"Ĩ":{"ha":450,"x_min":1,"x_max":450,"o":"m 289 170 q 292 103 289 124 q 302 70 295 82 q 323 50 309 58 q 368 33 337 41 l 368 0 l 82 0 l 82 33 q 138 57 124 44 q 157 95 153 71 q 161 170 161 119 l 161 756 q 158 824 161 803 q 147 858 155 846 q 126 877 139 869 q 82 892 113 884 l 82 926 l 368 926 l 368 892 q 325 878 338 885 q 304 859 312 870 q 293 825 296 848 q 289 756 289 803 l 289 170 m 397 1165 l 450 1142 q 400 1056 424 1086 q 356 1015 377 1026 q 307 1004 334 1004 q 275 1007 289 1004 q 249 1018 262 1011 q 208 1044 235 1025 q 179 1063 189 1057 q 157 1075 168 1070 q 132 1079 145 1079 q 103 1072 115 1079 q 79 1048 91 1065 q 54 1004 66 1031 l 1 1027 q 54 1117 33 1092 q 95 1154 74 1143 q 146 1165 117 1165 q 176 1161 163 1165 q 200 1152 189 1158 q 239 1127 212 1145 q 270 1106 258 1114 q 294 1094 281 1099 q 321 1090 306 1090 q 360 1106 343 1090 q 397 1165 377 1123 z "},"Ï":{"ha":450,"x_min":43,"x_max":407,"o":"m 289 170 q 292 103 289 124 q 302 70 295 82 q 323 50 309 58 q 368 33 337 41 l 368 0 l 82 0 l 82 33 q 138 57 124 44 q 157 95 153 71 q 161 170 161 119 l 161 756 q 158 824 161 803 q 147 858 155 846 q 126 877 139 869 q 82 892 113 884 l 82 926 l 368 926 l 368 892 q 325 878 338 885 q 304 859 312 870 q 293 825 296 848 q 289 756 289 803 l 289 170 m 407 1146 l 407 1027 l 294 1027 l 294 1146 l 407 1146 m 157 1146 l 157 1027 l 43 1027 l 43 1146 l 157 1146 z "},"Ī":{"ha":450,"x_min":36,"x_max":414,"o":"m 289 170 q 292 103 289 124 q 302 70 295 82 q 323 50 309 58 q 368 33 337 41 l 368 0 l 82 0 l 82 33 q 138 57 124 44 q 157 95 153 71 q 161 170 161 119 l 161 756 q 158 824 161 803 q 147 858 155 846 q 126 877 139 869 q 82 892 113 884 l 82 926 l 368 926 l 368 892 q 325 878 338 885 q 304 859 312 870 q 293 825 296 848 q 289 756 289 803 l 289 170 m 414 1043 l 36 1043 l 36 1128 l 414 1128 l 414 1043 z "},"Ĭ":{"ha":450,"x_min":14,"x_max":437,"o":"m 289 170 q 292 103 289 124 q 302 70 295 82 q 323 50 309 58 q 368 33 337 41 l 368 0 l 82 0 l 82 33 q 138 57 124 44 q 157 95 153 71 q 161 170 161 119 l 161 756 q 158 824 161 803 q 147 858 155 846 q 126 877 139 869 q 82 892 113 884 l 82 926 l 368 926 l 368 892 q 325 878 338 885 q 304 859 312 870 q 293 825 296 848 q 289 756 289 803 l 289 170 m 437 1194 q 366 1056 419 1101 q 220 1010 312 1010 q 83 1056 134 1010 q 14 1194 32 1101 l 66 1211 q 103 1142 83 1166 q 151 1108 124 1118 q 222 1098 177 1098 q 295 1108 267 1098 q 346 1142 323 1118 q 385 1211 368 1166 l 437 1194 z "},"İ":{"ha":450,"x_min":82,"x_max":368,"o":"m 289 170 q 292 103 289 124 q 302 70 295 82 q 323 50 309 58 q 368 33 337 41 l 368 0 l 82 0 l 82 33 q 138 57 124 44 q 157 95 153 71 q 161 170 161 119 l 161 756 q 158 824 161 803 q 147 858 155 846 q 126 877 139 869 q 82 892 113 884 l 82 926 l 368 926 l 368 892 q 325 878 338 885 q 304 859 312 870 q 293 825 296 848 q 289 756 289 803 l 289 170 m 288 1152 l 288 1021 l 163 1021 l 163 1152 l 288 1152 z "},"Į":{"ha":450,"x_min":82,"x_max":397,"o":"m 289 170 q 292 103 289 124 q 302 70 295 82 q 323 50 309 58 q 368 33 337 41 l 368 0 l 321 0 q 237 -156 237 -77 q 254 -212 237 -194 q 306 -231 271 -231 q 345 -224 328 -231 q 376 -208 361 -218 l 397 -254 q 343 -281 372 -271 q 277 -292 314 -292 q 226 -285 250 -292 q 184 -264 202 -279 q 154 -228 165 -250 q 143 -173 143 -205 q 175 -83 143 -127 q 262 0 206 -38 l 82 0 l 82 33 q 138 57 124 44 q 157 95 153 71 q 161 170 161 119 l 161 756 q 158 824 161 803 q 147 858 155 846 q 126 877 139 869 q 82 892 113 884 l 82 926 l 368 926 l 368 892 q 325 878 338 885 q 304 859 312 870 q 293 825 296 848 q 289 756 289 803 l 289 170 z "},"Ĳ":{"ha":876,"x_min":82,"x_max":806,"o":"m 289 170 q 292 103 289 124 q 302 70 295 82 q 323 50 309 58 q 368 33 337 41 l 368 0 l 82 0 l 82 33 q 138 57 124 44 q 157 95 153 71 q 161 170 161 119 l 161 756 q 158 824 161 803 q 147 858 155 846 q 126 877 139 869 q 82 892 113 884 l 82 926 l 368 926 l 368 892 q 325 878 338 885 q 304 859 312 870 q 293 825 296 848 q 289 756 289 803 l 289 170 m 727 46 q 706 -102 727 -45 q 634 -199 684 -159 q 492 -266 583 -238 l 470 -206 q 555 -160 530 -183 q 590 -101 580 -136 q 600 -6 600 -66 l 600 756 q 594 837 600 815 q 575 870 588 859 q 520 892 562 882 l 520 926 l 806 926 l 806 892 q 763 878 777 885 q 742 859 750 870 q 731 825 734 848 q 727 756 727 803 l 727 46 z "},"Ĵ":{"ha":426,"x_min":9,"x_max":417,"o":"m 277 46 q 255 -102 277 -45 q 183 -199 234 -159 q 42 -266 133 -238 l 20 -206 q 104 -160 79 -183 q 139 -101 130 -136 q 149 -6 149 -66 l 149 756 q 143 837 149 815 q 124 870 138 859 q 70 892 111 882 l 70 926 l 356 926 l 356 892 q 313 878 326 885 q 292 859 300 870 q 280 825 284 848 q 277 756 277 803 l 277 46 m 262 1207 l 417 1035 l 378 996 l 217 1121 l 210 1121 l 47 996 l 9 1035 l 172 1207 l 262 1207 z "},"Ķ":{"ha":874,"x_min":82,"x_max":874,"o":"m 288 507 l 308 507 q 355 515 334 507 q 403 546 376 524 q 484 629 429 568 q 572 734 549 702 q 612 800 602 773 q 621 838 621 819 q 605 877 621 865 q 562 892 589 890 l 562 926 l 858 926 l 858 892 q 815 876 836 888 q 772 843 794 864 q 707 775 750 823 l 479 519 l 726 160 q 788 80 766 103 q 831 47 810 58 q 874 33 851 37 l 874 0 l 575 0 l 575 33 q 612 43 600 35 q 623 65 623 50 q 615 95 623 77 q 591 136 608 112 l 433 372 q 392 427 405 414 q 364 447 379 441 q 324 454 349 454 l 288 454 l 288 170 q 291 103 288 124 q 301 70 294 82 q 322 50 309 58 q 368 33 336 41 l 368 0 l 82 0 l 82 33 q 138 57 124 44 q 157 95 153 71 q 161 170 161 119 l 161 756 q 158 824 161 803 q 147 858 155 846 q 126 877 139 869 q 82 892 113 884 l 82 926 l 368 926 l 368 892 q 325 878 338 885 q 303 859 311 870 q 292 825 296 848 q 288 756 288 803 l 288 507 m 526 -67 q 534 -132 534 -95 q 479 -243 534 -201 q 321 -292 425 -285 l 312 -241 q 380 -223 355 -235 q 416 -190 404 -211 q 429 -132 429 -168 q 422 -67 429 -97 l 526 -67 z "},"Ĺ":{"ha":745,"x_min":82,"x_max":705,"o":"m 288 62 l 466 62 q 515 66 495 62 q 548 76 534 69 q 573 96 562 83 q 595 129 585 109 q 614 180 605 149 q 637 273 623 211 l 705 273 l 692 0 l 82 0 l 82 33 q 138 57 124 44 q 157 95 153 71 q 161 170 161 119 l 161 756 q 158 824 161 803 q 147 858 155 846 q 126 877 139 869 q 82 892 113 884 l 82 926 l 368 926 l 368 892 q 325 878 338 884 q 304 861 313 871 q 292 827 296 850 q 288 756 288 805 l 288 62 m 534 1208 l 534 1175 l 275 996 l 237 1034 l 400 1208 l 534 1208 z "},"Ľ":{"ha":745,"x_min":82,"x_max":705,"o":"m 288 62 l 466 62 q 515 66 495 62 q 548 76 534 69 q 573 96 562 83 q 595 129 585 109 q 614 180 605 149 q 637 273 623 211 l 705 273 l 692 0 l 82 0 l 82 33 q 138 57 124 44 q 157 95 153 71 q 161 170 161 119 l 161 756 q 158 824 161 803 q 147 858 155 846 q 126 877 139 869 q 82 892 113 884 l 82 926 l 368 926 l 368 892 q 325 878 338 884 q 304 861 313 871 q 292 827 296 850 q 288 756 288 805 l 288 62 m 600 970 q 615 883 615 926 q 603 813 615 844 q 566 751 591 783 q 484 669 540 720 l 446 705 q 491 782 478 745 q 504 869 504 819 q 502 909 504 890 q 493 970 500 928 l 600 970 z "},"Ļ":{"ha":745,"x_min":82,"x_max":705,"o":"m 288 62 l 466 62 q 515 66 495 62 q 548 76 534 69 q 573 96 562 83 q 595 129 585 109 q 614 180 605 149 q 637 273 623 211 l 705 273 l 692 0 l 82 0 l 82 33 q 138 57 124 44 q 157 95 153 71 q 161 170 161 119 l 161 756 q 158 824 161 803 q 147 858 155 846 q 126 877 139 869 q 82 892 113 884 l 82 926 l 368 926 l 368 892 q 325 878 338 884 q 304 861 313 871 q 292 827 296 850 q 288 756 288 805 l 288 62 m 467 -67 q 475 -132 475 -95 q 420 -243 475 -201 q 262 -292 366 -285 l 253 -241 q 321 -223 296 -235 q 357 -190 345 -211 q 370 -132 370 -168 q 363 -67 370 -97 l 467 -67 z "},"Ł":{"ha":749,"x_min":9,"x_max":709,"o":"m 43 330 l 9 386 l 165 485 l 165 756 q 162 824 165 803 q 151 858 159 846 q 130 877 143 869 q 86 892 117 884 l 86 926 l 372 926 l 372 892 q 329 878 342 884 q 309 861 317 871 q 296 827 300 850 q 292 756 292 805 l 292 557 l 509 699 l 544 644 l 292 484 l 292 62 l 470 62 q 519 66 499 62 q 552 76 538 69 q 577 96 566 83 q 599 129 589 109 q 618 180 609 149 q 641 273 627 211 l 709 273 l 696 0 l 86 0 l 86 33 q 142 57 128 44 q 161 95 157 71 q 165 170 165 119 l 165 412 l 43 330 z "},"Ŀ":{"ha":864,"x_min":82,"x_max":847,"o":"m 288 62 l 466 62 q 515 66 495 62 q 548 76 534 69 q 573 96 562 83 q 595 129 585 109 q 614 180 605 149 q 637 273 623 211 l 705 273 l 692 0 l 82 0 l 82 33 q 138 57 124 44 q 157 95 153 71 q 161 170 161 119 l 161 756 q 158 824 161 803 q 147 858 155 846 q 126 877 139 869 q 82 892 113 884 l 82 926 l 368 926 l 368 892 q 325 878 338 884 q 304 861 313 871 q 292 827 296 850 q 288 756 288 805 l 288 62 m 847 538 l 847 406 l 722 406 l 722 538 l 847 538 z "},"Ń":{"ha":945,"x_min":79,"x_max":870,"o":"m 627 367 q 668 296 651 326 q 702 227 684 265 l 711 227 q 705 392 707 269 q 702 614 702 515 l 702 756 q 699 825 702 803 q 689 858 696 846 q 670 877 682 869 q 626 892 657 884 l 626 926 l 870 926 l 870 892 q 827 878 840 884 q 807 860 814 871 q 795 827 799 849 q 791 756 791 806 l 791 -4 l 706 -4 l 328 629 q 278 715 293 688 q 250 769 263 743 l 239 769 q 245 580 243 717 q 248 308 248 444 l 248 170 q 251 103 248 124 q 261 70 254 82 q 282 50 268 58 q 327 33 296 41 l 327 0 l 79 0 l 79 33 q 136 57 121 44 q 154 95 150 71 q 159 170 159 119 l 159 756 q 155 824 159 803 q 144 858 152 846 q 123 877 136 869 q 79 892 111 884 l 79 926 l 292 926 l 627 367 m 678 1208 l 678 1175 l 419 996 l 381 1034 l 545 1208 l 678 1208 z "},"Ň":{"ha":945,"x_min":79,"x_max":870,"o":"m 627 367 q 668 296 651 326 q 702 227 684 265 l 711 227 q 705 392 707 269 q 702 614 702 515 l 702 756 q 699 825 702 803 q 689 858 696 846 q 670 877 682 869 q 626 892 657 884 l 626 926 l 870 926 l 870 892 q 827 878 840 884 q 807 860 814 871 q 795 827 799 849 q 791 756 791 806 l 791 -4 l 706 -4 l 328 629 q 278 715 293 688 q 250 769 263 743 l 239 769 q 245 580 243 717 q 248 308 248 444 l 248 170 q 251 103 248 124 q 261 70 254 82 q 282 50 268 58 q 327 33 296 41 l 327 0 l 79 0 l 79 33 q 136 57 121 44 q 154 95 150 71 q 159 170 159 119 l 159 756 q 155 824 159 803 q 144 858 152 846 q 123 877 136 869 q 79 892 111 884 l 79 926 l 292 926 l 627 367 m 439 996 l 284 1168 l 323 1207 l 484 1082 l 492 1082 l 654 1207 l 692 1168 l 530 996 l 439 996 z "},"Ñ":{"ha":945,"x_min":79,"x_max":870,"o":"m 627 367 q 668 296 651 326 q 702 227 684 265 l 711 227 q 705 392 707 269 q 702 614 702 515 l 702 756 q 699 825 702 803 q 689 858 696 846 q 670 877 682 869 q 626 892 657 884 l 626 926 l 870 926 l 870 892 q 827 878 840 884 q 807 860 814 871 q 795 827 799 849 q 791 756 791 806 l 791 -4 l 706 -4 l 328 629 q 278 715 293 688 q 250 769 263 743 l 239 769 q 245 580 243 717 q 248 308 248 444 l 248 170 q 251 103 248 124 q 261 70 254 82 q 282 50 268 58 q 327 33 296 41 l 327 0 l 79 0 l 79 33 q 136 57 121 44 q 154 95 150 71 q 159 170 159 119 l 159 756 q 155 824 159 803 q 144 858 152 846 q 123 877 136 869 q 79 892 111 884 l 79 926 l 292 926 l 627 367 m 660 1165 l 713 1142 q 664 1056 687 1086 q 619 1015 640 1026 q 570 1004 597 1004 q 538 1007 552 1004 q 512 1018 525 1011 q 471 1044 498 1025 q 442 1063 452 1057 q 420 1075 431 1070 q 395 1079 408 1079 q 366 1072 378 1079 q 342 1048 354 1065 q 317 1004 330 1031 l 264 1027 q 317 1117 296 1092 q 358 1154 337 1143 q 410 1165 380 1165 q 439 1161 426 1165 q 464 1152 452 1158 q 502 1127 475 1145 q 533 1106 522 1114 q 557 1094 545 1099 q 585 1090 569 1090 q 623 1106 606 1090 q 660 1165 640 1123 z "},"Ņ":{"ha":945,"x_min":79,"x_max":870,"o":"m 627 367 q 668 296 651 326 q 702 227 684 265 l 711 227 q 705 392 707 269 q 702 614 702 515 l 702 756 q 699 825 702 803 q 689 858 696 846 q 670 877 682 869 q 626 892 657 884 l 626 926 l 870 926 l 870 892 q 827 878 840 884 q 807 860 814 871 q 795 827 799 849 q 791 756 791 806 l 791 -4 l 706 -4 l 328 629 q 278 715 293 688 q 250 769 263 743 l 239 769 q 245 580 243 717 q 248 308 248 444 l 248 170 q 251 103 248 124 q 261 70 254 82 q 282 50 268 58 q 327 33 296 41 l 327 0 l 79 0 l 79 33 q 136 57 121 44 q 154 95 150 71 q 159 170 159 119 l 159 756 q 155 824 159 803 q 144 858 152 846 q 123 877 136 869 q 79 892 111 884 l 79 926 l 292 926 l 627 367 m 543 -67 q 552 -132 552 -95 q 497 -243 552 -201 q 338 -292 442 -285 l 330 -241 q 397 -223 373 -235 q 434 -190 422 -211 q 446 -132 446 -168 q 440 -67 446 -97 l 543 -67 z "},"Ò":{"ha":907,"x_min":81,"x_max":827,"o":"m 444 -11 q 295 16 362 -11 q 181 99 229 43 q 107 244 133 156 q 81 455 81 332 q 127 715 81 606 q 259 880 173 823 q 458 937 345 937 q 661 883 578 937 q 785 727 743 830 q 827 475 827 623 q 779 207 827 316 q 645 43 732 98 q 444 -11 559 -11 m 220 474 q 281 157 220 266 q 458 49 342 49 q 584 96 532 49 q 661 234 635 143 q 687 446 687 325 q 657 691 687 594 q 574 833 627 789 q 453 877 522 877 q 348 848 392 877 q 276 767 304 820 q 234 640 247 715 q 220 474 220 566 m 397 1208 l 561 1034 l 523 996 l 263 1175 l 263 1208 l 397 1208 z "},"Ó":{"ha":907,"x_min":81,"x_max":827,"o":"m 444 -11 q 295 16 362 -11 q 181 99 229 43 q 107 244 133 156 q 81 455 81 332 q 127 715 81 606 q 259 880 173 823 q 458 937 345 937 q 661 883 578 937 q 785 727 743 830 q 827 475 827 623 q 779 207 827 316 q 645 43 732 98 q 444 -11 559 -11 m 220 474 q 281 157 220 266 q 458 49 342 49 q 584 96 532 49 q 661 234 635 143 q 687 446 687 325 q 657 691 687 594 q 574 833 627 789 q 453 877 522 877 q 348 848 392 877 q 276 767 304 820 q 234 640 247 715 q 220 474 220 566 m 644 1208 l 644 1175 l 385 996 l 347 1034 l 511 1208 l 644 1208 z "},"Ô":{"ha":907,"x_min":81,"x_max":827,"o":"m 444 -11 q 295 16 362 -11 q 181 99 229 43 q 107 244 133 156 q 81 455 81 332 q 127 715 81 606 q 259 880 173 823 q 458 937 345 937 q 661 883 578 937 q 785 727 743 830 q 827 475 827 623 q 779 207 827 316 q 645 43 732 98 q 444 -11 559 -11 m 220 474 q 281 157 220 266 q 458 49 342 49 q 584 96 532 49 q 661 234 635 143 q 687 446 687 325 q 657 691 687 594 q 574 833 627 789 q 453 877 522 877 q 348 848 392 877 q 276 767 304 820 q 234 640 247 715 q 220 474 220 566 m 503 1207 l 658 1035 l 619 996 l 458 1121 l 450 1121 l 288 996 l 250 1035 l 412 1207 l 503 1207 z "},"Õ":{"ha":907,"x_min":81,"x_max":827,"o":"m 444 -11 q 295 16 362 -11 q 181 99 229 43 q 107 244 133 156 q 81 455 81 332 q 127 715 81 606 q 259 880 173 823 q 458 937 345 937 q 661 883 578 937 q 785 727 743 830 q 827 475 827 623 q 779 207 827 316 q 645 43 732 98 q 444 -11 559 -11 m 220 474 q 281 157 220 266 q 458 49 342 49 q 584 96 532 49 q 661 234 635 143 q 687 446 687 325 q 657 691 687 594 q 574 833 627 789 q 453 877 522 877 q 348 848 392 877 q 276 767 304 820 q 234 640 247 715 q 220 474 220 566 m 625 1165 l 678 1142 q 629 1056 652 1086 q 584 1015 606 1026 q 536 1004 563 1004 q 504 1007 517 1004 q 477 1018 490 1011 q 436 1044 464 1025 q 407 1063 418 1057 q 385 1075 397 1070 q 361 1079 374 1079 q 331 1072 343 1079 q 307 1048 319 1065 q 282 1004 295 1031 l 229 1027 q 282 1117 262 1092 q 324 1154 302 1143 q 375 1165 345 1165 q 405 1161 391 1165 q 429 1152 418 1158 q 467 1127 440 1145 q 498 1106 487 1114 q 522 1094 510 1099 q 550 1090 534 1090 q 589 1106 572 1090 q 625 1165 606 1123 z "},"Ö":{"ha":907,"x_min":81,"x_max":827,"o":"m 444 -11 q 295 16 362 -11 q 181 99 229 43 q 107 244 133 156 q 81 455 81 332 q 127 715 81 606 q 259 880 173 823 q 458 937 345 937 q 661 883 578 937 q 785 727 743 830 q 827 475 827 623 q 779 207 827 316 q 645 43 732 98 q 444 -11 559 -11 m 220 474 q 281 157 220 266 q 458 49 342 49 q 584 96 532 49 q 661 234 635 143 q 687 446 687 325 q 657 691 687 594 q 574 833 627 789 q 453 877 522 877 q 348 848 392 877 q 276 767 304 820 q 234 640 247 715 q 220 474 220 566 m 635 1146 l 635 1027 l 522 1027 l 522 1146 l 635 1146 m 385 1146 l 385 1027 l 272 1027 l 272 1146 l 385 1146 z "},"Ō":{"ha":907,"x_min":81,"x_max":827,"o":"m 444 -11 q 295 16 362 -11 q 181 99 229 43 q 107 244 133 156 q 81 455 81 332 q 127 715 81 606 q 259 880 173 823 q 458 937 345 937 q 661 883 578 937 q 785 727 743 830 q 827 475 827 623 q 779 207 827 316 q 645 43 732 98 q 444 -11 559 -11 m 220 474 q 281 157 220 266 q 458 49 342 49 q 584 96 532 49 q 661 234 635 143 q 687 446 687 325 q 657 691 687 594 q 574 833 627 789 q 453 877 522 877 q 348 848 392 877 q 276 767 304 820 q 234 640 247 715 q 220 474 220 566 m 643 1043 l 264 1043 l 264 1128 l 643 1128 l 643 1043 z "},"Ŏ":{"ha":907,"x_min":81,"x_max":827,"o":"m 444 -11 q 295 16 362 -11 q 181 99 229 43 q 107 244 133 156 q 81 455 81 332 q 127 715 81 606 q 259 880 173 823 q 458 937 345 937 q 661 883 578 937 q 785 727 743 830 q 827 475 827 623 q 779 207 827 316 q 645 43 732 98 q 444 -11 559 -11 m 220 474 q 281 157 220 266 q 458 49 342 49 q 584 96 532 49 q 661 234 635 143 q 687 446 687 325 q 657 691 687 594 q 574 833 627 789 q 453 877 522 877 q 348 848 392 877 q 276 767 304 820 q 234 640 247 715 q 220 474 220 566 m 665 1194 q 594 1056 648 1101 q 448 1010 541 1010 q 311 1056 362 1010 q 242 1194 260 1101 l 294 1211 q 332 1142 311 1166 q 379 1108 353 1118 q 451 1098 406 1098 q 524 1108 496 1098 q 574 1142 552 1118 q 613 1211 596 1166 l 665 1194 z "},"Ő":{"ha":907,"x_min":81,"x_max":827,"o":"m 444 -11 q 295 16 362 -11 q 181 99 229 43 q 107 244 133 156 q 81 455 81 332 q 127 715 81 606 q 259 880 173 823 q 458 937 345 937 q 661 883 578 937 q 785 727 743 830 q 827 475 827 623 q 779 207 827 316 q 645 43 732 98 q 444 -11 559 -11 m 220 474 q 281 157 220 266 q 458 49 342 49 q 584 96 532 49 q 661 234 635 143 q 687 446 687 325 q 657 691 687 594 q 574 833 627 789 q 453 877 522 877 q 348 848 392 877 q 276 767 304 820 q 234 640 247 715 q 220 474 220 566 m 739 1208 l 739 1175 l 514 996 l 476 1036 l 637 1208 l 739 1208 m 515 1208 l 515 1175 l 290 996 l 252 1036 l 412 1208 l 515 1208 z "},"Ø":{"ha":907,"x_min":68,"x_max":839,"o":"m 68 -92 l 183 96 q 107 242 134 153 q 81 455 81 331 q 127 715 81 606 q 259 880 173 823 q 458 937 345 937 q 571 922 521 937 q 663 879 621 907 l 745 1017 l 839 1017 l 724 829 q 800 682 774 770 q 827 475 827 593 q 779 207 827 316 q 645 43 732 98 q 444 -11 559 -11 q 242 45 325 -11 l 161 -92 l 68 -92 m 257 210 l 610 793 q 539 857 579 836 q 453 877 500 877 q 348 848 392 877 q 276 767 304 820 q 234 640 247 715 q 220 474 220 566 q 257 210 220 315 m 650 714 l 297 132 q 458 49 356 49 q 584 96 532 49 q 661 234 635 143 q 687 446 687 325 q 650 714 687 608 z "},"Ǿ":{"ha":907,"x_min":68,"x_max":839,"o":"m 68 -92 l 183 96 q 107 242 134 153 q 81 455 81 331 q 127 715 81 606 q 259 880 173 823 q 458 937 345 937 q 571 922 521 937 q 663 879 621 907 l 745 1017 l 839 1017 l 724 829 q 800 682 774 770 q 827 475 827 593 q 779 207 827 316 q 645 43 732 98 q 444 -11 559 -11 q 242 45 325 -11 l 161 -92 l 68 -92 m 257 210 l 610 793 q 539 857 579 836 q 453 877 500 877 q 348 848 392 877 q 276 767 304 820 q 234 640 247 715 q 220 474 220 566 q 257 210 220 315 m 650 714 l 297 132 q 458 49 356 49 q 584 96 532 49 q 661 234 635 143 q 687 446 687 325 q 650 714 687 608 m 644 1208 l 644 1175 l 385 996 l 347 1034 l 511 1208 l 644 1208 z "},"Œ":{"ha":1290,"x_min":81,"x_max":1214,"o":"m 1207 926 l 1207 721 l 1141 721 q 1120 779 1131 754 q 1097 821 1109 804 q 1072 848 1086 838 q 1039 862 1058 859 q 994 866 1020 866 l 789 866 l 789 511 l 924 511 q 971 519 954 511 q 999 548 988 528 q 1021 612 1010 568 l 1084 612 l 1084 351 l 1021 351 q 1000 413 1011 392 q 972 442 988 433 q 924 451 956 451 l 789 451 l 789 60 l 990 60 q 1044 65 1023 60 q 1080 85 1065 71 q 1106 121 1095 99 q 1125 168 1118 144 q 1147 238 1133 192 l 1214 238 l 1201 0 l 673 0 l 673 92 l 666 92 q 558 14 614 38 q 431 -11 503 -11 q 289 16 353 -11 q 178 99 224 43 q 106 244 132 156 q 81 455 81 332 q 126 716 81 608 q 255 881 172 825 q 445 937 338 937 q 572 916 520 937 q 672 848 625 895 l 679 848 l 679 926 l 1207 926 m 220 474 q 280 157 220 265 q 452 49 339 49 q 615 151 559 49 q 671 446 671 254 q 654 645 671 563 q 608 778 637 726 q 537 853 578 829 q 447 877 496 877 q 345 849 387 877 q 274 768 302 821 q 233 641 246 715 q 220 474 220 566 z "},"Ŕ":{"ha":863,"x_min":82,"x_max":863,"o":"m 289 402 l 289 172 q 293 101 289 123 q 304 67 296 79 q 324 49 311 56 q 368 33 337 42 l 368 0 l 82 0 l 82 33 q 138 57 124 44 q 157 95 153 71 q 161 170 161 119 l 161 756 q 158 824 161 803 q 147 858 155 846 q 126 877 139 869 q 82 892 113 884 l 82 926 l 418 926 q 655 868 576 926 q 734 689 734 810 q 683 531 734 596 q 529 429 631 466 l 529 424 q 600 375 570 407 q 665 277 629 344 l 726 166 q 772 92 753 117 q 810 52 791 66 q 863 33 830 39 l 863 0 l 675 0 q 626 77 649 36 q 581 161 603 119 l 521 275 q 476 351 494 326 q 445 385 459 375 q 413 398 430 395 q 363 402 397 402 l 289 402 m 289 863 l 289 460 l 366 460 q 461 469 425 460 q 529 501 498 477 q 579 567 560 525 q 597 671 597 610 q 575 779 597 736 q 509 844 553 821 q 388 866 464 866 q 289 863 327 866 m 631 1208 l 631 1175 l 372 996 l 334 1034 l 497 1208 l 631 1208 z "},"Ř":{"ha":863,"x_min":82,"x_max":863,"o":"m 289 402 l 289 172 q 293 101 289 123 q 304 67 296 79 q 324 49 311 56 q 368 33 337 42 l 368 0 l 82 0 l 82 33 q 138 57 124 44 q 157 95 153 71 q 161 170 161 119 l 161 756 q 158 824 161 803 q 147 858 155 846 q 126 877 139 869 q 82 892 113 884 l 82 926 l 418 926 q 655 868 576 926 q 734 689 734 810 q 683 531 734 596 q 529 429 631 466 l 529 424 q 600 375 570 407 q 665 277 629 344 l 726 166 q 772 92 753 117 q 810 52 791 66 q 863 33 830 39 l 863 0 l 675 0 q 626 77 649 36 q 581 161 603 119 l 521 275 q 476 351 494 326 q 445 385 459 375 q 413 398 430 395 q 363 402 397 402 l 289 402 m 289 863 l 289 460 l 366 460 q 461 469 425 460 q 529 501 498 477 q 579 567 560 525 q 597 671 597 610 q 575 779 597 736 q 509 844 553 821 q 388 866 464 866 q 289 863 327 866 m 384 996 l 229 1168 l 268 1207 l 429 1082 l 437 1082 l 600 1207 l 637 1168 l 475 996 l 384 996 z "},"Ŗ":{"ha":863,"x_min":82,"x_max":863,"o":"m 289 402 l 289 172 q 293 101 289 123 q 304 67 296 79 q 324 49 311 56 q 368 33 337 42 l 368 0 l 82 0 l 82 33 q 138 57 124 44 q 157 95 153 71 q 161 170 161 119 l 161 756 q 158 824 161 803 q 147 858 155 846 q 126 877 139 869 q 82 892 113 884 l 82 926 l 418 926 q 655 868 576 926 q 734 689 734 810 q 683 531 734 596 q 529 429 631 466 l 529 424 q 600 375 570 407 q 665 277 629 344 l 726 166 q 772 92 753 117 q 810 52 791 66 q 863 33 830 39 l 863 0 l 675 0 q 626 77 649 36 q 581 161 603 119 l 521 275 q 476 351 494 326 q 445 385 459 375 q 413 398 430 395 q 363 402 397 402 l 289 402 m 289 863 l 289 460 l 366 460 q 461 469 425 460 q 529 501 498 477 q 579 567 560 525 q 597 671 597 610 q 575 779 597 736 q 509 844 553 821 q 388 866 464 866 q 289 863 327 866 m 536 -67 q 545 -132 545 -95 q 490 -243 545 -201 q 331 -292 435 -285 l 322 -241 q 390 -223 366 -235 q 427 -190 414 -211 q 439 -132 439 -168 q 433 -67 439 -97 l 536 -67 z "},"Ś":{"ha":689,"x_min":76,"x_max":622,"o":"m 144 211 q 180 117 157 151 q 240 65 203 82 q 334 49 277 49 q 456 90 414 49 q 498 211 498 132 q 481 296 498 262 q 423 361 463 331 q 301 433 383 392 q 176 510 222 472 q 107 591 130 547 q 84 688 84 635 q 120 820 84 764 q 224 906 155 876 q 382 937 293 937 q 483 931 433 937 q 606 907 532 926 l 606 724 l 538 724 q 499 817 523 783 q 444 863 475 850 q 361 876 412 876 q 282 860 317 876 q 227 811 247 844 q 206 732 206 778 q 223 651 206 684 q 277 589 241 618 q 386 526 314 561 q 520 445 473 482 q 595 360 568 408 q 622 248 622 312 q 600 128 622 177 q 537 48 577 79 q 443 3 498 17 q 321 -11 387 -11 q 76 25 215 -11 l 76 211 l 144 211 m 535 1208 l 535 1175 l 276 996 l 238 1034 l 401 1208 l 535 1208 z "},"Ŝ":{"ha":689,"x_min":76,"x_max":622,"o":"m 144 211 q 180 117 157 151 q 240 65 203 82 q 334 49 277 49 q 456 90 414 49 q 498 211 498 132 q 481 296 498 262 q 423 361 463 331 q 301 433 383 392 q 176 510 222 472 q 107 591 130 547 q 84 688 84 635 q 120 820 84 764 q 224 906 155 876 q 382 937 293 937 q 483 931 433 937 q 606 907 532 926 l 606 724 l 538 724 q 499 817 523 783 q 444 863 475 850 q 361 876 412 876 q 282 860 317 876 q 227 811 247 844 q 206 732 206 778 q 223 651 206 684 q 277 589 241 618 q 386 526 314 561 q 520 445 473 482 q 595 360 568 408 q 622 248 622 312 q 600 128 622 177 q 537 48 577 79 q 443 3 498 17 q 321 -11 387 -11 q 76 25 215 -11 l 76 211 l 144 211 m 394 1207 l 549 1035 l 510 996 l 349 1121 l 341 1121 l 178 996 l 140 1035 l 303 1207 l 394 1207 z "},"Š":{"ha":689,"x_min":76,"x_max":622,"o":"m 144 211 q 180 117 157 151 q 240 65 203 82 q 334 49 277 49 q 456 90 414 49 q 498 211 498 132 q 481 296 498 262 q 423 361 463 331 q 301 433 383 392 q 176 510 222 472 q 107 591 130 547 q 84 688 84 635 q 120 820 84 764 q 224 906 155 876 q 382 937 293 937 q 483 931 433 937 q 606 907 532 926 l 606 724 l 538 724 q 499 817 523 783 q 444 863 475 850 q 361 876 412 876 q 282 860 317 876 q 227 811 247 844 q 206 732 206 778 q 223 651 206 684 q 277 589 241 618 q 386 526 314 561 q 520 445 473 482 q 595 360 568 408 q 622 248 622 312 q 600 128 622 177 q 537 48 577 79 q 443 3 498 17 q 321 -11 387 -11 q 76 25 215 -11 l 76 211 l 144 211 m 295 996 l 140 1168 l 179 1207 l 340 1082 l 348 1082 l 511 1207 l 549 1168 l 386 996 l 295 996 z "},"Ş":{"ha":689,"x_min":76,"x_max":622,"o":"m 144 211 q 180 117 157 152 q 240 65 203 82 q 333 49 277 49 q 456 90 414 49 q 498 211 498 132 q 481 296 498 262 q 423 361 463 331 q 301 433 383 392 q 176 510 222 472 q 107 591 130 547 q 84 688 84 635 q 120 820 84 764 q 224 906 155 876 q 382 937 293 937 q 483 931 433 937 q 606 907 532 926 l 606 724 l 538 724 q 499 817 523 783 q 444 863 475 850 q 361 876 412 876 q 282 860 317 876 q 227 811 247 844 q 206 732 206 778 q 223 651 206 684 q 277 589 241 618 q 386 526 314 561 q 520 445 473 482 q 595 360 568 408 q 622 248 622 312 q 580 93 622 154 q 456 7 538 32 l 374 -54 q 386 -90 381 -69 q 391 -130 391 -111 q 335 -242 391 -200 q 177 -292 280 -285 l 168 -241 q 239 -221 212 -236 q 275 -186 265 -206 q 286 -138 286 -166 q 281 -102 286 -120 l 281 -75 l 378 -8 q 321 -11 341 -11 q 76 25 215 -11 l 76 211 l 144 211 z "},"Ș":{"ha":689,"x_min":76,"x_max":622,"o":"m 144 211 q 180 117 157 151 q 240 65 203 82 q 334 49 277 49 q 456 90 414 49 q 498 211 498 132 q 481 296 498 262 q 423 361 463 331 q 301 433 383 392 q 176 510 222 472 q 107 591 130 547 q 84 688 84 635 q 120 820 84 764 q 224 906 155 876 q 382 937 293 937 q 483 931 433 937 q 606 907 532 926 l 606 724 l 538 724 q 499 817 523 783 q 444 863 475 850 q 361 876 412 876 q 282 860 317 876 q 227 811 247 844 q 206 732 206 778 q 223 651 206 684 q 277 589 241 618 q 386 526 314 561 q 520 445 473 482 q 595 360 568 408 q 622 248 622 312 q 600 128 622 177 q 537 48 577 79 q 443 3 498 17 q 321 -11 387 -11 q 76 25 215 -11 l 76 211 l 144 211 m 409 -67 q 418 -132 418 -95 q 363 -243 418 -201 q 204 -292 308 -285 l 195 -241 q 263 -223 239 -235 q 300 -190 288 -211 q 312 -132 312 -168 q 306 -67 312 -97 l 409 -67 z "},"Ť":{"ha":823,"x_min":45,"x_max":779,"o":"m 45 926 l 779 926 l 779 690 l 712 690 q 683 782 697 748 q 652 833 668 816 q 617 859 635 851 q 561 866 598 866 l 475 866 l 475 172 q 479 108 475 132 q 493 70 484 84 q 517 48 502 56 q 566 33 533 41 l 566 0 l 256 0 l 256 33 q 292 43 277 38 q 318 57 308 49 q 334 77 328 64 q 344 110 340 89 q 348 172 348 131 l 348 866 l 262 866 q 210 860 231 866 q 172 834 189 854 q 139 780 154 815 q 112 690 125 744 l 45 690 l 45 926 m 362 996 l 208 1168 l 246 1207 l 408 1082 l 415 1082 l 578 1207 l 616 1168 l 453 996 l 362 996 z "},"Ţ":{"ha":823,"x_min":45,"x_max":779,"o":"m 45 926 l 779 926 l 779 690 l 712 690 q 683 782 697 748 q 652 833 668 816 q 617 859 635 851 q 561 866 598 866 l 475 866 l 475 172 q 479 108 475 132 q 493 70 484 84 q 517 48 502 56 q 566 33 533 41 l 566 0 l 256 0 l 256 33 q 292 43 277 38 q 318 57 308 49 q 334 77 328 64 q 344 110 340 89 q 348 172 348 131 l 348 866 l 262 866 q 210 860 231 866 q 172 834 189 854 q 139 780 154 815 q 112 690 125 744 l 45 690 l 45 926 m 467 -67 q 476 -132 476 -95 q 421 -243 476 -201 q 262 -292 366 -285 l 254 -241 q 321 -223 297 -235 q 358 -190 346 -211 q 370 -132 370 -168 q 364 -67 370 -97 l 467 -67 z "},"Ț":{"ha":823,"x_min":45,"x_max":779,"o":"m 45 926 l 779 926 l 779 690 l 712 690 q 683 782 697 748 q 652 833 668 816 q 617 859 635 851 q 561 866 598 866 l 475 866 l 475 172 q 479 108 475 132 q 493 70 484 84 q 517 48 502 56 q 566 33 533 41 l 566 0 l 256 0 l 256 33 q 292 43 277 38 q 318 57 308 49 q 334 77 328 64 q 344 110 340 89 q 348 172 348 131 l 348 866 l 262 866 q 210 860 231 866 q 172 834 189 854 q 139 780 154 815 q 112 690 125 744 l 45 690 l 45 926 m 467 -67 q 476 -132 476 -95 q 421 -243 476 -201 q 262 -292 366 -285 l 254 -241 q 321 -223 297 -235 q 358 -190 346 -211 q 370 -132 370 -168 q 364 -67 370 -97 l 467 -67 z "},"Ŧ":{"ha":823,"x_min":45,"x_max":779,"o":"m 163 425 l 163 488 l 348 488 l 348 866 l 262 866 q 209 860 230 866 q 171 834 189 854 q 139 780 153 815 q 111 690 124 744 l 45 690 l 45 926 l 779 926 l 779 690 l 712 690 q 683 782 697 748 q 652 833 668 816 q 617 859 635 851 q 561 866 598 866 l 475 866 l 475 488 l 659 488 l 659 425 l 475 425 l 475 172 q 479 108 475 132 q 493 70 484 84 q 517 48 502 56 q 566 33 533 41 l 566 0 l 256 0 l 256 33 q 292 43 277 38 q 318 57 308 49 q 334 77 328 64 q 344 110 340 89 q 348 172 348 131 l 348 425 l 163 425 z "},"Ù":{"ha":900,"x_min":61,"x_max":842,"o":"m 763 320 q 749 193 763 246 q 711 102 736 142 q 652 42 687 67 q 566 3 616 18 q 448 -11 516 -11 q 308 7 366 -11 q 211 67 249 26 q 155 166 172 109 q 138 310 138 222 l 138 756 q 135 828 138 809 q 125 857 132 846 q 106 876 119 868 q 61 892 94 884 l 61 926 l 346 926 l 346 892 q 293 871 308 883 q 273 836 278 859 q 267 756 267 812 l 267 276 q 281 165 267 210 q 320 96 295 121 q 380 60 345 71 q 466 49 414 49 q 549 65 513 49 q 609 116 585 82 q 642 199 633 150 q 651 332 651 249 l 651 756 q 645 837 651 815 q 626 870 640 859 q 572 892 613 882 l 572 926 l 842 926 l 842 892 q 788 870 803 882 q 768 835 774 858 q 763 756 763 812 l 763 320 m 390 1208 l 553 1034 l 515 996 l 256 1175 l 256 1208 l 390 1208 z "},"Ú":{"ha":900,"x_min":61,"x_max":842,"o":"m 763 320 q 749 193 763 246 q 711 102 736 142 q 652 42 687 67 q 566 3 616 18 q 448 -11 516 -11 q 308 7 366 -11 q 211 67 249 26 q 155 166 172 109 q 138 310 138 222 l 138 756 q 135 828 138 809 q 125 857 132 846 q 106 876 119 868 q 61 892 94 884 l 61 926 l 346 926 l 346 892 q 293 871 308 883 q 273 836 278 859 q 267 756 267 812 l 267 276 q 281 165 267 210 q 320 96 295 121 q 380 60 345 71 q 466 49 414 49 q 549 65 513 49 q 609 116 585 82 q 642 199 633 150 q 651 332 651 249 l 651 756 q 645 837 651 815 q 626 870 640 859 q 572 892 613 882 l 572 926 l 842 926 l 842 892 q 788 870 803 882 q 768 835 774 858 q 763 756 763 812 l 763 320 m 674 1208 l 674 1175 l 415 996 l 377 1034 l 541 1208 l 674 1208 z "},"Û":{"ha":900,"x_min":61,"x_max":842,"o":"m 763 320 q 749 193 763 246 q 711 102 736 142 q 652 42 687 67 q 566 3 616 18 q 448 -11 516 -11 q 308 7 366 -11 q 211 67 249 26 q 155 166 172 109 q 138 310 138 222 l 138 756 q 135 828 138 809 q 125 857 132 846 q 106 876 119 868 q 61 892 94 884 l 61 926 l 346 926 l 346 892 q 293 871 308 883 q 273 836 278 859 q 267 756 267 812 l 267 276 q 281 165 267 210 q 320 96 295 121 q 380 60 345 71 q 466 49 414 49 q 549 65 513 49 q 609 116 585 82 q 642 199 633 150 q 651 332 651 249 l 651 756 q 645 837 651 815 q 626 870 640 859 q 572 892 613 882 l 572 926 l 842 926 l 842 892 q 788 870 803 882 q 768 835 774 858 q 763 756 763 812 l 763 320 m 513 1207 l 667 1035 l 629 996 l 467 1121 l 460 1121 l 297 996 l 259 1035 l 422 1207 l 513 1207 z "},"Ũ":{"ha":900,"x_min":61,"x_max":842,"o":"m 763 320 q 749 193 763 246 q 711 102 736 142 q 652 42 687 67 q 566 3 616 18 q 448 -11 516 -11 q 308 7 366 -11 q 211 67 249 26 q 155 166 172 109 q 138 310 138 222 l 138 756 q 135 828 138 809 q 125 857 132 846 q 106 876 119 868 q 61 892 94 884 l 61 926 l 346 926 l 346 892 q 293 871 308 883 q 273 836 278 859 q 267 756 267 812 l 267 276 q 281 165 267 210 q 320 96 295 121 q 380 60 345 71 q 466 49 414 49 q 549 65 513 49 q 609 116 585 82 q 642 199 633 150 q 651 332 651 249 l 651 756 q 645 837 651 815 q 626 870 640 859 q 572 892 613 882 l 572 926 l 842 926 l 842 892 q 788 870 803 882 q 768 835 774 858 q 763 756 763 812 l 763 320 m 634 1165 l 687 1142 q 638 1056 661 1086 q 593 1015 614 1026 q 545 1004 572 1004 q 513 1007 526 1004 q 486 1018 499 1011 q 445 1044 473 1025 q 416 1063 427 1057 q 394 1075 406 1070 q 370 1079 382 1079 q 340 1072 352 1079 q 316 1048 328 1065 q 291 1004 304 1031 l 238 1027 q 291 1117 271 1092 q 333 1154 311 1143 q 384 1165 354 1165 q 413 1161 400 1165 q 438 1152 427 1158 q 476 1127 449 1145 q 507 1106 496 1114 q 531 1094 519 1099 q 559 1090 543 1090 q 597 1106 581 1090 q 634 1165 614 1123 z "},"Ü":{"ha":900,"x_min":61,"x_max":842,"o":"m 763 320 q 749 193 763 246 q 711 102 736 142 q 652 42 687 67 q 566 3 616 18 q 448 -11 516 -11 q 308 7 366 -11 q 211 67 249 26 q 155 166 172 109 q 138 310 138 222 l 138 756 q 135 828 138 809 q 125 857 132 846 q 106 876 119 868 q 61 892 94 884 l 61 926 l 346 926 l 346 892 q 293 871 308 883 q 273 836 278 859 q 267 756 267 812 l 267 276 q 281 165 267 210 q 320 96 295 121 q 380 60 345 71 q 466 49 414 49 q 549 65 513 49 q 609 116 585 82 q 642 199 633 150 q 651 332 651 249 l 651 756 q 645 837 651 815 q 626 870 640 859 q 572 892 613 882 l 572 926 l 842 926 l 842 892 q 788 870 803 882 q 768 835 774 858 q 763 756 763 812 l 763 320 m 645 1146 l 645 1027 l 532 1027 l 532 1146 l 645 1146 m 395 1146 l 395 1027 l 281 1027 l 281 1146 l 395 1146 z "},"Ū":{"ha":900,"x_min":61,"x_max":842,"o":"m 763 320 q 749 193 763 246 q 711 102 736 142 q 652 42 687 67 q 566 3 616 18 q 448 -11 516 -11 q 308 7 366 -11 q 211 67 249 26 q 155 166 172 109 q 138 310 138 222 l 138 756 q 135 828 138 809 q 125 857 132 846 q 106 876 119 868 q 61 892 94 884 l 61 926 l 346 926 l 346 892 q 293 871 308 883 q 273 836 278 859 q 267 756 267 812 l 267 276 q 281 165 267 210 q 320 96 295 121 q 380 60 345 71 q 466 49 414 49 q 549 65 513 49 q 609 116 585 82 q 642 199 633 150 q 651 332 651 249 l 651 756 q 645 837 651 815 q 626 870 640 859 q 572 892 613 882 l 572 926 l 842 926 l 842 892 q 788 870 803 882 q 768 835 774 858 q 763 756 763 812 l 763 320 m 652 1043 l 274 1043 l 274 1128 l 652 1128 l 652 1043 z "},"Ŭ":{"ha":900,"x_min":61,"x_max":842,"o":"m 763 320 q 749 193 763 246 q 711 102 736 142 q 652 42 687 67 q 566 3 616 18 q 448 -11 516 -11 q 308 7 366 -11 q 211 67 249 26 q 155 166 172 109 q 138 310 138 222 l 138 756 q 135 828 138 809 q 125 857 132 846 q 106 876 119 868 q 61 892 94 884 l 61 926 l 346 926 l 346 892 q 293 871 308 883 q 273 836 278 859 q 267 756 267 812 l 267 276 q 281 165 267 210 q 320 96 295 121 q 380 60 345 71 q 466 49 414 49 q 549 65 513 49 q 609 116 585 82 q 642 199 633 150 q 651 332 651 249 l 651 756 q 645 837 651 815 q 626 870 640 859 q 572 892 613 882 l 572 926 l 842 926 l 842 892 q 788 870 803 882 q 768 835 774 858 q 763 756 763 812 l 763 320 m 675 1194 q 604 1056 657 1101 q 458 1010 550 1010 q 321 1056 372 1010 q 252 1194 270 1101 l 304 1211 q 341 1142 321 1166 q 389 1108 362 1118 q 460 1098 415 1098 q 533 1108 505 1098 q 584 1142 562 1118 q 623 1211 606 1166 l 675 1194 z "},"Ů":{"ha":900,"x_min":61,"x_max":842,"o":"m 763 320 q 749 193 763 246 q 711 102 736 142 q 652 42 687 67 q 566 3 616 18 q 448 -11 516 -11 q 308 7 366 -11 q 211 67 249 26 q 155 166 172 109 q 138 310 138 222 l 138 756 q 135 828 138 809 q 125 857 132 846 q 106 876 119 868 q 61 892 94 884 l 61 926 l 346 926 l 346 892 q 293 871 308 883 q 273 836 278 859 q 267 756 267 812 l 267 276 q 281 165 267 210 q 320 96 295 121 q 380 60 345 71 q 466 49 414 49 q 549 65 513 49 q 609 116 585 82 q 642 199 633 150 q 651 332 651 249 l 651 756 q 645 837 651 815 q 626 870 640 859 q 572 892 613 882 l 572 926 l 842 926 l 842 892 q 788 870 803 882 q 768 835 774 858 q 763 756 763 812 l 763 320 m 460 966 q 348 1000 387 966 q 310 1099 310 1034 q 330 1176 310 1144 q 385 1222 350 1207 q 465 1238 420 1238 q 578 1204 540 1238 q 617 1105 617 1170 q 576 1002 617 1038 q 460 966 535 966 m 381 1104 q 402 1033 381 1059 q 465 1008 423 1008 q 525 1031 505 1008 q 546 1098 546 1055 q 524 1171 546 1145 q 464 1196 502 1196 q 402 1172 423 1196 q 381 1104 381 1148 z "},"Ű":{"ha":900,"x_min":61,"x_max":842,"o":"m 763 320 q 749 193 763 246 q 711 102 736 142 q 652 42 687 67 q 566 3 616 18 q 448 -11 516 -11 q 308 7 366 -11 q 211 67 249 26 q 155 166 172 109 q 138 310 138 222 l 138 756 q 135 828 138 809 q 125 857 132 846 q 106 876 119 868 q 61 892 94 884 l 61 926 l 346 926 l 346 892 q 293 871 308 883 q 273 836 278 859 q 267 756 267 812 l 267 276 q 281 165 267 210 q 320 96 295 121 q 380 60 345 71 q 466 49 414 49 q 549 65 513 49 q 609 116 585 82 q 642 199 633 150 q 651 332 651 249 l 651 756 q 645 837 651 815 q 626 870 640 859 q 572 892 613 882 l 572 926 l 842 926 l 842 892 q 788 870 803 882 q 768 835 774 858 q 763 756 763 812 l 763 320 m 749 1208 l 749 1175 l 524 996 l 486 1036 l 647 1208 l 749 1208 m 525 1208 l 525 1175 l 300 996 l 262 1036 l 422 1208 l 525 1208 z "},"Ų":{"ha":900,"x_min":61,"x_max":842,"o":"m 763 320 q 738 156 763 221 q 660 48 712 92 q 541 -152 541 -53 q 558 -211 541 -192 q 610 -231 575 -231 q 649 -224 632 -231 q 680 -208 665 -218 l 701 -254 q 647 -281 676 -271 q 581 -292 618 -292 q 530 -285 554 -292 q 488 -264 506 -279 q 458 -228 469 -250 q 447 -173 447 -205 q 474 -83 447 -127 q 555 1 500 -38 q 448 -11 507 -11 q 308 7 366 -11 q 211 67 249 26 q 155 166 172 109 q 138 310 138 222 l 138 756 q 135 828 138 809 q 125 857 132 846 q 106 876 119 868 q 61 892 94 884 l 61 926 l 346 926 l 346 892 q 293 871 308 883 q 273 836 278 859 q 267 756 267 812 l 267 276 q 281 165 267 210 q 320 96 295 121 q 380 60 345 71 q 466 49 414 49 q 549 65 513 49 q 609 116 585 82 q 642 199 633 150 q 651 332 651 249 l 651 756 q 645 837 651 815 q 626 870 640 859 q 572 892 613 882 l 572 926 l 842 926 l 842 892 q 788 870 803 882 q 768 835 774 858 q 763 756 763 812 l 763 320 z "},"Ẁ":{"ha":1280,"x_min":15,"x_max":1280,"o":"m 638 753 l 421 -5 l 311 -5 l 114 732 q 92 807 102 778 q 71 853 81 836 q 49 878 61 869 q 15 892 37 886 l 15 926 l 305 926 l 305 892 q 247 868 263 884 q 230 823 230 852 q 236 766 230 799 q 253 692 242 734 l 389 157 l 608 926 l 722 926 l 899 156 l 1059 673 q 1088 808 1088 768 q 1070 867 1088 849 q 1013 892 1053 886 l 1013 926 l 1280 926 l 1280 892 q 1248 877 1260 886 q 1224 854 1236 869 q 1200 809 1213 840 q 1169 727 1187 779 l 922 -5 l 825 -5 l 638 753 m 576 1208 l 740 1034 l 702 996 l 442 1175 l 442 1208 l 576 1208 z "},"Ẃ":{"ha":1280,"x_min":15,"x_max":1280,"o":"m 638 753 l 421 -5 l 311 -5 l 114 732 q 92 807 102 778 q 71 853 81 836 q 49 878 61 869 q 15 892 37 886 l 15 926 l 305 926 l 305 892 q 247 868 263 884 q 230 823 230 852 q 236 766 230 799 q 253 692 242 734 l 389 157 l 608 926 l 722 926 l 899 156 l 1059 673 q 1088 808 1088 768 q 1070 867 1088 849 q 1013 892 1053 886 l 1013 926 l 1280 926 l 1280 892 q 1248 877 1260 886 q 1224 854 1236 869 q 1200 809 1213 840 q 1169 727 1187 779 l 922 -5 l 825 -5 l 638 753 m 830 1208 l 830 1175 l 571 996 l 533 1034 l 696 1208 l 830 1208 z "},"Ŵ":{"ha":1280,"x_min":15,"x_max":1280,"o":"m 638 753 l 421 -5 l 311 -5 l 114 732 q 92 807 102 778 q 71 853 81 836 q 49 878 61 869 q 15 892 37 886 l 15 926 l 305 926 l 305 892 q 247 868 263 884 q 230 823 230 852 q 236 766 230 799 q 253 692 242 734 l 389 157 l 608 926 l 722 926 l 899 156 l 1059 673 q 1088 808 1088 768 q 1070 867 1088 849 q 1013 892 1053 886 l 1013 926 l 1280 926 l 1280 892 q 1248 877 1260 886 q 1224 854 1236 869 q 1200 809 1213 840 q 1169 727 1187 779 l 922 -5 l 825 -5 l 638 753 m 703 1207 l 858 1035 l 819 996 l 658 1121 l 650 1121 l 488 996 l 450 1035 l 612 1207 l 703 1207 z "},"Ẅ":{"ha":1280,"x_min":15,"x_max":1280,"o":"m 638 753 l 421 -5 l 311 -5 l 114 732 q 92 807 102 778 q 71 853 81 836 q 49 878 61 869 q 15 892 37 886 l 15 926 l 305 926 l 305 892 q 247 868 263 884 q 230 823 230 852 q 236 766 230 799 q 253 692 242 734 l 389 157 l 608 926 l 722 926 l 899 156 l 1059 673 q 1088 808 1088 768 q 1070 867 1088 849 q 1013 892 1053 886 l 1013 926 l 1280 926 l 1280 892 q 1248 877 1260 886 q 1224 854 1236 869 q 1200 809 1213 840 q 1169 727 1187 779 l 922 -5 l 825 -5 l 638 753 m 821 1146 l 821 1027 l 708 1027 l 708 1146 l 821 1146 m 571 1146 l 571 1027 l 458 1027 l 458 1146 l 571 1146 z "},"Ỳ":{"ha":792,"x_min":12,"x_max":798,"o":"m 327 389 l 140 736 q 88 827 106 800 q 53 869 71 854 q 12 892 35 885 l 12 926 l 301 926 l 301 892 q 237 838 237 885 q 247 793 237 818 q 279 724 256 769 l 415 466 l 549 702 q 587 781 576 750 q 598 838 598 812 q 584 876 598 862 q 541 892 569 890 l 541 926 l 798 926 l 798 892 q 749 864 770 882 q 706 816 728 846 q 642 713 684 785 l 454 391 l 454 172 q 458 109 454 133 q 471 71 462 85 q 496 49 481 57 q 545 33 512 41 l 545 0 l 235 0 l 235 33 q 283 48 268 40 q 309 70 299 56 q 322 109 318 85 q 327 172 327 132 l 327 389 m 340 1208 l 503 1034 l 465 996 l 205 1175 l 205 1208 l 340 1208 z "},"Ý":{"ha":792,"x_min":12,"x_max":798,"o":"m 327 389 l 140 736 q 88 827 106 800 q 53 869 71 854 q 12 892 35 885 l 12 926 l 301 926 l 301 892 q 237 838 237 885 q 247 793 237 818 q 279 724 256 769 l 415 466 l 549 702 q 587 781 576 750 q 598 838 598 812 q 584 876 598 862 q 541 892 569 890 l 541 926 l 798 926 l 798 892 q 749 864 770 882 q 706 816 728 846 q 642 713 684 785 l 454 391 l 454 172 q 458 109 454 133 q 471 71 462 85 q 496 49 481 57 q 545 33 512 41 l 545 0 l 235 0 l 235 33 q 283 48 268 40 q 309 70 299 56 q 322 109 318 85 q 327 172 327 132 l 327 389 m 634 1208 l 634 1175 l 375 996 l 337 1034 l 500 1208 l 634 1208 z "},"Ŷ":{"ha":792,"x_min":12,"x_max":798,"o":"m 327 389 l 140 736 q 88 827 106 800 q 53 869 71 854 q 12 892 35 885 l 12 926 l 301 926 l 301 892 q 237 838 237 885 q 247 793 237 818 q 279 724 256 769 l 415 466 l 549 702 q 587 781 576 750 q 598 838 598 812 q 584 876 598 862 q 541 892 569 890 l 541 926 l 798 926 l 798 892 q 749 864 770 882 q 706 816 728 846 q 642 713 684 785 l 454 391 l 454 172 q 458 109 454 133 q 471 71 462 85 q 496 49 481 57 q 545 33 512 41 l 545 0 l 235 0 l 235 33 q 283 48 268 40 q 309 70 299 56 q 322 109 318 85 q 327 172 327 132 l 327 389 m 466 1207 l 621 1035 l 582 996 l 420 1121 l 413 1121 l 250 996 l 212 1035 l 375 1207 l 466 1207 z "},"Ÿ":{"ha":792,"x_min":12,"x_max":798,"o":"m 327 389 l 140 736 q 88 827 106 800 q 53 869 71 854 q 12 892 35 885 l 12 926 l 301 926 l 301 892 q 237 838 237 885 q 247 793 237 818 q 279 724 256 769 l 415 466 l 549 702 q 587 781 576 750 q 598 838 598 812 q 584 876 598 862 q 541 892 569 890 l 541 926 l 798 926 l 798 892 q 749 864 770 882 q 706 816 728 846 q 642 713 684 785 l 454 391 l 454 172 q 458 109 454 133 q 471 71 462 85 q 496 49 481 57 q 545 33 512 41 l 545 0 l 235 0 l 235 33 q 283 48 268 40 q 309 70 299 56 q 322 109 318 85 q 327 172 327 132 l 327 389 m 598 1146 l 598 1027 l 485 1027 l 485 1146 l 598 1146 m 348 1146 l 348 1027 l 235 1027 l 235 1146 l 348 1146 z "},"Ź":{"ha":747,"x_min":64,"x_max":690,"o":"m 222 62 l 467 62 q 534 71 512 62 q 570 97 556 79 q 596 148 585 115 q 624 249 608 180 l 690 249 l 690 0 l 64 0 l 64 33 l 528 863 l 282 863 q 240 859 256 863 q 213 845 225 854 q 189 819 201 836 q 165 770 177 801 q 140 693 153 739 l 74 693 l 74 926 l 686 926 l 686 893 l 222 62 m 564 1208 l 564 1175 l 304 996 l 267 1034 l 430 1208 l 564 1208 z "},"Ž":{"ha":747,"x_min":64,"x_max":690,"o":"m 222 62 l 467 62 q 534 71 512 62 q 570 97 556 79 q 596 148 585 115 q 624 249 608 180 l 690 249 l 690 0 l 64 0 l 64 33 l 528 863 l 282 863 q 240 859 256 863 q 213 845 225 854 q 189 819 201 836 q 165 770 177 801 q 140 693 153 739 l 74 693 l 74 926 l 686 926 l 686 893 l 222 62 m 323 996 l 169 1168 l 208 1207 l 369 1082 l 376 1082 l 539 1207 l 577 1168 l 414 996 l 323 996 z "},"Ż":{"ha":747,"x_min":64,"x_max":690,"o":"m 222 62 l 467 62 q 534 71 512 62 q 570 97 556 79 q 596 148 585 115 q 624 249 608 180 l 690 249 l 690 0 l 64 0 l 64 33 l 528 863 l 282 863 q 240 859 256 863 q 213 845 225 854 q 189 819 201 836 q 165 770 177 801 q 140 693 153 739 l 74 693 l 74 926 l 686 926 l 686 893 l 222 62 m 435 1152 l 435 1021 l 311 1021 l 311 1152 l 435 1152 z "},"Ŋ":{"ha":945,"x_min":79,"x_max":870,"o":"m 791 29 q 769 -147 791 -88 q 702 -237 747 -206 q 593 -268 658 -268 q 489 -254 535 -268 l 489 -128 l 554 -128 q 564 -157 557 -146 q 583 -172 571 -168 q 614 -176 594 -176 q 684 -135 659 -176 q 709 -20 709 -93 l 709 0 l 704 0 l 328 629 q 278 715 294 688 q 250 769 263 743 l 239 769 q 245 580 243 717 q 248 308 248 444 l 248 170 q 251 103 248 124 q 261 70 254 82 q 282 50 268 58 q 327 33 296 41 l 327 0 l 79 0 l 79 33 q 136 57 121 44 q 154 95 150 71 q 159 170 159 119 l 159 756 q 155 824 159 803 q 144 858 152 846 q 123 877 136 869 q 79 892 111 884 l 79 926 l 292 926 l 627 367 q 668 296 651 326 q 702 227 684 265 l 711 227 q 705 392 707 269 q 702 614 702 515 l 702 756 q 699 824 702 803 q 687 858 695 846 q 667 877 680 869 q 623 892 654 884 l 623 926 l 870 926 l 870 892 q 827 878 840 884 q 807 860 814 871 q 795 827 799 849 q 791 756 791 806 l 791 29 z "},"Ð":{"ha":923,"x_min":34,"x_max":842,"o":"m 34 516 l 165 516 l 165 756 q 162 825 165 804 q 151 858 159 846 q 130 877 143 869 q 85 892 117 884 l 85 926 l 382 926 q 590 898 509 926 q 729 815 672 870 q 814 679 786 761 q 842 483 842 597 q 816 281 842 368 q 740 135 790 194 q 633 50 696 83 q 513 12 581 23 q 331 0 444 0 l 85 0 l 85 33 q 130 49 117 41 q 151 68 144 56 q 162 101 159 79 q 165 170 165 123 l 165 454 l 34 454 l 34 516 m 292 63 q 372 60 319 60 q 556 99 488 60 q 664 228 625 138 q 704 471 704 317 q 664 697 704 608 q 552 826 625 785 q 380 867 480 867 q 292 864 334 867 l 292 516 l 509 516 l 509 454 l 292 454 l 292 63 z "},"Þ":{"ha":797,"x_min":82,"x_max":736,"o":"m 368 926 l 368 892 q 325 878 337 884 q 304 860 312 871 q 292 827 296 849 q 288 756 288 806 l 288 751 l 422 751 q 658 691 581 751 q 736 506 736 630 q 711 379 736 435 q 642 287 687 323 q 536 235 597 251 q 408 220 475 220 q 288 222 344 220 l 288 172 q 293 108 288 132 q 306 70 297 84 q 331 48 315 56 q 380 33 347 41 l 380 0 l 82 0 l 82 33 q 138 57 124 44 q 157 95 153 71 q 161 170 161 119 l 161 756 q 158 824 161 803 q 147 858 155 846 q 126 877 139 869 q 82 892 113 884 l 82 926 l 368 926 m 288 279 l 370 279 q 497 299 447 279 q 573 365 547 319 q 600 488 600 412 q 584 586 600 547 q 541 648 568 625 q 475 682 513 672 q 393 692 437 692 q 288 689 335 692 l 288 279 z "},"a":{"ha":678,"x_min":54,"x_max":640,"o":"m 458 97 l 448 100 q 337 14 389 39 q 227 -11 285 -11 q 136 9 175 -11 q 75 65 96 29 q 54 149 54 102 q 152 302 54 248 q 446 365 250 356 l 446 409 q 433 520 446 479 q 390 580 419 561 q 312 599 361 599 q 227 571 259 599 q 178 488 195 543 l 90 488 l 90 576 q 198 626 155 610 q 285 651 241 642 q 373 660 328 660 q 481 638 440 660 q 542 573 522 617 q 562 440 562 529 l 562 204 q 563 133 562 154 q 567 95 564 113 q 577 67 570 77 q 597 49 584 56 q 640 33 610 41 l 640 0 l 454 0 l 458 97 m 446 309 q 240 273 309 308 q 172 166 172 237 q 187 105 172 127 q 227 74 203 83 q 283 66 250 66 q 367 88 329 66 q 425 145 404 111 q 446 214 446 180 l 446 309 z "},"b":{"ha":760,"x_min":33,"x_max":690,"o":"m 237 542 l 239 541 q 318 613 287 591 q 384 647 350 635 q 457 659 417 659 q 582 622 530 659 q 662 511 633 585 q 690 330 690 437 q 656 143 690 220 q 557 28 623 67 q 402 -11 492 -11 q 308 -2 352 -11 q 214 31 263 7 l 167 -11 l 120 0 l 120 737 q 119 828 120 802 q 114 872 118 854 q 101 900 109 890 q 80 916 94 910 q 33 928 67 922 l 33 964 l 197 970 l 237 970 l 237 542 m 237 244 q 241 161 237 192 q 257 110 246 130 q 290 73 269 90 q 338 49 311 56 q 397 43 364 43 q 520 109 478 43 q 562 309 562 176 q 524 510 562 443 q 408 578 486 578 q 342 566 370 578 q 289 529 315 554 q 249 479 262 504 q 237 424 237 455 l 237 244 z "},"c":{"ha":612,"x_min":71,"x_max":576,"o":"m 571 633 l 571 491 l 485 491 q 456 561 473 535 q 417 596 439 586 q 361 606 395 606 q 277 576 314 606 q 219 483 241 545 q 198 330 198 420 q 206 225 198 273 q 234 143 214 177 q 286 90 254 109 q 367 71 319 71 q 454 90 414 71 q 538 154 494 108 l 576 109 q 515 51 542 71 q 459 16 489 30 q 399 -4 429 2 q 335 -11 370 -11 q 139 74 207 -11 q 71 320 71 159 q 109 498 71 420 q 216 618 147 576 q 374 660 284 660 q 476 653 429 660 q 571 633 524 647 z "},"d":{"ha":770,"x_min":71,"x_max":724,"o":"m 524 737 q 523 828 524 802 q 517 872 522 854 q 505 900 513 890 q 484 916 497 910 q 436 928 471 922 l 436 964 l 600 970 l 640 970 l 640 185 q 642 110 640 132 q 651 73 644 87 q 672 51 658 60 q 724 35 687 43 l 724 0 l 564 -7 l 523 -7 l 531 104 l 521 107 q 447 39 478 62 q 379 3 415 16 q 303 -11 344 -11 q 132 74 192 -11 q 71 317 71 158 q 111 506 71 429 q 217 622 150 584 q 367 660 283 660 q 448 653 412 660 q 524 629 485 646 l 524 737 m 524 402 q 519 487 524 455 q 503 541 514 519 q 473 577 492 562 q 431 599 454 592 q 376 606 408 606 q 244 536 290 606 q 199 336 199 467 q 236 138 199 206 q 349 71 273 71 q 399 76 379 71 q 437 92 418 81 q 476 123 456 103 q 505 159 496 142 q 519 196 514 175 q 524 250 524 217 l 524 402 z "},"e":{"ha":677,"x_min":71,"x_max":621,"o":"m 608 115 q 528 44 564 70 q 448 4 492 18 q 353 -11 405 -11 q 142 73 213 -11 q 71 320 71 157 q 107 498 71 421 q 210 618 143 576 q 365 660 277 660 q 481 638 433 660 q 558 579 530 616 q 603 484 587 541 q 621 334 619 427 l 194 334 l 194 322 q 212 188 194 242 q 271 102 230 133 q 378 71 312 71 q 478 92 433 71 q 566 159 522 113 l 608 115 m 494 391 q 475 510 490 464 q 433 582 461 557 q 358 606 404 606 q 247 550 288 606 q 197 391 205 494 l 494 391 z "},"f":{"ha":420,"x_min":54,"x_max":504,"o":"m 414 580 l 252 580 l 252 170 q 257 101 252 124 q 270 66 261 78 q 292 47 278 54 q 336 33 306 40 l 336 0 l 59 0 l 59 33 q 102 49 89 41 q 122 68 115 56 q 132 101 129 79 q 136 170 136 123 l 136 580 l 54 580 l 54 614 q 88 621 79 618 q 104 628 96 623 q 118 642 112 633 q 128 668 123 650 q 135 716 132 685 q 162 836 141 790 q 222 915 182 882 q 307 961 262 947 q 413 974 352 974 q 504 966 467 974 l 504 844 l 437 844 q 407 900 424 884 q 358 917 389 917 q 320 911 336 917 q 292 892 305 905 q 270 857 279 879 q 257 803 261 836 q 252 720 252 771 l 252 648 l 414 648 l 414 580 z "},"g":{"ha":686,"x_min":43,"x_max":674,"o":"m 674 580 l 549 585 l 543 577 q 576 520 564 556 q 588 441 588 484 q 520 271 588 331 q 326 211 452 211 q 229 225 270 211 q 178 148 178 186 q 188 110 178 123 q 220 92 197 97 q 289 86 243 86 l 452 86 q 569 64 524 86 q 634 4 614 41 q 653 -84 653 -34 q 616 -198 653 -148 q 511 -275 580 -248 q 349 -303 441 -303 q 224 -295 281 -303 q 127 -268 168 -287 q 65 -217 87 -248 q 43 -138 43 -185 q 71 -60 43 -95 q 152 1 100 -25 q 102 39 120 14 q 83 98 83 64 q 105 169 83 137 q 182 243 127 201 q 107 320 133 271 q 82 431 82 369 q 101 533 82 490 q 155 604 121 576 q 236 646 189 632 q 337 660 283 660 q 434 648 386 660 l 674 648 l 674 580 m 203 442 q 238 311 203 357 q 338 265 273 265 q 397 278 372 265 q 436 315 421 292 q 459 368 452 338 q 466 431 466 398 q 449 531 466 491 q 403 590 432 571 q 336 608 374 608 q 237 566 271 608 q 203 442 203 523 m 220 -11 q 169 -65 186 -37 q 151 -131 151 -94 q 200 -221 151 -192 q 348 -250 248 -250 q 453 -233 409 -250 q 519 -186 496 -217 q 543 -115 543 -156 q 538 -78 543 -96 q 520 -46 533 -60 q 482 -23 507 -32 q 418 -15 458 -15 l 317 -15 q 220 -11 262 -15 z "},"h":{"ha":766,"x_min":43,"x_max":718,"o":"m 248 542 l 250 541 q 334 616 303 595 q 395 648 365 637 q 460 659 425 659 q 526 650 497 659 q 577 624 555 642 q 613 579 600 606 q 634 517 627 553 q 641 425 641 481 l 641 170 q 646 89 641 111 q 664 56 651 68 q 718 33 677 44 l 718 0 l 450 0 l 450 33 q 488 47 477 41 q 508 64 500 54 q 520 98 515 75 q 524 167 524 121 l 524 345 q 515 483 524 435 q 479 554 506 530 q 404 578 452 578 q 355 568 377 578 q 305 534 334 559 q 262 484 277 510 q 248 429 248 458 l 248 170 q 250 104 248 123 q 259 71 252 84 q 280 49 266 58 q 323 33 294 41 l 323 0 l 54 0 l 54 33 q 97 49 84 41 q 117 68 110 56 q 127 101 124 79 q 131 170 131 123 l 131 737 q 130 828 131 802 q 124 872 129 854 q 112 900 120 890 q 91 916 104 910 q 43 928 78 922 l 43 964 l 207 970 l 248 970 l 248 542 z "},"i":{"ha":386,"x_min":56,"x_max":332,"o":"m 260 914 l 260 783 l 135 783 l 135 914 l 260 914 m 66 33 q 103 47 92 41 q 122 64 115 54 q 135 98 130 75 q 139 168 139 120 l 139 463 q 138 533 139 507 q 128 575 136 559 q 103 599 120 591 q 56 612 87 607 l 56 648 l 214 654 l 256 654 l 256 170 q 261 89 256 111 q 282 54 267 66 q 332 33 297 42 l 332 0 l 66 0 l 66 33 z "},"j":{"ha":370,"x_min":3,"x_max":253,"o":"m 253 914 l 253 783 l 129 783 l 129 914 l 253 914 m 250 13 q 230 -139 250 -82 q 162 -236 210 -196 q 26 -300 113 -275 l 3 -241 q 67 -210 45 -224 q 104 -176 90 -195 q 125 -124 118 -157 q 133 -41 133 -92 l 133 463 q 131 539 133 516 q 122 575 129 562 q 101 597 115 589 q 50 612 87 605 l 50 648 l 208 654 l 250 654 l 250 13 z "},"k":{"ha":728,"x_min":43,"x_max":735,"o":"m 247 378 l 269 378 q 305 382 291 378 q 342 403 322 389 q 400 452 363 418 q 447 502 431 481 q 469 539 463 522 q 475 568 475 553 q 462 600 475 588 q 421 615 450 611 l 421 648 l 713 648 l 713 615 q 647 587 682 609 q 574 530 612 566 l 418 382 l 614 127 q 675 61 648 83 q 735 33 703 40 l 735 0 l 475 0 l 475 33 q 501 41 492 35 q 509 60 509 47 q 506 80 509 71 q 490 107 502 90 q 448 166 479 124 l 368 275 q 335 315 345 305 q 314 328 325 324 q 285 332 303 332 l 247 332 l 247 170 q 252 89 247 111 q 273 54 258 66 q 323 33 288 42 l 323 0 l 54 0 l 54 33 q 101 52 87 42 q 120 74 114 61 q 128 110 125 87 q 130 170 130 133 l 130 737 q 129 828 130 802 q 124 872 128 854 q 112 900 119 890 q 91 916 104 910 q 43 928 77 922 l 43 964 l 206 970 l 247 970 l 247 378 z "},"l":{"ha":377,"x_min":43,"x_max":323,"o":"m 247 170 q 252 89 247 111 q 273 54 258 66 q 323 33 288 42 l 323 0 l 54 0 l 54 33 q 101 52 87 42 q 120 74 114 61 q 128 110 125 87 q 130 170 130 133 l 130 737 q 129 828 130 802 q 124 872 128 854 q 112 900 119 890 q 91 916 104 910 q 43 928 77 922 l 43 964 l 206 970 l 247 970 l 247 170 z "},"m":{"ha":1156,"x_min":56,"x_max":1106,"o":"m 249 544 l 258 541 q 325 603 299 582 q 376 636 351 623 q 421 654 400 648 q 465 659 443 659 q 576 628 533 659 q 635 532 618 597 q 717 608 686 584 q 782 646 749 633 q 852 659 814 659 q 931 646 898 659 q 986 605 964 633 q 1020 536 1009 578 q 1030 425 1030 495 l 1030 170 q 1034 98 1030 118 q 1043 68 1037 79 q 1063 49 1050 57 q 1106 33 1076 41 l 1106 0 l 840 0 l 840 33 q 878 47 866 41 q 897 64 889 54 q 909 98 905 75 q 913 167 913 121 l 913 345 q 910 440 913 402 q 901 500 907 477 q 885 535 895 522 q 865 557 876 548 q 838 572 853 567 q 796 578 822 578 q 746 567 769 578 q 695 530 722 556 q 655 478 667 505 q 643 417 643 452 l 643 170 q 646 98 643 118 q 656 68 650 79 q 675 49 663 57 q 719 33 688 41 l 719 0 l 452 0 l 452 33 q 490 47 479 41 q 510 64 502 54 q 522 98 517 75 q 526 167 526 121 l 526 345 q 523 443 526 405 q 512 504 519 481 q 494 541 505 527 q 471 563 483 555 q 444 574 460 570 q 409 578 429 578 q 357 565 381 578 q 307 529 332 553 q 269 479 281 505 q 256 424 256 454 l 256 170 q 258 111 256 131 q 264 79 260 90 q 275 60 269 67 q 295 46 282 53 q 332 33 307 40 l 332 0 l 66 0 l 66 33 q 103 47 92 41 q 123 64 115 54 q 135 98 131 75 q 139 168 139 120 l 139 463 q 138 533 139 507 q 128 575 136 559 q 103 599 120 591 q 56 612 87 607 l 56 648 l 215 654 l 256 654 l 249 544 z "},"n":{"ha":775,"x_min":56,"x_max":726,"o":"m 726 0 l 459 0 l 459 33 q 497 47 486 41 q 516 64 509 54 q 529 98 524 75 q 533 167 533 121 l 533 345 q 530 431 533 392 q 521 494 528 469 q 506 533 515 519 q 484 556 496 547 q 455 572 471 566 q 412 578 439 578 q 362 567 386 578 q 310 531 338 557 q 269 480 281 505 q 256 422 256 455 l 256 170 q 261 89 256 111 q 282 54 267 66 q 332 33 297 42 l 332 0 l 66 0 l 66 33 q 103 47 92 41 q 122 64 115 54 q 135 98 130 75 q 139 168 139 120 l 139 463 q 138 533 139 507 q 128 575 136 559 q 103 599 120 591 q 56 612 87 607 l 56 648 l 215 654 l 256 654 l 249 544 l 258 541 q 339 614 309 592 q 402 647 370 635 q 469 659 433 659 q 534 651 505 659 q 585 625 563 642 q 621 581 607 607 q 643 518 635 555 q 650 425 650 481 l 650 170 q 652 102 650 123 q 662 69 655 81 q 682 50 669 58 q 726 33 694 42 l 726 0 z "},"o":{"ha":737,"x_min":71,"x_max":666,"o":"m 361 -11 q 145 72 220 -11 q 71 318 71 155 q 110 507 71 430 q 217 622 149 585 q 372 660 285 660 q 591 575 517 660 q 666 333 666 491 q 629 143 666 220 q 523 27 591 66 q 361 -11 454 -11 m 199 332 q 244 118 199 193 q 371 43 288 43 q 448 65 416 43 q 500 124 480 87 q 529 211 520 161 q 538 313 538 260 q 516 479 538 413 q 456 575 494 545 q 369 606 418 606 q 243 535 287 606 q 199 332 199 464 z "},"p":{"ha":772,"x_min":50,"x_max":702,"o":"m 250 20 l 250 -123 q 253 -189 250 -167 q 263 -223 256 -210 q 286 -243 271 -235 q 333 -258 300 -252 l 333 -292 l 56 -292 l 56 -258 q 96 -244 81 -252 q 119 -223 111 -237 q 130 -186 127 -210 q 133 -123 133 -162 l 133 459 q 132 529 133 508 q 126 563 130 549 q 114 585 122 576 q 93 600 106 594 q 50 612 80 606 l 50 648 l 209 654 l 250 654 l 241 544 l 252 541 q 318 603 294 584 q 369 635 342 623 q 419 654 395 648 q 470 659 443 659 q 642 575 582 659 q 702 330 702 492 q 668 142 702 218 q 569 27 634 66 q 415 -11 505 -11 q 324 -2 365 -11 q 250 20 283 6 m 250 244 q 258 144 250 179 q 287 86 266 109 q 335 54 307 64 q 410 43 363 43 q 533 111 492 43 q 574 312 574 179 q 419 578 574 578 q 354 566 381 578 q 299 528 326 554 q 261 476 272 501 q 250 423 250 452 l 250 244 z "},"q":{"ha":760,"x_min":71,"x_max":716,"o":"m 716 -292 l 439 -292 l 439 -258 q 487 -243 472 -252 q 509 -223 501 -235 q 520 -189 517 -210 q 523 -123 523 -168 l 523 111 q 455 45 486 70 q 385 5 423 20 q 302 -11 346 -11 q 131 73 191 -11 q 71 315 71 156 q 110 506 71 428 q 218 622 149 583 q 380 660 288 660 q 467 650 428 660 q 546 618 505 640 l 593 660 l 640 649 l 640 -123 q 643 -186 640 -163 q 653 -223 646 -210 q 676 -244 661 -237 q 716 -258 692 -252 l 716 -292 m 523 404 q 515 502 523 467 q 487 561 507 536 q 441 595 467 585 q 378 606 414 606 q 244 535 291 606 q 198 336 198 465 q 236 138 198 206 q 349 71 273 71 q 397 76 377 71 q 436 92 417 81 q 476 123 456 104 q 505 159 496 143 q 518 196 513 175 q 523 250 523 217 l 523 404 z "},"r":{"ha":574,"x_min":56,"x_max":551,"o":"m 249 536 l 258 534 q 328 605 296 579 q 396 646 359 631 q 480 660 433 660 q 551 656 519 660 l 551 500 l 475 500 q 440 553 458 536 q 390 570 422 570 q 341 555 366 570 q 295 514 317 541 q 264 463 273 487 q 256 407 256 439 l 256 170 q 263 84 256 108 q 288 50 271 61 q 340 33 305 39 l 340 0 l 66 0 l 66 33 q 103 47 92 41 q 123 64 115 54 q 135 98 131 75 q 139 168 139 120 l 139 463 q 138 533 139 507 q 128 575 136 559 q 103 599 120 591 q 56 612 87 607 l 56 648 l 215 654 l 256 654 l 249 536 z "},"s":{"ha":597,"x_min":64,"x_max":528,"o":"m 520 500 l 455 500 q 420 564 440 541 q 374 597 399 587 q 311 606 348 606 q 224 581 256 606 q 192 511 192 555 q 205 460 192 480 q 245 422 218 439 q 340 375 272 404 q 447 320 410 345 q 506 262 485 295 q 528 182 528 229 q 509 92 528 129 q 458 33 491 56 q 379 -1 425 9 q 279 -11 333 -11 q 168 -2 222 -11 q 64 20 115 6 l 64 161 l 130 161 q 184 71 149 99 q 283 43 220 43 q 331 48 308 43 q 373 65 355 53 q 402 97 391 77 q 413 148 413 117 q 399 204 413 182 q 357 244 386 226 q 257 292 329 262 q 158 342 195 318 q 99 400 121 367 q 78 479 78 433 q 108 575 78 534 q 195 638 138 616 q 329 660 252 660 q 415 655 374 660 q 520 638 457 651 l 520 500 z "},"t":{"ha":470,"x_min":25,"x_max":479,"o":"m 25 614 q 80 633 59 620 q 113 668 101 647 q 132 722 125 690 q 146 816 138 754 l 242 816 l 242 648 l 461 648 l 461 580 l 242 580 l 242 278 q 248 173 242 212 q 268 112 253 134 q 302 81 283 90 q 351 71 321 71 q 401 82 378 71 q 448 115 425 94 l 479 78 q 388 10 431 31 q 298 -11 345 -11 q 168 41 211 -11 q 125 203 125 93 l 125 580 l 25 580 l 25 614 z "},"u":{"ha":767,"x_min":50,"x_max":720,"o":"m 50 648 l 243 648 l 243 303 q 249 182 243 224 q 267 120 255 141 q 302 85 279 99 q 363 71 324 71 q 413 81 389 71 q 466 116 437 91 q 508 167 495 142 q 520 225 520 192 l 520 479 q 518 538 520 518 q 511 569 516 557 q 500 589 507 581 q 482 602 494 596 q 444 615 470 608 l 444 648 l 637 648 l 637 185 q 639 110 637 133 q 648 73 641 87 q 669 51 654 60 q 720 35 683 43 l 720 0 l 564 -7 l 523 -7 l 527 104 l 517 107 q 409 18 460 46 q 307 -11 358 -11 q 205 14 245 -11 q 145 86 165 38 q 125 223 125 135 l 125 479 q 121 558 125 536 q 104 592 117 579 q 50 615 92 604 l 50 648 z "},"v":{"ha":700,"x_min":13,"x_max":701,"o":"m 290 648 l 290 615 q 245 601 258 608 q 226 583 233 594 q 220 554 220 572 q 224 516 220 536 q 238 469 229 496 l 356 126 l 494 455 q 513 509 508 488 q 519 548 519 530 q 504 591 519 576 q 448 615 488 606 l 448 648 l 701 648 l 701 615 q 661 598 675 610 q 632 563 646 587 q 598 496 618 539 l 370 -7 l 290 -7 l 106 500 q 76 571 87 552 q 51 600 64 591 q 13 615 38 610 l 13 648 l 290 648 z "},"w":{"ha":1076,"x_min":20,"x_max":1072,"o":"m 541 507 l 363 -3 l 269 -3 l 106 500 q 80 569 91 549 q 58 598 70 589 q 20 615 46 608 l 20 648 l 288 648 l 288 615 q 234 594 248 607 q 220 554 220 581 q 224 516 220 536 q 237 469 229 496 l 343 123 l 517 648 l 613 648 l 761 123 l 880 455 q 896 504 890 481 q 902 548 902 528 q 887 592 902 576 q 835 615 871 608 l 835 648 l 1072 648 l 1072 615 q 1043 605 1053 610 q 1024 590 1034 600 q 1004 560 1015 581 q 976 496 993 539 l 780 -3 l 688 -3 l 541 507 z "},"x":{"ha":671,"x_min":16,"x_max":656,"o":"m 353 391 l 441 503 q 464 539 455 522 q 473 574 473 556 q 461 600 473 590 q 425 615 450 610 l 425 648 l 647 648 l 647 615 q 594 586 621 608 q 529 516 568 564 l 389 344 l 543 136 q 603 67 576 91 q 656 33 629 43 l 656 0 l 383 0 l 383 33 q 439 75 439 40 q 435 102 439 90 q 417 132 430 115 l 319 269 l 214 134 q 196 106 203 119 q 190 78 190 94 q 202 48 190 60 q 242 33 215 36 l 242 0 l 16 0 l 16 33 q 56 54 38 41 q 93 85 74 66 q 142 142 111 104 l 283 317 l 138 515 q 91 574 109 555 q 58 602 73 592 q 28 615 43 611 l 28 648 l 294 648 l 294 615 q 241 573 241 607 q 248 542 241 557 q 270 507 255 526 l 353 391 z "},"y":{"ha":700,"x_min":14,"x_max":701,"o":"m 353 -56 q 280 -192 315 -140 q 202 -271 245 -244 q 102 -297 160 -297 q 18 -288 64 -297 l 18 -154 l 78 -154 q 98 -193 86 -182 q 134 -203 111 -203 q 170 -196 154 -203 q 203 -169 186 -188 q 244 -111 220 -150 q 296 -11 267 -71 l 106 500 q 77 569 88 549 q 53 599 66 589 q 14 615 40 609 l 14 648 l 290 648 l 290 615 q 245 601 258 608 q 226 582 232 593 q 220 553 220 571 q 224 515 220 535 q 238 469 229 496 l 359 130 l 494 455 q 512 505 506 482 q 519 547 519 528 q 503 591 519 576 q 448 615 487 606 l 448 648 l 701 648 l 701 615 q 661 598 675 610 q 632 563 646 587 q 598 496 618 539 l 353 -56 z "},"z":{"ha":631,"x_min":55,"x_max":577,"o":"m 577 197 l 577 0 l 55 0 l 55 33 l 427 593 l 243 593 q 189 581 209 593 q 152 541 170 569 q 118 464 134 512 l 59 464 l 59 648 l 573 648 l 573 614 l 202 55 l 380 55 q 433 60 416 55 q 464 78 451 66 q 489 115 477 90 q 518 197 501 141 l 577 197 z "},"à":{"ha":678,"x_min":54,"x_max":640,"o":"m 458 97 l 448 100 q 337 14 389 39 q 227 -11 285 -11 q 136 9 175 -11 q 75 65 96 29 q 54 149 54 102 q 152 302 54 248 q 446 365 250 356 l 446 409 q 433 520 446 479 q 390 580 419 561 q 312 599 361 599 q 227 571 259 599 q 178 488 195 543 l 90 488 l 90 576 q 198 626 155 610 q 285 651 241 642 q 373 660 328 660 q 481 638 440 660 q 542 573 522 617 q 562 440 562 529 l 562 204 q 563 133 562 154 q 567 95 564 113 q 577 67 570 77 q 597 49 584 56 q 640 33 610 41 l 640 0 l 454 0 l 458 97 m 446 309 q 240 273 309 308 q 172 166 172 237 q 187 105 172 127 q 227 74 203 83 q 283 66 250 66 q 367 88 329 66 q 425 145 404 111 q 446 214 446 180 l 446 309 m 279 978 l 420 761 l 375 726 l 161 944 l 161 978 l 279 978 z "},"á":{"ha":678,"x_min":54,"x_max":640,"o":"m 458 97 l 448 100 q 337 14 389 39 q 227 -11 285 -11 q 136 9 175 -11 q 75 65 96 29 q 54 149 54 102 q 152 302 54 248 q 446 365 250 356 l 446 409 q 433 520 446 479 q 390 580 419 561 q 312 599 361 599 q 227 571 259 599 q 178 488 195 543 l 90 488 l 90 576 q 198 626 155 610 q 285 651 241 642 q 373 660 328 660 q 481 638 440 660 q 542 573 522 617 q 562 440 562 529 l 562 204 q 563 133 562 154 q 567 95 564 113 q 577 67 570 77 q 597 49 584 56 q 640 33 610 41 l 640 0 l 454 0 l 458 97 m 446 309 q 240 273 309 308 q 172 166 172 237 q 187 105 172 127 q 227 74 203 83 q 283 66 250 66 q 367 88 329 66 q 425 145 404 111 q 446 214 446 180 l 446 309 m 504 978 l 504 944 l 289 726 l 245 761 l 385 978 l 504 978 z "},"â":{"ha":678,"x_min":54,"x_max":640,"o":"m 458 97 l 448 100 q 337 14 389 39 q 227 -11 285 -11 q 136 9 175 -11 q 75 65 96 29 q 54 149 54 102 q 152 302 54 248 q 446 365 250 356 l 446 409 q 433 520 446 479 q 390 580 419 561 q 312 599 361 599 q 227 571 259 599 q 178 488 195 543 l 90 488 l 90 576 q 198 626 155 610 q 285 651 241 642 q 373 660 328 660 q 481 638 440 660 q 542 573 522 617 q 562 440 562 529 l 562 204 q 563 133 562 154 q 567 95 564 113 q 577 67 570 77 q 597 49 584 56 q 640 33 610 41 l 640 0 l 454 0 l 458 97 m 446 309 q 240 273 309 308 q 172 166 172 237 q 187 105 172 127 q 227 74 203 83 q 283 66 250 66 q 367 88 329 66 q 425 145 404 111 q 446 214 446 180 l 446 309 m 381 978 l 526 764 l 479 726 l 336 890 l 328 890 l 184 726 l 138 764 l 290 978 l 381 978 z "},"ã":{"ha":678,"x_min":54,"x_max":640,"o":"m 458 97 l 448 100 q 337 14 389 39 q 227 -11 285 -11 q 136 9 175 -11 q 75 65 96 29 q 54 149 54 102 q 152 302 54 248 q 446 365 250 356 l 446 409 q 433 520 446 479 q 390 580 419 561 q 312 599 361 599 q 227 571 259 599 q 178 488 195 543 l 90 488 l 90 576 q 198 626 155 610 q 285 651 241 642 q 373 660 328 660 q 481 638 440 660 q 542 573 522 617 q 562 440 562 529 l 562 204 q 563 133 562 154 q 567 95 564 113 q 577 67 570 77 q 597 49 584 56 q 640 33 610 41 l 640 0 l 454 0 l 458 97 m 446 309 q 240 273 309 308 q 172 166 172 237 q 187 105 172 127 q 227 74 203 83 q 283 66 250 66 q 367 88 329 66 q 425 145 404 111 q 446 214 446 180 l 446 309 m 504 926 l 557 903 q 508 818 531 848 q 463 776 484 787 q 414 765 441 765 q 382 769 396 765 q 356 780 369 772 q 315 806 342 787 q 286 825 296 818 q 264 836 275 831 q 239 840 252 840 q 210 833 222 840 q 186 810 198 827 q 161 765 174 793 l 108 788 q 161 879 140 853 q 202 915 181 904 q 254 926 224 926 q 283 923 270 926 q 308 913 296 919 q 346 888 319 907 q 377 867 366 875 q 401 856 389 860 q 429 851 413 851 q 467 868 450 851 q 504 926 484 884 z "},"ä":{"ha":678,"x_min":54,"x_max":640,"o":"m 458 97 l 448 100 q 337 14 389 39 q 227 -11 285 -11 q 136 9 175 -11 q 75 65 96 29 q 54 149 54 102 q 152 302 54 248 q 446 365 250 356 l 446 409 q 433 520 446 479 q 390 580 419 561 q 312 599 361 599 q 227 571 259 599 q 178 488 195 543 l 90 488 l 90 576 q 198 626 155 610 q 285 651 241 642 q 373 660 328 660 q 481 638 440 660 q 542 573 522 617 q 562 440 562 529 l 562 204 q 563 133 562 154 q 567 95 564 113 q 577 67 570 77 q 597 49 584 56 q 640 33 610 41 l 640 0 l 454 0 l 458 97 m 446 309 q 240 273 309 308 q 172 166 172 237 q 187 105 172 127 q 227 74 203 83 q 283 66 250 66 q 367 88 329 66 q 425 145 404 111 q 446 214 446 180 l 446 309 m 504 908 l 504 789 l 391 789 l 391 908 l 504 908 m 274 908 l 274 789 l 161 789 l 161 908 l 274 908 z "},"ā":{"ha":678,"x_min":54,"x_max":640,"o":"m 458 97 l 448 100 q 337 14 389 39 q 227 -11 285 -11 q 136 9 175 -11 q 75 65 96 29 q 54 149 54 102 q 152 302 54 248 q 446 365 250 356 l 446 409 q 433 520 446 479 q 390 580 419 561 q 312 599 361 599 q 227 571 259 599 q 178 488 195 543 l 90 488 l 90 576 q 198 626 155 610 q 285 651 241 642 q 373 660 328 660 q 481 638 440 660 q 542 573 522 617 q 562 440 562 529 l 562 204 q 563 133 562 154 q 567 95 564 113 q 577 67 570 77 q 597 49 584 56 q 640 33 610 41 l 640 0 l 454 0 l 458 97 m 446 309 q 240 273 309 308 q 172 166 172 237 q 187 105 172 127 q 227 74 203 83 q 283 66 250 66 q 367 88 329 66 q 425 145 404 111 q 446 214 446 180 l 446 309 m 511 806 l 153 806 l 153 890 l 511 890 l 511 806 z "},"ă":{"ha":678,"x_min":54,"x_max":640,"o":"m 458 97 l 448 100 q 337 14 389 39 q 227 -11 285 -11 q 136 9 175 -11 q 75 65 96 29 q 54 149 54 102 q 152 302 54 248 q 446 365 250 356 l 446 409 q 433 520 446 479 q 390 580 419 561 q 312 599 361 599 q 227 571 259 599 q 178 488 195 543 l 90 488 l 90 576 q 198 626 155 610 q 285 651 241 642 q 373 660 328 660 q 481 638 440 660 q 542 573 522 617 q 562 440 562 529 l 562 204 q 563 133 562 154 q 567 95 564 113 q 577 67 570 77 q 597 49 584 56 q 640 33 610 41 l 640 0 l 454 0 l 458 97 m 446 309 q 240 273 309 308 q 172 166 172 237 q 187 105 172 127 q 227 74 203 83 q 283 66 250 66 q 367 88 329 66 q 425 145 404 111 q 446 214 446 180 l 446 309 m 537 941 q 468 802 519 849 q 327 755 417 755 q 194 802 243 755 q 127 941 145 848 l 180 957 q 218 887 197 912 q 265 852 239 862 q 330 843 291 843 q 395 853 368 843 q 446 888 423 863 q 485 957 469 913 l 537 941 z "},"å":{"ha":678,"x_min":54,"x_max":640,"o":"m 458 97 l 448 100 q 337 14 389 39 q 227 -11 285 -11 q 136 9 175 -11 q 75 65 96 29 q 54 149 54 102 q 152 302 54 248 q 446 365 250 356 l 446 409 q 433 520 446 479 q 390 580 419 561 q 312 599 361 599 q 227 571 259 599 q 178 488 195 543 l 90 488 l 90 576 q 198 626 155 610 q 285 651 241 642 q 373 660 328 660 q 481 638 440 660 q 542 573 522 617 q 562 440 562 529 l 562 204 q 563 133 562 154 q 567 95 564 113 q 577 67 570 77 q 597 49 584 56 q 640 33 610 41 l 640 0 l 454 0 l 458 97 m 446 309 q 240 273 309 308 q 172 166 172 237 q 187 105 172 127 q 227 74 203 83 q 283 66 250 66 q 367 88 329 66 q 425 145 404 111 q 446 214 446 180 l 446 309 m 328 726 q 217 760 255 726 q 178 860 178 794 q 198 936 178 905 q 254 983 218 968 q 334 998 289 998 q 447 964 408 998 q 486 866 486 930 q 445 763 486 799 q 328 726 404 726 m 250 865 q 271 794 250 819 q 334 768 292 768 q 394 792 373 768 q 414 859 414 816 q 392 931 414 906 q 332 956 370 956 q 271 932 292 956 q 250 865 250 909 z "},"ǻ":{"ha":678,"x_min":54,"x_max":640,"o":"m 458 97 l 448 100 q 337 14 389 39 q 227 -11 285 -11 q 136 9 175 -11 q 75 65 96 29 q 54 149 54 102 q 152 302 54 248 q 446 365 250 356 l 446 409 q 433 520 446 479 q 390 580 419 561 q 312 599 361 599 q 227 571 259 599 q 178 488 195 543 l 90 488 l 90 576 q 198 626 155 610 q 285 651 241 642 q 373 660 328 660 q 481 638 440 660 q 542 573 522 617 q 562 440 562 529 l 562 204 q 563 133 562 154 q 567 95 564 113 q 577 67 570 77 q 597 49 584 56 q 640 33 610 41 l 640 0 l 454 0 l 458 97 m 446 309 q 240 273 309 308 q 172 166 172 237 q 187 105 172 127 q 227 74 203 83 q 283 66 250 66 q 367 88 329 66 q 425 145 404 111 q 446 214 446 180 l 446 309 m 328 726 q 217 760 255 726 q 178 860 178 794 q 198 936 178 905 q 254 983 218 968 q 334 998 289 998 q 447 964 408 998 q 486 866 486 930 q 445 763 486 799 q 328 726 404 726 m 250 865 q 271 794 250 819 q 334 768 292 768 q 394 792 373 768 q 414 859 414 816 q 392 931 414 906 q 332 956 370 956 q 271 932 292 956 q 250 865 250 909 m 497 1276 l 497 1242 l 282 1024 l 238 1059 l 378 1276 l 497 1276 z "},"ą":{"ha":678,"x_min":54,"x_max":644,"o":"m 458 97 l 448 100 q 337 14 389 39 q 227 -11 285 -11 q 136 9 175 -11 q 75 65 96 29 q 54 149 54 102 q 152 302 54 248 q 446 365 250 356 l 446 409 q 433 520 446 479 q 390 580 419 561 q 312 599 361 599 q 227 571 259 599 q 178 488 195 543 l 90 488 l 90 576 q 198 626 155 610 q 285 651 241 642 q 373 660 328 660 q 481 638 440 660 q 542 573 522 617 q 562 440 562 529 l 562 204 q 563 133 562 154 q 567 95 564 113 q 577 67 570 77 q 597 49 584 56 q 640 33 610 41 l 640 0 l 568 0 q 484 -156 484 -77 q 501 -212 484 -194 q 553 -231 518 -231 q 592 -224 575 -231 q 623 -208 608 -218 l 644 -254 q 590 -281 619 -271 q 524 -292 561 -292 q 473 -285 497 -292 q 431 -264 449 -279 q 401 -228 412 -250 q 390 -173 390 -205 q 421 -83 390 -127 q 509 0 453 -38 l 454 0 l 458 97 m 446 309 q 240 273 309 308 q 172 166 172 237 q 187 105 172 127 q 227 74 203 83 q 283 66 250 66 q 367 88 329 66 q 425 145 404 111 q 446 214 446 180 l 446 309 z "},"æ":{"ha":1045,"x_min":54,"x_max":989,"o":"m 562 334 l 562 322 q 579 188 562 242 q 638 102 597 133 q 745 71 680 71 q 845 92 801 71 q 934 159 890 113 l 975 115 q 896 44 932 70 q 816 4 859 18 q 720 -11 772 -11 q 572 22 633 -11 q 479 120 512 54 l 475 120 q 390 43 427 71 q 313 3 353 16 q 227 -11 273 -11 q 136 9 175 -11 q 75 65 96 29 q 54 149 54 102 q 152 302 54 248 q 446 365 250 356 l 446 409 q 433 520 446 479 q 390 580 419 561 q 312 599 361 599 q 227 571 259 599 q 178 488 195 543 l 90 488 l 90 576 q 198 626 155 610 q 285 651 241 642 q 373 660 328 660 q 468 637 433 660 q 525 566 503 615 l 533 566 q 621 636 572 613 q 732 660 670 660 q 849 638 801 660 q 926 579 897 616 q 971 484 955 541 q 989 334 987 427 l 562 334 m 861 391 q 843 510 857 464 q 800 582 829 557 q 726 606 772 606 q 614 550 656 606 q 565 391 572 494 l 861 391 m 446 309 q 240 273 309 308 q 172 166 172 237 q 187 105 172 127 q 227 74 203 83 q 283 66 250 66 q 367 88 329 66 q 425 145 404 111 q 446 214 446 180 l 446 309 z "},"ǽ":{"ha":1045,"x_min":54,"x_max":989,"o":"m 562 334 l 562 322 q 579 188 562 242 q 638 102 597 133 q 745 71 680 71 q 845 92 801 71 q 934 159 890 113 l 975 115 q 896 44 932 70 q 816 4 859 18 q 720 -11 772 -11 q 572 22 633 -11 q 479 120 512 54 l 475 120 q 390 43 427 71 q 313 3 353 16 q 227 -11 273 -11 q 136 9 175 -11 q 75 65 96 29 q 54 149 54 102 q 152 302 54 248 q 446 365 250 356 l 446 409 q 433 520 446 479 q 390 580 419 561 q 312 599 361 599 q 227 571 259 599 q 178 488 195 543 l 90 488 l 90 576 q 198 626 155 610 q 285 651 241 642 q 373 660 328 660 q 468 637 433 660 q 525 566 503 615 l 533 566 q 621 636 572 613 q 732 660 670 660 q 849 638 801 660 q 926 579 897 616 q 971 484 955 541 q 989 334 987 427 l 562 334 m 861 391 q 843 510 857 464 q 800 582 829 557 q 726 606 772 606 q 614 550 656 606 q 565 391 572 494 l 861 391 m 446 309 q 240 273 309 308 q 172 166 172 237 q 187 105 172 127 q 227 74 203 83 q 283 66 250 66 q 367 88 329 66 q 425 145 404 111 q 446 214 446 180 l 446 309 m 694 978 l 694 944 l 479 726 l 435 761 l 575 978 l 694 978 z "},"ć":{"ha":612,"x_min":71,"x_max":576,"o":"m 571 633 l 571 491 l 485 491 q 456 561 473 535 q 417 596 439 586 q 361 606 395 606 q 277 576 314 606 q 219 483 241 545 q 198 330 198 420 q 206 225 198 273 q 234 143 214 177 q 286 90 254 109 q 367 71 319 71 q 454 90 414 71 q 538 154 494 108 l 576 109 q 515 51 542 71 q 459 16 489 30 q 399 -4 429 2 q 335 -11 370 -11 q 139 74 207 -11 q 71 320 71 159 q 109 498 71 420 q 216 618 147 576 q 374 660 284 660 q 476 653 429 660 q 571 633 524 647 m 513 978 l 513 944 l 298 726 l 254 761 l 395 978 l 513 978 z "},"ĉ":{"ha":612,"x_min":71,"x_max":576,"o":"m 571 633 l 571 491 l 485 491 q 456 561 473 535 q 417 596 439 586 q 361 606 395 606 q 277 576 314 606 q 219 483 241 545 q 198 330 198 420 q 206 225 198 273 q 234 143 214 177 q 286 90 254 109 q 367 71 319 71 q 454 90 414 71 q 538 154 494 108 l 576 109 q 515 51 542 71 q 459 16 489 30 q 399 -4 429 2 q 335 -11 370 -11 q 139 74 207 -11 q 71 320 71 159 q 109 498 71 420 q 216 618 147 576 q 374 660 284 660 q 476 653 429 660 q 571 633 524 647 m 391 978 l 536 764 l 489 726 l 345 890 l 338 890 l 194 726 l 148 764 l 300 978 l 391 978 z "},"č":{"ha":612,"x_min":71,"x_max":576,"o":"m 571 633 l 571 491 l 485 491 q 456 561 473 535 q 417 596 439 586 q 361 606 395 606 q 277 576 314 606 q 219 483 241 545 q 198 330 198 420 q 206 225 198 273 q 234 143 214 177 q 286 90 254 109 q 367 71 319 71 q 454 90 414 71 q 538 154 494 108 l 576 109 q 515 51 542 71 q 459 16 489 30 q 399 -4 429 2 q 335 -11 370 -11 q 139 74 207 -11 q 71 320 71 159 q 109 498 71 420 q 216 618 147 576 q 374 660 284 660 q 476 653 429 660 q 571 633 524 647 m 292 735 l 148 949 l 194 987 l 338 823 l 345 823 l 489 987 l 536 949 l 383 735 l 292 735 z "},"ċ":{"ha":612,"x_min":71,"x_max":576,"o":"m 571 633 l 571 491 l 485 491 q 456 561 473 535 q 417 596 439 586 q 361 606 395 606 q 277 576 314 606 q 219 483 241 545 q 198 330 198 420 q 206 225 198 273 q 234 143 214 177 q 286 90 254 109 q 367 71 319 71 q 454 90 414 71 q 538 154 494 108 l 576 109 q 515 51 542 71 q 459 16 489 30 q 399 -4 429 2 q 335 -11 370 -11 q 139 74 207 -11 q 71 320 71 159 q 109 498 71 420 q 216 618 147 576 q 374 660 284 660 q 476 653 429 660 q 571 633 524 647 m 404 914 l 404 783 l 279 783 l 279 914 l 404 914 z "},"ç":{"ha":612,"x_min":71,"x_max":576,"o":"m 571 633 l 571 491 l 485 491 q 456 561 473 535 q 417 596 439 586 q 361 606 395 606 q 277 576 314 606 q 219 483 241 545 q 198 332 198 420 q 206 225 198 273 q 234 143 214 178 q 286 90 254 109 q 367 71 319 71 q 454 90 414 71 q 538 154 494 108 l 576 109 q 532 65 557 88 q 472 22 506 41 l 369 -54 q 380 -90 376 -69 q 385 -130 385 -111 q 330 -242 385 -200 q 172 -292 275 -285 l 163 -241 q 233 -221 207 -236 q 270 -186 260 -206 q 280 -138 280 -166 q 276 -102 280 -120 l 276 -75 l 372 -9 q 335 -11 355 -11 q 139 74 207 -11 q 71 320 71 159 q 109 498 71 420 q 216 618 147 576 q 374 660 284 660 q 476 653 429 660 q 571 633 524 647 z "},"ď":{"ha":941,"x_min":71,"x_max":907,"o":"m 524 737 q 523 828 524 802 q 517 872 522 854 q 505 900 513 890 q 484 916 497 910 q 436 928 471 922 l 436 964 l 600 970 l 640 970 l 640 185 q 642 110 640 132 q 651 73 644 87 q 672 51 658 60 q 724 35 687 43 l 724 0 l 564 -7 l 523 -7 l 531 104 l 521 107 q 447 39 478 62 q 379 3 415 16 q 303 -11 344 -11 q 132 74 192 -11 q 71 317 71 158 q 111 506 71 429 q 217 622 150 584 q 367 660 283 660 q 448 653 412 660 q 524 629 485 646 l 524 737 m 524 402 q 519 487 524 455 q 503 541 514 519 q 473 577 492 562 q 431 599 454 592 q 376 606 408 606 q 244 536 290 606 q 199 336 199 467 q 236 138 199 206 q 349 71 273 71 q 399 76 379 71 q 437 92 418 81 q 476 123 456 103 q 505 159 496 142 q 519 196 514 175 q 524 250 524 217 l 524 402 m 892 970 q 907 883 907 926 q 896 813 907 844 q 858 751 884 783 q 776 669 832 720 l 739 705 q 783 782 770 745 q 796 869 796 819 q 794 909 796 890 q 785 970 793 928 l 892 970 z "},"đ":{"ha":770,"x_min":71,"x_max":736,"o":"m 640 766 l 640 185 q 642 110 640 132 q 651 73 644 87 q 672 51 658 60 q 724 35 687 43 l 724 0 l 564 -7 l 523 -7 l 531 104 l 521 107 q 447 39 478 62 q 379 3 415 16 q 303 -11 344 -11 q 132 74 192 -11 q 71 317 71 158 q 111 506 71 429 q 217 622 150 584 q 367 660 283 660 q 448 653 412 660 q 524 629 485 646 l 524 766 l 292 766 l 292 826 l 524 826 q 518 875 523 857 q 503 905 513 894 q 476 921 493 916 q 436 928 460 926 l 436 964 l 600 970 l 640 970 l 640 826 l 736 826 l 736 766 l 640 766 m 524 402 q 519 487 524 455 q 503 541 514 519 q 473 577 492 562 q 431 599 454 592 q 376 606 408 606 q 244 536 290 606 q 199 336 199 467 q 236 138 199 206 q 349 71 273 71 q 399 76 379 71 q 437 92 418 81 q 476 123 456 103 q 505 159 496 142 q 519 196 514 175 q 524 250 524 217 l 524 402 z "},"è":{"ha":677,"x_min":71,"x_max":621,"o":"m 608 115 q 528 44 564 70 q 448 4 492 18 q 353 -11 405 -11 q 142 73 213 -11 q 71 320 71 157 q 107 498 71 421 q 210 618 143 576 q 365 660 277 660 q 481 638 433 660 q 558 579 530 616 q 603 484 587 541 q 621 334 619 427 l 194 334 l 194 322 q 212 188 194 242 q 271 102 230 133 q 378 71 312 71 q 478 92 433 71 q 566 159 522 113 l 608 115 m 494 391 q 475 510 490 464 q 433 582 461 557 q 358 606 404 606 q 247 550 288 606 q 197 391 205 494 l 494 391 m 297 978 l 437 761 l 393 726 l 178 944 l 178 978 l 297 978 z "},"é":{"ha":677,"x_min":71,"x_max":621,"o":"m 608 115 q 528 44 564 70 q 448 4 492 18 q 353 -11 405 -11 q 142 73 213 -11 q 71 320 71 157 q 107 498 71 421 q 210 618 143 576 q 365 660 277 660 q 481 638 433 660 q 558 579 530 616 q 603 484 587 541 q 621 334 619 427 l 194 334 l 194 322 q 212 188 194 242 q 271 102 230 133 q 378 71 312 71 q 478 92 433 71 q 566 159 522 113 l 608 115 m 494 391 q 475 510 490 464 q 433 582 461 557 q 358 606 404 606 q 247 550 288 606 q 197 391 205 494 l 494 391 m 522 978 l 522 944 l 307 726 l 262 761 l 403 978 l 522 978 z "},"ê":{"ha":677,"x_min":71,"x_max":621,"o":"m 608 115 q 528 44 564 70 q 448 4 492 18 q 353 -11 405 -11 q 142 73 213 -11 q 71 320 71 157 q 107 498 71 421 q 210 618 143 576 q 365 660 277 660 q 481 638 433 660 q 558 579 530 616 q 603 484 587 541 q 621 334 619 427 l 194 334 l 194 322 q 212 188 194 242 q 271 102 230 133 q 378 71 312 71 q 478 92 433 71 q 566 159 522 113 l 608 115 m 494 391 q 475 510 490 464 q 433 582 461 557 q 358 606 404 606 q 247 550 288 606 q 197 391 205 494 l 494 391 m 399 978 l 544 764 l 497 726 l 353 890 l 346 890 l 202 726 l 156 764 l 308 978 l 399 978 z "},"ě":{"ha":677,"x_min":71,"x_max":621,"o":"m 608 115 q 528 44 564 70 q 448 4 492 18 q 353 -11 405 -11 q 142 73 213 -11 q 71 320 71 157 q 107 498 71 421 q 210 618 143 576 q 365 660 277 660 q 481 638 433 660 q 558 579 530 616 q 603 484 587 541 q 621 334 619 427 l 194 334 l 194 322 q 212 188 194 242 q 271 102 230 133 q 378 71 312 71 q 478 92 433 71 q 566 159 522 113 l 608 115 m 494 391 q 475 510 490 464 q 433 582 461 557 q 358 606 404 606 q 247 550 288 606 q 197 391 205 494 l 494 391 m 300 735 l 156 949 l 202 987 l 346 823 l 353 823 l 497 987 l 544 949 l 391 735 l 300 735 z "},"ë":{"ha":677,"x_min":71,"x_max":621,"o":"m 608 115 q 528 44 564 70 q 448 4 492 18 q 353 -11 405 -11 q 142 73 213 -11 q 71 320 71 157 q 107 498 71 421 q 210 618 143 576 q 365 660 277 660 q 481 638 433 660 q 558 579 530 616 q 603 484 587 541 q 621 334 619 427 l 194 334 l 194 322 q 212 188 194 242 q 271 102 230 133 q 378 71 312 71 q 478 92 433 71 q 566 159 522 113 l 608 115 m 494 391 q 475 510 490 464 q 433 582 461 557 q 358 606 404 606 q 247 550 288 606 q 197 391 205 494 l 494 391 m 522 908 l 522 789 l 408 789 l 408 908 l 522 908 m 292 908 l 292 789 l 178 789 l 178 908 l 292 908 z "},"ē":{"ha":677,"x_min":71,"x_max":621,"o":"m 608 115 q 528 44 564 70 q 448 4 492 18 q 353 -11 405 -11 q 142 73 213 -11 q 71 320 71 157 q 107 498 71 421 q 210 618 143 576 q 365 660 277 660 q 481 638 433 660 q 558 579 530 616 q 603 484 587 541 q 621 334 619 427 l 194 334 l 194 322 q 212 188 194 242 q 271 102 230 133 q 378 71 312 71 q 478 92 433 71 q 566 159 522 113 l 608 115 m 494 391 q 475 510 490 464 q 433 582 461 557 q 358 606 404 606 q 247 550 288 606 q 197 391 205 494 l 494 391 m 529 806 l 171 806 l 171 890 l 529 890 l 529 806 z "},"ĕ":{"ha":677,"x_min":71,"x_max":621,"o":"m 608 115 q 528 44 564 70 q 448 4 492 18 q 353 -11 405 -11 q 142 73 213 -11 q 71 320 71 157 q 107 498 71 421 q 210 618 143 576 q 365 660 277 660 q 481 638 433 660 q 558 579 530 616 q 603 484 587 541 q 621 334 619 427 l 194 334 l 194 322 q 212 188 194 242 q 271 102 230 133 q 378 71 312 71 q 478 92 433 71 q 566 159 522 113 l 608 115 m 494 391 q 475 510 490 464 q 433 582 461 557 q 358 606 404 606 q 247 550 288 606 q 197 391 205 494 l 494 391 m 555 941 q 486 802 537 849 q 345 755 435 755 q 212 802 260 755 q 145 941 163 848 l 197 957 q 236 887 214 912 q 283 852 257 862 q 347 843 309 843 q 413 853 385 843 q 464 888 441 863 q 503 957 486 913 l 555 941 z "},"ė":{"ha":677,"x_min":71,"x_max":621,"o":"m 608 115 q 528 44 564 70 q 448 4 492 18 q 353 -11 405 -11 q 142 73 213 -11 q 71 320 71 157 q 107 498 71 421 q 210 618 143 576 q 365 660 277 660 q 481 638 433 660 q 558 579 530 616 q 603 484 587 541 q 621 334 619 427 l 194 334 l 194 322 q 212 188 194 242 q 271 102 230 133 q 378 71 312 71 q 478 92 433 71 q 566 159 522 113 l 608 115 m 494 391 q 475 510 490 464 q 433 582 461 557 q 358 606 404 606 q 247 550 288 606 q 197 391 205 494 l 494 391 m 412 914 l 412 783 l 288 783 l 288 914 l 412 914 z "},"ę":{"ha":677,"x_min":71,"x_max":621,"o":"m 194 334 l 194 322 q 212 188 194 242 q 271 102 230 133 q 378 71 312 71 q 478 92 433 71 q 566 159 522 113 l 608 115 q 541 54 582 87 q 454 -52 481 -2 q 428 -151 428 -101 q 445 -211 428 -192 q 497 -231 461 -231 q 536 -224 519 -231 q 568 -208 553 -218 l 589 -254 q 534 -281 564 -271 q 468 -292 505 -292 q 417 -285 441 -292 q 375 -264 393 -279 q 346 -228 357 -250 q 334 -173 334 -205 q 359 -88 334 -130 q 435 -1 383 -46 l 435 1 q 353 -11 396 -11 q 142 73 213 -11 q 71 320 71 157 q 107 498 71 421 q 210 618 143 576 q 365 660 277 660 q 481 638 433 660 q 558 579 530 616 q 603 484 587 541 q 621 334 619 427 l 194 334 m 494 391 q 475 510 490 464 q 433 582 461 557 q 358 606 404 606 q 247 550 288 606 q 197 391 205 494 l 494 391 z "},"ĝ":{"ha":686,"x_min":43,"x_max":674,"o":"m 674 580 l 549 585 l 543 577 q 576 520 564 556 q 588 441 588 484 q 520 271 588 331 q 326 211 452 211 q 229 225 270 211 q 178 148 178 186 q 188 110 178 123 q 220 92 197 97 q 289 86 243 86 l 452 86 q 569 64 524 86 q 634 4 614 41 q 653 -84 653 -34 q 616 -198 653 -148 q 511 -275 580 -248 q 349 -303 441 -303 q 224 -295 281 -303 q 127 -268 168 -287 q 65 -217 87 -248 q 43 -138 43 -185 q 71 -60 43 -95 q 152 1 100 -25 q 102 39 120 14 q 83 98 83 64 q 105 169 83 137 q 182 243 127 201 q 107 320 133 271 q 82 431 82 369 q 101 533 82 490 q 155 604 121 576 q 236 646 189 632 q 337 660 283 660 q 434 648 386 660 l 674 648 l 674 580 m 203 442 q 238 311 203 357 q 338 265 273 265 q 397 278 372 265 q 436 315 421 292 q 459 368 452 338 q 466 431 466 398 q 449 531 466 491 q 403 590 432 571 q 336 608 374 608 q 237 566 271 608 q 203 442 203 523 m 220 -11 q 169 -65 186 -37 q 151 -131 151 -94 q 200 -221 151 -192 q 348 -250 248 -250 q 453 -233 409 -250 q 519 -186 496 -217 q 543 -115 543 -156 q 538 -78 543 -96 q 520 -46 533 -60 q 482 -23 507 -32 q 418 -15 458 -15 l 317 -15 q 220 -11 262 -15 m 392 978 l 537 764 l 490 726 l 347 890 l 339 890 l 195 726 l 149 764 l 301 978 l 392 978 z "},"ğ":{"ha":686,"x_min":43,"x_max":674,"o":"m 674 580 l 549 585 l 543 577 q 576 520 564 556 q 588 441 588 484 q 520 271 588 331 q 326 211 452 211 q 229 225 270 211 q 178 148 178 186 q 188 110 178 123 q 220 92 197 97 q 289 86 243 86 l 452 86 q 569 64 524 86 q 634 4 614 41 q 653 -84 653 -34 q 616 -198 653 -148 q 511 -275 580 -248 q 349 -303 441 -303 q 224 -295 281 -303 q 127 -268 168 -287 q 65 -217 87 -248 q 43 -138 43 -185 q 71 -60 43 -95 q 152 1 100 -25 q 102 39 120 14 q 83 98 83 64 q 105 169 83 137 q 182 243 127 201 q 107 320 133 271 q 82 431 82 369 q 101 533 82 490 q 155 604 121 576 q 236 646 189 632 q 337 660 283 660 q 434 648 386 660 l 674 648 l 674 580 m 203 442 q 238 311 203 357 q 338 265 273 265 q 397 278 372 265 q 436 315 421 292 q 459 368 452 338 q 466 431 466 398 q 449 531 466 491 q 403 590 432 571 q 336 608 374 608 q 237 566 271 608 q 203 442 203 523 m 220 -11 q 169 -65 186 -37 q 151 -131 151 -94 q 200 -221 151 -192 q 348 -250 248 -250 q 453 -233 409 -250 q 519 -186 496 -217 q 543 -115 543 -156 q 538 -78 543 -96 q 520 -46 533 -60 q 482 -23 507 -32 q 418 -15 458 -15 l 317 -15 q 220 -11 262 -15 m 548 941 q 479 802 530 849 q 338 755 428 755 q 205 802 254 755 q 138 941 156 848 l 191 957 q 229 887 208 912 q 276 852 250 862 q 340 843 302 843 q 406 853 378 843 q 457 888 434 863 q 496 957 479 913 l 548 941 z "},"ġ":{"ha":686,"x_min":43,"x_max":674,"o":"m 674 580 l 549 585 l 543 577 q 576 520 564 556 q 588 441 588 484 q 520 271 588 331 q 326 211 452 211 q 229 225 270 211 q 178 148 178 186 q 188 110 178 123 q 220 92 197 97 q 289 86 243 86 l 452 86 q 569 64 524 86 q 634 4 614 41 q 653 -84 653 -34 q 616 -198 653 -148 q 511 -275 580 -248 q 349 -303 441 -303 q 224 -295 281 -303 q 127 -268 168 -287 q 65 -217 87 -248 q 43 -138 43 -185 q 71 -60 43 -95 q 152 1 100 -25 q 102 39 120 14 q 83 98 83 64 q 105 169 83 137 q 182 243 127 201 q 107 320 133 271 q 82 431 82 369 q 101 533 82 490 q 155 604 121 576 q 236 646 189 632 q 337 660 283 660 q 434 648 386 660 l 674 648 l 674 580 m 203 442 q 238 311 203 357 q 338 265 273 265 q 397 278 372 265 q 436 315 421 292 q 459 368 452 338 q 466 431 466 398 q 449 531 466 491 q 403 590 432 571 q 336 608 374 608 q 237 566 271 608 q 203 442 203 523 m 220 -11 q 169 -65 186 -37 q 151 -131 151 -94 q 200 -221 151 -192 q 348 -250 248 -250 q 453 -233 409 -250 q 519 -186 496 -217 q 543 -115 543 -156 q 538 -78 543 -96 q 520 -46 533 -60 q 482 -23 507 -32 q 418 -15 458 -15 l 317 -15 q 220 -11 262 -15 m 406 914 l 406 783 l 281 783 l 281 914 l 406 914 z "},"ģ":{"ha":686,"x_min":43,"x_max":674,"o":"m 674 580 l 549 585 l 543 577 q 576 520 564 556 q 588 441 588 484 q 520 271 588 331 q 326 211 452 211 q 229 225 270 211 q 178 148 178 186 q 188 110 178 123 q 220 92 197 97 q 289 86 243 86 l 452 86 q 569 64 524 86 q 634 4 614 41 q 653 -84 653 -34 q 616 -198 653 -148 q 511 -275 580 -248 q 349 -303 441 -303 q 224 -295 281 -303 q 127 -268 168 -287 q 65 -217 87 -248 q 43 -138 43 -185 q 71 -60 43 -95 q 152 1 100 -25 q 102 39 120 14 q 83 98 83 64 q 105 169 83 137 q 182 243 127 201 q 107 320 133 271 q 82 431 82 369 q 101 533 82 490 q 155 604 121 576 q 236 646 189 632 q 337 660 283 660 q 434 648 386 660 l 674 648 l 674 580 m 203 442 q 238 311 203 357 q 338 265 273 265 q 397 278 372 265 q 436 315 421 292 q 459 368 452 338 q 466 431 466 398 q 449 531 466 491 q 403 590 432 571 q 336 608 374 608 q 237 566 271 608 q 203 442 203 523 m 220 -11 q 169 -65 186 -37 q 151 -131 151 -94 q 200 -221 151 -192 q 348 -250 248 -250 q 453 -233 409 -250 q 519 -186 496 -217 q 543 -115 543 -156 q 538 -78 543 -96 q 520 -46 533 -60 q 482 -23 507 -32 q 418 -15 458 -15 l 317 -15 q 220 -11 262 -15 m 293 739 q 277 820 277 780 q 291 884 277 855 q 333 943 304 913 q 425 1021 362 972 l 458 983 q 411 926 424 947 q 393 885 397 906 q 388 833 388 864 q 389 801 388 817 q 396 755 391 784 l 293 739 z "},"ĥ":{"ha":766,"x_min":43,"x_max":718,"o":"m 248 542 l 250 541 q 334 616 303 595 q 395 648 365 637 q 460 659 425 659 q 526 650 497 659 q 577 624 555 642 q 613 579 600 606 q 634 517 627 553 q 641 425 641 481 l 641 170 q 646 89 641 111 q 664 56 651 68 q 718 33 677 44 l 718 0 l 450 0 l 450 33 q 488 47 477 41 q 508 64 500 54 q 520 98 515 75 q 524 167 524 121 l 524 345 q 515 483 524 435 q 479 554 506 530 q 404 578 452 578 q 355 568 377 578 q 305 534 334 559 q 262 484 277 510 q 248 429 248 458 l 248 170 q 250 104 248 123 q 259 71 252 84 q 280 49 266 58 q 323 33 294 41 l 323 0 l 54 0 l 54 33 q 97 49 84 41 q 117 68 110 56 q 127 101 124 79 q 131 170 131 123 l 131 737 q 130 828 131 802 q 124 872 129 854 q 112 900 120 890 q 91 916 104 910 q 43 928 78 922 l 43 964 l 207 970 l 248 970 l 248 542 m 432 1217 l 587 1045 l 548 1006 l 387 1131 l 379 1131 l 216 1006 l 178 1045 l 341 1217 l 432 1217 z "},"ħ":{"ha":766,"x_min":35,"x_max":718,"o":"m 35 826 l 131 826 q 124 873 129 855 q 110 903 120 892 q 84 919 100 913 q 43 928 68 924 l 43 964 l 207 970 l 248 970 l 248 826 l 479 826 l 479 766 l 248 766 l 248 542 l 250 541 q 334 616 303 595 q 395 648 365 637 q 460 659 425 659 q 526 650 497 659 q 577 624 555 642 q 613 579 600 606 q 634 517 627 553 q 641 425 641 481 l 641 170 q 646 89 641 111 q 664 56 651 68 q 718 33 677 44 l 718 0 l 450 0 l 450 33 q 488 47 477 41 q 508 64 500 54 q 520 98 515 75 q 524 167 524 121 l 524 345 q 515 483 524 435 q 479 554 506 530 q 404 578 452 578 q 355 568 377 578 q 305 534 334 559 q 262 484 277 510 q 248 429 248 458 l 248 170 q 250 104 248 123 q 259 71 252 84 q 280 49 266 58 q 323 33 294 41 l 323 0 l 54 0 l 54 33 q 97 49 84 41 q 117 68 110 56 q 127 101 124 79 q 131 170 131 123 l 131 766 l 35 766 l 35 826 z "},"ì":{"ha":386,"x_min":24,"x_max":332,"o":"m 66 33 q 103 47 92 41 q 122 64 115 54 q 135 98 130 75 q 139 168 139 120 l 139 463 q 138 533 139 507 q 128 575 136 559 q 103 599 120 591 q 56 612 87 607 l 56 648 l 214 654 l 256 654 l 256 170 q 261 89 256 111 q 282 54 267 66 q 332 33 297 42 l 332 0 l 66 0 l 66 33 m 142 978 l 283 761 l 238 726 l 24 944 l 24 978 l 142 978 z "},"í":{"ha":386,"x_min":56,"x_max":369,"o":"m 66 33 q 103 47 92 41 q 122 64 115 54 q 135 98 130 75 q 139 168 139 120 l 139 463 q 138 533 139 507 q 128 575 136 559 q 103 599 120 591 q 56 612 87 607 l 56 648 l 214 654 l 256 654 l 256 170 q 261 89 256 111 q 282 54 267 66 q 332 33 297 42 l 332 0 l 66 0 l 66 33 m 369 978 l 369 944 l 154 726 l 110 761 l 250 978 l 369 978 z "},"î":{"ha":386,"x_min":-1,"x_max":387,"o":"m 66 33 q 103 47 92 41 q 122 64 115 54 q 135 98 130 75 q 139 168 139 120 l 139 463 q 138 533 139 507 q 128 575 136 559 q 103 599 120 591 q 56 612 87 607 l 56 648 l 214 654 l 256 654 l 256 170 q 261 89 256 111 q 282 54 267 66 q 332 33 297 42 l 332 0 l 66 0 l 66 33 m 241 978 l 387 764 l 340 726 l 196 890 l 189 890 l 45 726 l -1 764 l 151 978 l 241 978 z "},"ĩ":{"ha":386,"x_min":-31,"x_max":418,"o":"m 66 33 q 103 47 92 41 q 122 64 115 54 q 135 98 130 75 q 139 168 139 120 l 139 463 q 138 533 139 507 q 128 575 136 559 q 103 599 120 591 q 56 612 87 607 l 56 648 l 214 654 l 256 654 l 256 170 q 261 89 256 111 q 282 54 267 66 q 332 33 297 42 l 332 0 l 66 0 l 66 33 m 366 926 l 418 903 q 369 818 393 848 q 325 776 346 787 q 276 765 303 765 q 244 769 258 765 q 217 780 231 772 q 176 806 204 787 q 148 825 158 818 q 125 836 137 831 q 101 840 114 840 q 72 833 83 840 q 47 810 60 827 q 22 765 35 793 l -31 788 q 22 879 2 853 q 64 915 43 904 q 115 926 85 926 q 145 923 132 926 q 169 913 158 919 q 208 888 180 907 q 239 867 227 875 q 262 856 250 860 q 290 851 275 851 q 329 868 312 851 q 366 926 346 884 z "},"ï":{"ha":386,"x_min":21,"x_max":364,"o":"m 66 33 q 103 47 92 41 q 122 64 115 54 q 135 98 130 75 q 139 168 139 120 l 139 463 q 138 533 139 507 q 128 575 136 559 q 103 599 120 591 q 56 612 87 607 l 56 648 l 214 654 l 256 654 l 256 170 q 261 89 256 111 q 282 54 267 66 q 332 33 297 42 l 332 0 l 66 0 l 66 33 m 364 908 l 364 789 l 251 789 l 251 908 l 364 908 m 134 908 l 134 789 l 21 789 l 21 908 l 134 908 z "},"ī":{"ha":386,"x_min":14,"x_max":372,"o":"m 66 33 q 103 47 92 41 q 122 64 115 54 q 135 98 130 75 q 139 168 139 120 l 139 463 q 138 533 139 507 q 128 575 136 559 q 103 599 120 591 q 56 612 87 607 l 56 648 l 214 654 l 256 654 l 256 170 q 261 89 256 111 q 282 54 267 66 q 332 33 297 42 l 332 0 l 66 0 l 66 33 m 372 806 l 14 806 l 14 890 l 372 890 l 372 806 z "},"ĭ":{"ha":386,"x_min":-11,"x_max":399,"o":"m 66 33 q 103 47 92 41 q 122 64 115 54 q 135 98 130 75 q 139 168 139 120 l 139 463 q 138 533 139 507 q 128 575 136 559 q 103 599 120 591 q 56 612 87 607 l 56 648 l 214 654 l 256 654 l 256 170 q 261 89 256 111 q 282 54 267 66 q 332 33 297 42 l 332 0 l 66 0 l 66 33 m 399 941 q 330 802 381 849 q 189 755 279 755 q 56 802 104 755 q -11 941 7 848 l 41 957 q 80 887 58 912 q 127 852 101 862 q 191 843 153 843 q 257 853 229 843 q 308 888 285 863 q 347 957 330 913 l 399 941 z "},"į":{"ha":386,"x_min":56,"x_max":355,"o":"m 260 914 l 260 783 l 135 783 l 135 914 l 260 914 m 66 33 q 103 47 92 41 q 122 64 115 54 q 135 98 130 75 q 139 168 139 120 l 139 463 q 138 533 139 507 q 128 575 136 559 q 103 599 120 591 q 56 612 87 607 l 56 648 l 214 654 l 256 654 l 256 170 q 261 89 256 111 q 282 54 267 66 q 332 33 297 42 l 332 0 l 278 0 q 194 -156 194 -77 q 211 -212 194 -194 q 263 -231 229 -231 q 302 -224 286 -231 q 334 -208 319 -218 l 355 -254 q 300 -281 330 -271 q 234 -292 271 -292 q 183 -285 208 -292 q 141 -264 159 -279 q 112 -228 123 -250 q 100 -173 100 -205 q 132 -83 100 -127 q 219 0 163 -38 l 66 0 l 66 33 z "},"ı":{"ha":386,"x_min":56,"x_max":332,"o":"m 66 33 q 103 47 92 41 q 122 64 115 54 q 135 98 130 75 q 139 168 139 120 l 139 463 q 138 533 139 507 q 128 575 136 559 q 103 599 120 591 q 56 612 87 607 l 56 648 l 214 654 l 256 654 l 256 170 q 261 89 256 111 q 282 54 267 66 q 332 33 297 42 l 332 0 l 66 0 l 66 33 z "},"ĳ":{"ha":755,"x_min":56,"x_max":639,"o":"m 260 914 l 260 783 l 135 783 l 135 914 l 260 914 m 639 914 l 639 783 l 515 783 l 515 914 l 639 914 m 66 33 q 103 47 92 41 q 122 64 115 54 q 135 98 130 75 q 139 168 139 120 l 139 463 q 138 533 139 507 q 128 575 136 559 q 103 599 120 591 q 56 612 87 607 l 56 648 l 214 654 l 256 654 l 256 170 q 261 89 256 111 q 282 54 267 66 q 332 33 297 42 l 332 0 l 66 0 l 66 33 m 635 13 q 616 -139 635 -82 q 548 -236 596 -196 q 412 -300 499 -275 l 389 -241 q 473 -195 447 -218 q 509 -135 498 -172 q 519 -41 519 -99 l 519 463 q 517 539 519 516 q 508 575 515 562 q 487 597 501 589 q 435 612 473 605 l 435 648 l 594 654 l 635 654 l 635 13 z "},"ĵ":{"ha":370,"x_min":-9,"x_max":378,"o":"m 233 978 l 378 764 l 332 726 l 188 886 l 180 886 l 37 726 l -9 764 l 142 978 l 233 978 m 250 13 q 230 -139 250 -82 q 162 -236 210 -196 q 26 -300 113 -275 l 3 -241 q 67 -210 45 -224 q 104 -176 90 -195 q 125 -124 118 -157 q 133 -41 133 -92 l 133 463 q 131 539 133 516 q 122 575 129 562 q 101 597 115 589 q 50 612 87 605 l 50 648 l 208 654 l 250 654 l 250 13 z "},"ķ":{"ha":728,"x_min":43,"x_max":735,"o":"m 247 378 l 269 378 q 305 382 291 378 q 342 403 322 389 q 400 452 363 418 q 447 502 431 481 q 469 539 463 522 q 475 568 475 553 q 462 600 475 588 q 421 615 450 611 l 421 648 l 713 648 l 713 615 q 647 587 682 609 q 574 530 612 566 l 418 382 l 614 127 q 675 61 648 83 q 735 33 703 40 l 735 0 l 475 0 l 475 33 q 501 41 492 35 q 509 60 509 47 q 506 80 509 71 q 490 107 502 90 q 448 166 479 124 l 368 275 q 335 315 345 305 q 314 328 325 324 q 285 332 303 332 l 247 332 l 247 170 q 252 89 247 111 q 273 54 258 66 q 323 33 288 42 l 323 0 l 54 0 l 54 33 q 101 52 87 42 q 120 74 114 61 q 128 110 125 87 q 130 170 130 133 l 130 737 q 129 828 130 802 q 124 872 128 854 q 112 900 119 890 q 91 916 104 910 q 43 928 77 922 l 43 964 l 206 970 l 247 970 l 247 378 m 446 -67 q 454 -132 454 -95 q 399 -243 454 -201 q 241 -292 345 -285 l 232 -241 q 300 -223 275 -235 q 336 -190 324 -211 q 349 -132 349 -168 q 342 -67 349 -97 l 446 -67 z "},"ĸ":{"ha":737,"x_min":56,"x_max":744,"o":"m 256 378 l 277 378 q 314 382 300 378 q 351 403 331 389 q 409 452 372 418 q 456 502 440 481 q 478 539 472 522 q 484 568 484 553 q 471 600 484 588 q 430 615 458 611 l 430 648 l 722 648 l 722 615 q 656 587 691 609 q 583 530 621 566 l 427 382 l 623 127 q 684 61 656 83 q 744 33 711 40 l 744 0 l 484 0 l 484 33 q 510 41 501 35 q 518 60 518 47 q 513 82 518 71 q 499 107 509 94 q 457 166 490 121 l 376 275 q 343 315 353 305 q 323 328 334 324 q 294 332 312 332 l 256 332 l 256 170 q 261 89 256 111 q 282 54 267 66 q 332 33 297 42 l 332 0 l 62 0 l 62 33 q 105 49 92 41 q 125 68 118 56 q 136 101 132 79 q 139 170 139 123 l 139 448 q 138 530 139 507 q 132 567 136 553 q 120 588 127 581 q 102 600 113 595 q 56 612 90 605 l 56 648 l 215 654 l 256 654 l 256 378 z "},"ĺ":{"ha":377,"x_min":43,"x_max":365,"o":"m 247 170 q 252 89 247 111 q 273 54 258 66 q 323 33 288 42 l 323 0 l 54 0 l 54 33 q 101 52 87 42 q 120 74 114 61 q 128 110 125 87 q 130 170 130 133 l 130 737 q 129 828 130 802 q 124 872 128 854 q 112 900 119 890 q 91 916 104 910 q 43 928 77 922 l 43 964 l 206 970 l 247 970 l 247 170 m 365 1219 l 365 1185 l 106 1006 l 68 1044 l 231 1219 l 365 1219 z "},"ľ":{"ha":534,"x_min":43,"x_max":500,"o":"m 247 170 q 252 89 247 111 q 273 54 258 66 q 323 33 288 42 l 323 0 l 54 0 l 54 33 q 101 52 87 42 q 120 74 114 61 q 128 110 125 87 q 130 170 130 133 l 130 737 q 129 828 130 802 q 124 872 128 854 q 112 900 119 890 q 91 916 104 910 q 43 928 77 922 l 43 964 l 206 970 l 247 970 l 247 170 m 485 970 q 500 883 500 926 q 489 813 500 844 q 451 751 477 783 q 369 669 425 720 l 332 705 q 376 782 363 745 q 389 869 389 819 q 388 909 389 890 q 378 970 386 928 l 485 970 z "},"ļ":{"ha":377,"x_min":39,"x_max":323,"o":"m 247 170 q 252 89 247 111 q 273 54 258 66 q 323 33 288 42 l 323 0 l 54 0 l 54 33 q 101 52 87 42 q 120 74 114 61 q 128 110 125 87 q 130 170 130 133 l 130 737 q 129 828 130 802 q 124 872 128 854 q 112 900 119 890 q 91 916 104 910 q 43 928 77 922 l 43 964 l 206 970 l 247 970 l 247 170 m 252 -67 q 261 -132 261 -95 q 206 -243 261 -201 q 47 -292 151 -285 l 39 -241 q 106 -223 82 -235 q 143 -190 131 -211 q 155 -132 155 -168 q 149 -67 155 -97 l 252 -67 z "},"ł":{"ha":429,"x_min":9,"x_max":420,"o":"m 156 439 l 43 363 l 9 419 l 156 513 l 156 737 q 155 828 156 802 q 150 872 154 854 q 137 900 145 890 q 116 916 130 910 q 68 928 103 922 l 68 964 l 232 970 l 273 970 l 273 578 l 385 655 l 420 600 l 273 506 l 273 170 q 278 89 273 111 q 299 54 283 66 q 349 33 314 42 l 349 0 l 79 0 l 79 33 q 122 49 109 41 q 142 68 135 56 q 153 101 149 79 q 156 170 156 123 l 156 439 z "},"ŀ":{"ha":522,"x_min":43,"x_max":505,"o":"m 247 170 q 252 89 247 111 q 273 54 258 66 q 323 33 288 42 l 323 0 l 54 0 l 54 33 q 101 52 87 42 q 120 74 114 61 q 128 110 125 87 q 130 170 130 133 l 130 737 q 129 828 130 802 q 124 872 128 854 q 112 900 119 890 q 91 916 104 910 q 43 928 77 922 l 43 964 l 206 970 l 247 970 l 247 170 m 505 538 l 505 406 l 380 406 l 380 538 l 505 538 z "},"ń":{"ha":775,"x_min":56,"x_max":726,"o":"m 726 0 l 459 0 l 459 33 q 497 47 486 41 q 516 64 509 54 q 529 98 524 75 q 533 167 533 121 l 533 345 q 530 431 533 392 q 521 494 528 469 q 506 533 515 519 q 484 556 496 547 q 455 572 471 566 q 412 578 439 578 q 362 567 386 578 q 310 531 338 557 q 269 480 281 505 q 256 422 256 455 l 256 170 q 261 89 256 111 q 282 54 267 66 q 332 33 297 42 l 332 0 l 66 0 l 66 33 q 103 47 92 41 q 122 64 115 54 q 135 98 130 75 q 139 168 139 120 l 139 463 q 138 533 139 507 q 128 575 136 559 q 103 599 120 591 q 56 612 87 607 l 56 648 l 215 654 l 256 654 l 249 544 l 258 541 q 339 614 309 592 q 402 647 370 635 q 469 659 433 659 q 534 651 505 659 q 585 625 563 642 q 621 581 607 607 q 643 518 635 555 q 650 425 650 481 l 650 170 q 652 102 650 123 q 662 69 655 81 q 682 50 669 58 q 726 33 694 42 l 726 0 m 559 978 l 559 944 l 344 726 l 300 761 l 440 978 l 559 978 z "},"ň":{"ha":775,"x_min":56,"x_max":726,"o":"m 726 0 l 459 0 l 459 33 q 497 47 486 41 q 516 64 509 54 q 529 98 524 75 q 533 167 533 121 l 533 345 q 530 431 533 392 q 521 494 528 469 q 506 533 515 519 q 484 556 496 547 q 455 572 471 566 q 412 578 439 578 q 362 567 386 578 q 310 531 338 557 q 269 480 281 505 q 256 422 256 455 l 256 170 q 261 89 256 111 q 282 54 267 66 q 332 33 297 42 l 332 0 l 66 0 l 66 33 q 103 47 92 41 q 122 64 115 54 q 135 98 130 75 q 139 168 139 120 l 139 463 q 138 533 139 507 q 128 575 136 559 q 103 599 120 591 q 56 612 87 607 l 56 648 l 215 654 l 256 654 l 249 544 l 258 541 q 339 614 309 592 q 402 647 370 635 q 469 659 433 659 q 534 651 505 659 q 585 625 563 642 q 621 581 607 607 q 643 518 635 555 q 650 425 650 481 l 650 170 q 652 102 650 123 q 662 69 655 81 q 682 50 669 58 q 726 33 694 42 l 726 0 m 338 735 l 194 949 l 240 987 l 384 823 l 391 823 l 535 987 l 582 949 l 429 735 l 338 735 z "},"ñ":{"ha":775,"x_min":56,"x_max":726,"o":"m 726 0 l 459 0 l 459 33 q 497 47 486 41 q 516 64 509 54 q 529 98 524 75 q 533 167 533 121 l 533 345 q 530 431 533 392 q 521 494 528 469 q 506 533 515 519 q 484 556 496 547 q 455 572 471 566 q 412 578 439 578 q 362 567 386 578 q 310 531 338 557 q 269 480 281 505 q 256 422 256 455 l 256 170 q 261 89 256 111 q 282 54 267 66 q 332 33 297 42 l 332 0 l 66 0 l 66 33 q 103 47 92 41 q 122 64 115 54 q 135 98 130 75 q 139 168 139 120 l 139 463 q 138 533 139 507 q 128 575 136 559 q 103 599 120 591 q 56 612 87 607 l 56 648 l 215 654 l 256 654 l 249 544 l 258 541 q 339 614 309 592 q 402 647 370 635 q 469 659 433 659 q 534 651 505 659 q 585 625 563 642 q 621 581 607 607 q 643 518 635 555 q 650 425 650 481 l 650 170 q 652 102 650 123 q 662 69 655 81 q 682 50 669 58 q 726 33 694 42 l 726 0 m 560 926 l 613 903 q 564 818 587 848 q 519 776 541 787 q 471 765 498 765 q 439 769 452 765 q 412 780 425 772 q 371 806 399 787 q 342 825 353 818 q 320 836 332 831 q 296 840 309 840 q 266 833 278 840 q 242 810 254 827 q 217 765 230 793 l 164 788 q 217 879 197 853 q 259 915 237 904 q 310 926 280 926 q 339 923 326 926 q 364 913 353 919 q 402 888 375 907 q 433 867 422 875 q 457 856 445 860 q 485 851 469 851 q 524 868 507 851 q 560 926 541 884 z "},"ņ":{"ha":775,"x_min":56,"x_max":726,"o":"m 726 0 l 459 0 l 459 33 q 497 47 486 41 q 516 64 509 54 q 529 98 524 75 q 533 167 533 121 l 533 345 q 530 431 533 392 q 521 494 528 469 q 506 533 515 519 q 484 556 496 547 q 455 572 471 566 q 412 578 439 578 q 362 567 386 578 q 310 531 338 557 q 269 480 281 505 q 256 422 256 455 l 256 170 q 261 89 256 111 q 282 54 267 66 q 332 33 297 42 l 332 0 l 66 0 l 66 33 q 103 47 92 41 q 122 64 115 54 q 135 98 130 75 q 139 168 139 120 l 139 463 q 138 533 139 507 q 128 575 136 559 q 103 599 120 591 q 56 612 87 607 l 56 648 l 215 654 l 256 654 l 249 544 l 258 541 q 339 614 309 592 q 402 647 370 635 q 469 659 433 659 q 534 651 505 659 q 585 625 563 642 q 621 581 607 607 q 643 518 635 555 q 650 425 650 481 l 650 170 q 652 102 650 123 q 662 69 655 81 q 682 50 669 58 q 726 33 694 42 l 726 0 m 452 -67 q 460 -132 460 -95 q 406 -243 460 -201 q 247 -292 351 -285 l 238 -241 q 306 -223 281 -235 q 342 -190 330 -211 q 355 -132 355 -168 q 349 -67 355 -97 l 452 -67 z "},"ŉ":{"ha":958,"x_min":48,"x_max":909,"o":"m 909 0 l 642 0 l 642 33 q 680 47 669 41 q 700 64 692 54 q 712 98 707 75 q 716 167 716 121 l 716 345 q 713 431 716 392 q 704 494 711 469 q 689 533 698 519 q 667 556 680 547 q 638 572 654 566 q 595 578 622 578 q 545 567 569 578 q 493 531 522 557 q 452 480 465 505 q 439 422 439 455 l 439 170 q 444 89 439 111 q 465 54 450 66 q 515 33 480 42 l 515 0 l 249 0 l 249 33 q 287 47 275 41 q 306 64 298 54 q 318 98 313 75 q 322 168 322 120 l 322 463 q 321 533 322 507 q 311 575 319 559 q 287 599 303 591 q 239 612 270 607 l 239 648 l 398 654 l 439 654 l 432 544 l 441 541 q 523 614 492 592 q 585 647 553 635 q 652 659 616 659 q 717 651 688 659 q 768 625 746 642 q 804 581 790 607 q 826 518 819 555 q 833 425 833 481 l 833 170 q 836 102 833 123 q 845 69 838 81 q 865 50 852 58 q 909 33 878 42 l 909 0 m 219 970 q 232 922 227 948 q 236 873 236 895 q 222 794 236 829 q 179 724 209 760 q 90 635 150 688 l 48 676 q 97 757 81 716 q 113 857 113 798 q 111 901 113 878 q 100 970 109 924 l 219 970 z "},"ò":{"ha":737,"x_min":71,"x_max":666,"o":"m 361 -11 q 145 72 220 -11 q 71 318 71 155 q 110 507 71 430 q 217 622 149 585 q 372 660 285 660 q 591 575 517 660 q 666 333 666 491 q 629 143 666 220 q 523 27 591 66 q 361 -11 454 -11 m 199 332 q 244 118 199 193 q 371 43 288 43 q 448 65 416 43 q 500 124 480 87 q 529 211 520 161 q 538 313 538 260 q 516 479 538 413 q 456 575 494 545 q 369 606 418 606 q 243 535 287 606 q 199 332 199 464 m 316 978 l 456 761 l 412 726 l 197 944 l 197 978 l 316 978 z "},"ó":{"ha":737,"x_min":71,"x_max":666,"o":"m 361 -11 q 145 72 220 -11 q 71 318 71 155 q 110 507 71 430 q 217 622 149 585 q 372 660 285 660 q 591 575 517 660 q 666 333 666 491 q 629 143 666 220 q 523 27 591 66 q 361 -11 454 -11 m 199 332 q 244 118 199 193 q 371 43 288 43 q 448 65 416 43 q 500 124 480 87 q 529 211 520 161 q 538 313 538 260 q 516 479 538 413 q 456 575 494 545 q 369 606 418 606 q 243 535 287 606 q 199 332 199 464 m 540 978 l 540 944 l 325 726 l 281 761 l 421 978 l 540 978 z "},"ô":{"ha":737,"x_min":71,"x_max":666,"o":"m 361 -11 q 145 72 220 -11 q 71 318 71 155 q 110 507 71 430 q 217 622 149 585 q 372 660 285 660 q 591 575 517 660 q 666 333 666 491 q 629 143 666 220 q 523 27 591 66 q 361 -11 454 -11 m 199 332 q 244 118 199 193 q 371 43 288 43 q 448 65 416 43 q 500 124 480 87 q 529 211 520 161 q 538 313 538 260 q 516 479 538 413 q 456 575 494 545 q 369 606 418 606 q 243 535 287 606 q 199 332 199 464 m 418 978 l 563 764 l 516 726 l 372 890 l 365 890 l 221 726 l 175 764 l 327 978 l 418 978 z "},"õ":{"ha":737,"x_min":71,"x_max":666,"o":"m 361 -11 q 145 72 220 -11 q 71 318 71 155 q 110 507 71 430 q 217 622 149 585 q 372 660 285 660 q 591 575 517 660 q 666 333 666 491 q 629 143 666 220 q 523 27 591 66 q 361 -11 454 -11 m 199 332 q 244 118 199 193 q 371 43 288 43 q 448 65 416 43 q 500 124 480 87 q 529 211 520 161 q 538 313 538 260 q 516 479 538 413 q 456 575 494 545 q 369 606 418 606 q 243 535 287 606 q 199 332 199 464 m 541 926 l 594 903 q 545 818 568 848 q 500 776 522 787 q 452 765 479 765 q 420 769 433 765 q 393 780 406 772 q 352 806 380 787 q 323 825 334 818 q 301 836 313 831 q 277 840 290 840 q 247 833 259 840 q 223 810 235 827 q 198 765 211 793 l 145 788 q 198 879 178 853 q 240 915 218 904 q 291 926 261 926 q 320 923 307 926 q 345 913 334 919 q 383 888 356 907 q 414 867 403 875 q 438 856 426 860 q 466 851 450 851 q 505 868 488 851 q 541 926 522 884 z "},"ö":{"ha":737,"x_min":71,"x_max":666,"o":"m 361 -11 q 145 72 220 -11 q 71 318 71 155 q 110 507 71 430 q 217 622 149 585 q 372 660 285 660 q 591 575 517 660 q 666 333 666 491 q 629 143 666 220 q 523 27 591 66 q 361 -11 454 -11 m 199 332 q 244 118 199 193 q 371 43 288 43 q 448 65 416 43 q 500 124 480 87 q 529 211 520 161 q 538 313 538 260 q 516 479 538 413 q 456 575 494 545 q 369 606 418 606 q 243 535 287 606 q 199 332 199 464 m 541 908 l 541 789 l 427 789 l 427 908 l 541 908 m 311 908 l 311 789 l 197 789 l 197 908 l 311 908 z "},"ō":{"ha":737,"x_min":71,"x_max":666,"o":"m 361 -11 q 145 72 220 -11 q 71 318 71 155 q 110 507 71 430 q 217 622 149 585 q 372 660 285 660 q 591 575 517 660 q 666 333 666 491 q 629 143 666 220 q 523 27 591 66 q 361 -11 454 -11 m 199 332 q 244 118 199 193 q 371 43 288 43 q 448 65 416 43 q 500 124 480 87 q 529 211 520 161 q 538 313 538 260 q 516 479 538 413 q 456 575 494 545 q 369 606 418 606 q 243 535 287 606 q 199 332 199 464 m 548 806 l 190 806 l 190 890 l 548 890 l 548 806 z "},"ŏ":{"ha":737,"x_min":71,"x_max":666,"o":"m 361 -11 q 145 72 220 -11 q 71 318 71 155 q 110 507 71 430 q 217 622 149 585 q 372 660 285 660 q 591 575 517 660 q 666 333 666 491 q 629 143 666 220 q 523 27 591 66 q 361 -11 454 -11 m 199 332 q 244 118 199 193 q 371 43 288 43 q 448 65 416 43 q 500 124 480 87 q 529 211 520 161 q 538 313 538 260 q 516 479 538 413 q 456 575 494 545 q 369 606 418 606 q 243 535 287 606 q 199 332 199 464 m 574 941 q 505 802 556 849 q 363 755 454 755 q 231 802 279 755 q 164 941 182 848 l 216 957 q 255 887 233 912 q 302 852 276 862 q 366 843 328 843 q 432 853 404 843 q 483 888 460 863 q 522 957 505 913 l 574 941 z "},"ő":{"ha":737,"x_min":71,"x_max":666,"o":"m 361 -11 q 145 72 220 -11 q 71 318 71 155 q 110 507 71 430 q 217 622 149 585 q 372 660 285 660 q 591 575 517 660 q 666 333 666 491 q 629 143 666 220 q 523 27 591 66 q 361 -11 454 -11 m 199 332 q 244 118 199 193 q 371 43 288 43 q 448 65 416 43 q 500 124 480 87 q 529 211 520 161 q 538 313 538 260 q 516 479 538 413 q 456 575 494 545 q 369 606 418 606 q 243 535 287 606 q 199 332 199 464 m 637 978 l 637 944 l 435 726 l 391 761 l 544 978 l 637 978 m 431 978 l 431 944 l 229 726 l 184 761 l 338 978 l 431 978 z "},"ø":{"ha":737,"x_min":62,"x_max":675,"o":"m 517 630 l 587 741 l 675 741 l 579 587 q 666 333 666 503 q 629 143 666 220 q 523 27 591 66 q 361 -11 454 -11 q 219 18 279 -11 l 150 -92 l 62 -92 l 157 59 q 71 318 71 142 q 110 507 71 430 q 217 622 149 585 q 372 660 285 660 q 517 630 458 660 m 224 154 l 472 558 q 425 594 451 583 q 368 606 398 606 q 242 535 286 606 q 198 332 198 464 q 224 154 198 231 m 513 494 l 264 89 q 371 43 304 43 q 448 65 416 43 q 500 124 480 87 q 529 211 520 161 q 538 313 538 260 q 532 414 538 372 q 513 494 526 456 z "},"ǿ":{"ha":737,"x_min":62,"x_max":675,"o":"m 517 630 l 587 741 l 675 741 l 579 587 q 666 333 666 503 q 629 143 666 220 q 523 27 591 66 q 361 -11 454 -11 q 219 18 279 -11 l 150 -92 l 62 -92 l 157 59 q 71 318 71 142 q 110 507 71 430 q 217 622 149 585 q 372 660 285 660 q 517 630 458 660 m 224 154 l 472 558 q 425 594 451 583 q 368 606 398 606 q 242 535 286 606 q 198 332 198 464 q 224 154 198 231 m 513 494 l 264 89 q 371 43 304 43 q 448 65 416 43 q 500 124 480 87 q 529 211 520 161 q 538 313 538 260 q 532 414 538 372 q 513 494 526 456 m 540 978 l 540 944 l 325 726 l 281 761 l 421 978 l 540 978 z "},"œ":{"ha":1137,"x_min":71,"x_max":1080,"o":"m 1067 115 q 990 45 1027 72 q 907 4 953 19 q 807 -11 862 -11 q 719 2 756 -11 q 652 37 681 14 q 593 100 623 60 l 588 100 q 486 14 536 39 q 361 -11 435 -11 q 145 72 220 -11 q 71 318 71 155 q 110 507 71 430 q 217 622 149 585 q 372 660 285 660 q 499 633 445 660 q 600 547 554 607 l 606 547 q 709 634 659 608 q 823 660 760 660 q 935 641 888 660 q 1011 586 981 621 q 1060 493 1042 551 q 1080 334 1078 435 l 653 334 l 653 322 q 671 188 653 242 q 730 102 689 133 q 837 71 771 71 q 937 92 892 71 q 1025 159 981 113 l 1067 115 m 199 332 q 244 118 199 193 q 371 43 288 43 q 448 65 416 43 q 499 124 479 87 q 528 211 519 161 q 537 313 537 260 q 515 480 537 414 q 455 576 493 547 q 368 606 418 606 q 243 535 286 606 q 199 332 199 464 m 953 391 q 914 555 947 503 q 817 606 882 606 q 706 551 748 606 q 656 391 665 496 l 953 391 z "},"ŕ":{"ha":574,"x_min":56,"x_max":551,"o":"m 249 536 l 258 534 q 328 605 296 579 q 396 646 359 631 q 480 660 433 660 q 551 656 519 660 l 551 500 l 475 500 q 440 553 458 536 q 390 570 422 570 q 341 555 366 570 q 295 514 317 541 q 264 463 273 487 q 256 407 256 439 l 256 170 q 263 84 256 108 q 288 50 271 61 q 340 33 305 39 l 340 0 l 66 0 l 66 33 q 103 47 92 41 q 123 64 115 54 q 135 98 131 75 q 139 168 139 120 l 139 463 q 138 533 139 507 q 128 575 136 559 q 103 599 120 591 q 56 612 87 607 l 56 648 l 215 654 l 256 654 l 249 536 m 459 978 l 459 944 l 244 726 l 200 761 l 340 978 l 459 978 z "},"ř":{"ha":574,"x_min":56,"x_max":551,"o":"m 249 536 l 258 534 q 328 605 296 579 q 396 646 359 631 q 480 660 433 660 q 551 656 519 660 l 551 500 l 475 500 q 440 553 458 536 q 390 570 422 570 q 341 555 366 570 q 295 514 317 541 q 264 463 273 487 q 256 407 256 439 l 256 170 q 263 84 256 108 q 288 50 271 61 q 340 33 305 39 l 340 0 l 66 0 l 66 33 q 103 47 92 41 q 123 64 115 54 q 135 98 131 75 q 139 168 139 120 l 139 463 q 138 533 139 507 q 128 575 136 559 q 103 599 120 591 q 56 612 87 607 l 56 648 l 215 654 l 256 654 l 249 536 m 238 735 l 94 949 l 140 987 l 283 823 l 291 823 l 435 987 l 481 949 l 329 735 l 238 735 z "},"ŗ":{"ha":574,"x_min":56,"x_max":551,"o":"m 249 536 l 258 534 q 328 605 296 579 q 396 646 359 631 q 480 660 433 660 q 551 656 519 660 l 551 500 l 475 500 q 440 553 458 536 q 390 570 422 570 q 341 555 366 570 q 295 514 317 541 q 264 463 273 487 q 256 407 256 439 l 256 170 q 263 84 256 108 q 288 50 271 61 q 340 33 305 39 l 340 0 l 66 0 l 66 33 q 103 47 92 41 q 123 64 115 54 q 135 98 131 75 q 139 168 139 120 l 139 463 q 138 533 139 507 q 128 575 136 559 q 103 599 120 591 q 56 612 87 607 l 56 648 l 215 654 l 256 654 l 249 536 m 275 -67 q 283 -132 283 -95 q 229 -243 283 -201 q 70 -292 174 -285 l 61 -241 q 129 -223 104 -235 q 165 -190 153 -211 q 178 -132 178 -168 q 172 -67 178 -97 l 275 -67 z "},"ś":{"ha":597,"x_min":64,"x_max":528,"o":"m 520 500 l 455 500 q 420 564 440 541 q 374 597 399 587 q 311 606 348 606 q 224 581 256 606 q 192 511 192 555 q 205 460 192 480 q 245 422 218 439 q 340 375 272 404 q 447 320 410 345 q 506 262 485 295 q 528 182 528 229 q 509 92 528 129 q 458 33 491 56 q 379 -1 425 9 q 279 -11 333 -11 q 168 -2 222 -11 q 64 20 115 6 l 64 161 l 130 161 q 184 71 149 99 q 283 43 220 43 q 331 48 308 43 q 373 65 355 53 q 402 97 391 77 q 413 148 413 117 q 399 204 413 182 q 357 244 386 226 q 257 292 329 262 q 158 342 195 318 q 99 400 121 367 q 78 479 78 433 q 108 575 78 534 q 195 638 138 616 q 329 660 252 660 q 415 655 374 660 q 520 638 457 651 l 520 500 m 470 978 l 470 944 l 255 726 l 211 761 l 351 978 l 470 978 z "},"ŝ":{"ha":597,"x_min":64,"x_max":528,"o":"m 520 500 l 455 500 q 420 564 440 541 q 374 597 399 587 q 311 606 348 606 q 224 581 256 606 q 192 511 192 555 q 205 460 192 480 q 245 422 218 439 q 340 375 272 404 q 447 320 410 345 q 506 262 485 295 q 528 182 528 229 q 509 92 528 129 q 458 33 491 56 q 379 -1 425 9 q 279 -11 333 -11 q 168 -2 222 -11 q 64 20 115 6 l 64 161 l 130 161 q 184 71 149 99 q 283 43 220 43 q 331 48 308 43 q 373 65 355 53 q 402 97 391 77 q 413 148 413 117 q 399 204 413 182 q 357 244 386 226 q 257 292 329 262 q 158 342 195 318 q 99 400 121 367 q 78 479 78 433 q 108 575 78 534 q 195 638 138 616 q 329 660 252 660 q 415 655 374 660 q 520 638 457 651 l 520 500 m 347 978 l 492 764 l 446 726 l 302 890 l 294 890 l 151 726 l 104 764 l 256 978 l 347 978 z "},"š":{"ha":597,"x_min":64,"x_max":528,"o":"m 520 500 l 455 500 q 420 564 440 541 q 374 597 399 587 q 311 606 348 606 q 224 581 256 606 q 192 511 192 555 q 205 460 192 480 q 245 422 218 439 q 340 375 272 404 q 447 320 410 345 q 506 262 485 295 q 528 182 528 229 q 509 92 528 129 q 458 33 491 56 q 379 -1 425 9 q 279 -11 333 -11 q 168 -2 222 -11 q 64 20 115 6 l 64 161 l 130 161 q 184 71 149 99 q 283 43 220 43 q 331 48 308 43 q 373 65 355 53 q 402 97 391 77 q 413 148 413 117 q 399 204 413 182 q 357 244 386 226 q 257 292 329 262 q 158 342 195 318 q 99 400 121 367 q 78 479 78 433 q 108 575 78 534 q 195 638 138 616 q 329 660 252 660 q 415 655 374 660 q 520 638 457 651 l 520 500 m 249 735 l 104 949 l 151 987 l 294 823 l 302 823 l 446 987 l 492 949 l 340 735 l 249 735 z "},"ş":{"ha":597,"x_min":64,"x_max":528,"o":"m 520 500 l 455 500 q 420 564 440 541 q 374 597 399 587 q 311 606 348 606 q 224 581 256 606 q 192 511 192 555 q 205 460 192 480 q 245 422 218 439 q 340 375 272 404 q 447 320 410 345 q 506 262 485 295 q 528 182 528 229 q 502 79 528 121 q 427 15 477 37 l 334 -54 q 345 -90 340 -69 q 350 -130 350 -111 q 295 -242 350 -200 q 136 -292 239 -285 l 127 -241 q 198 -221 172 -236 q 235 -186 224 -206 q 245 -138 245 -166 q 241 -102 245 -120 l 241 -75 l 341 -6 q 279 -11 307 -11 q 168 -2 222 -11 q 64 20 115 6 l 64 161 l 130 161 q 184 71 149 99 q 283 43 220 43 q 331 48 308 43 q 373 65 355 53 q 402 97 391 77 q 413 148 413 117 q 399 204 413 182 q 357 244 386 226 q 257 292 329 262 q 158 342 195 318 q 99 400 121 367 q 78 479 78 433 q 108 575 78 534 q 195 638 138 616 q 329 660 252 660 q 415 655 374 660 q 520 638 457 651 l 520 500 z "},"ș":{"ha":597,"x_min":64,"x_max":528,"o":"m 520 500 l 455 500 q 420 564 440 541 q 374 597 399 587 q 311 606 348 606 q 224 581 256 606 q 192 511 192 555 q 205 460 192 480 q 245 422 218 439 q 340 375 272 404 q 447 320 410 345 q 506 262 485 295 q 528 182 528 229 q 509 92 528 129 q 458 33 491 56 q 379 -1 425 9 q 279 -11 333 -11 q 168 -2 222 -11 q 64 20 115 6 l 64 161 l 130 161 q 184 71 149 99 q 283 43 220 43 q 331 48 308 43 q 373 65 355 53 q 402 97 391 77 q 413 148 413 117 q 399 204 413 182 q 357 244 386 226 q 257 292 329 262 q 158 342 195 318 q 99 400 121 367 q 78 479 78 433 q 108 575 78 534 q 195 638 138 616 q 329 660 252 660 q 415 655 374 660 q 520 638 457 651 l 520 500 m 358 -67 q 367 -132 367 -95 q 312 -243 367 -201 q 153 -292 257 -285 l 144 -241 q 212 -223 188 -235 q 249 -190 237 -211 q 261 -132 261 -168 q 255 -67 261 -97 l 358 -67 z "},"ß":{"ha":841,"x_min":54,"x_max":792,"o":"m 252 0 l 59 0 l 59 33 q 102 49 89 41 q 122 68 115 56 q 132 101 129 79 q 136 170 136 123 l 136 580 l 54 580 l 54 614 q 115 636 96 619 q 138 690 134 652 q 167 804 144 752 q 232 895 189 857 q 333 953 274 932 q 469 974 392 974 q 636 926 576 974 q 696 792 696 879 q 684 729 696 758 q 646 671 673 701 q 547 588 619 642 q 507 554 521 567 q 486 526 494 541 q 478 494 478 511 q 490 449 478 467 q 528 414 501 431 q 605 375 554 397 q 712 320 675 345 q 770 262 749 296 q 792 182 792 229 q 774 92 792 129 q 723 33 755 56 q 645 -1 690 9 q 547 -11 600 -11 q 359 16 454 -11 l 359 136 l 421 136 q 452 82 435 101 q 492 53 468 63 q 550 43 515 43 q 597 48 574 43 q 638 65 621 53 q 667 97 656 77 q 677 148 677 117 q 674 181 677 166 q 663 207 670 195 q 645 228 655 218 q 623 244 635 237 q 588 263 610 252 q 522 292 566 273 q 441 336 472 313 q 394 390 410 359 q 378 461 378 420 q 402 538 378 504 q 486 617 427 572 q 545 672 525 648 q 575 723 565 696 q 585 786 585 751 q 574 849 585 824 q 545 890 564 875 q 503 913 527 906 q 453 920 479 920 q 381 908 413 920 q 324 871 350 897 q 282 805 298 845 q 259 707 267 764 q 252 557 252 649 l 252 0 z "},"ſ":{"ha":388,"x_min":54,"x_max":504,"o":"m 252 170 q 258 89 252 111 q 278 54 263 66 q 328 33 294 42 l 328 0 l 59 0 l 59 33 q 102 49 89 41 q 122 68 115 56 q 132 101 129 79 q 136 170 136 123 l 136 580 l 54 580 l 54 614 q 88 621 80 619 q 104 628 96 623 q 118 642 112 633 q 128 668 123 650 q 135 716 132 685 q 162 836 141 790 q 222 915 182 882 q 307 961 262 947 q 413 974 352 974 q 504 966 467 974 l 504 844 l 437 844 q 407 900 424 884 q 358 917 389 917 q 320 910 336 917 q 292 891 305 904 q 270 856 279 878 q 256 802 260 834 q 252 713 252 769 l 252 170 z "},"ť":{"ha":626,"x_min":25,"x_max":595,"o":"m 25 614 q 80 633 59 620 q 113 668 101 647 q 132 722 125 690 q 146 816 138 754 l 242 816 l 242 648 l 461 648 l 461 580 l 242 580 l 242 278 q 248 173 242 212 q 268 112 253 134 q 302 81 283 90 q 351 71 321 71 q 401 82 378 71 q 448 115 425 94 l 479 78 q 388 10 431 31 q 298 -11 345 -11 q 168 41 211 -11 q 125 203 125 93 l 125 580 l 25 580 l 25 614 m 580 970 q 595 888 595 927 q 586 823 595 851 q 552 765 576 795 q 469 683 528 734 l 432 720 q 471 771 460 750 q 485 815 481 791 q 489 874 489 838 q 487 918 489 897 q 478 970 484 940 l 580 970 z "},"ţ":{"ha":470,"x_min":25,"x_max":479,"o":"m 25 614 q 80 633 59 620 q 113 668 101 647 q 132 722 125 690 q 146 816 138 754 l 242 816 l 242 648 l 461 648 l 461 580 l 242 580 l 242 278 q 248 173 242 212 q 268 112 253 134 q 302 81 283 90 q 351 71 321 71 q 401 82 378 71 q 448 115 425 94 l 479 78 q 388 10 431 31 q 298 -11 345 -11 q 168 41 211 -11 q 125 203 125 93 l 125 580 l 25 580 l 25 614 m 307 -67 q 316 -132 316 -95 q 261 -243 316 -201 q 102 -292 206 -285 l 94 -241 q 161 -223 137 -235 q 198 -190 186 -211 q 210 -132 210 -168 q 204 -67 210 -97 l 307 -67 z "},"ț":{"ha":470,"x_min":25,"x_max":479,"o":"m 25 614 q 80 633 59 620 q 113 668 101 647 q 132 722 125 690 q 146 816 138 754 l 242 816 l 242 648 l 461 648 l 461 580 l 242 580 l 242 278 q 248 173 242 212 q 268 112 253 134 q 302 81 283 90 q 351 71 321 71 q 401 82 378 71 q 448 115 425 94 l 479 78 q 388 10 431 31 q 298 -11 345 -11 q 168 41 211 -11 q 125 203 125 93 l 125 580 l 25 580 l 25 614 m 307 -67 q 316 -132 316 -95 q 261 -243 316 -201 q 102 -292 206 -285 l 94 -241 q 161 -223 137 -235 q 198 -190 186 -211 q 210 -132 210 -168 q 204 -67 210 -97 l 307 -67 z "},"ŧ":{"ha":490,"x_min":36,"x_max":490,"o":"m 36 378 l 136 378 l 136 580 l 36 580 l 36 614 q 91 633 70 620 q 124 668 112 647 q 142 722 136 690 q 157 816 149 754 l 253 816 l 253 648 l 472 648 l 472 580 l 253 580 l 253 378 l 435 378 l 435 319 l 253 319 l 253 278 q 258 173 253 212 q 279 112 264 134 q 313 81 294 90 q 361 71 332 71 q 412 82 389 71 q 459 115 436 94 l 490 78 q 398 10 441 31 q 309 -11 355 -11 q 179 41 222 -11 q 136 203 136 93 l 136 319 l 36 319 l 36 378 z "},"ù":{"ha":767,"x_min":50,"x_max":720,"o":"m 50 648 l 243 648 l 243 303 q 249 182 243 224 q 267 120 255 141 q 302 85 279 99 q 363 71 324 71 q 413 81 389 71 q 466 116 437 91 q 508 167 495 142 q 520 225 520 192 l 520 479 q 518 538 520 518 q 511 569 516 557 q 500 589 507 581 q 482 602 494 596 q 444 615 470 608 l 444 648 l 637 648 l 637 185 q 639 110 637 133 q 648 73 641 87 q 669 51 654 60 q 720 35 683 43 l 720 0 l 564 -7 l 523 -7 l 527 104 l 517 107 q 409 18 460 46 q 307 -11 358 -11 q 205 14 245 -11 q 145 86 165 38 q 125 223 125 135 l 125 479 q 121 558 125 536 q 104 592 117 579 q 50 615 92 604 l 50 648 m 321 978 l 461 761 l 416 726 l 202 944 l 202 978 l 321 978 z "},"ú":{"ha":767,"x_min":50,"x_max":720,"o":"m 50 648 l 243 648 l 243 303 q 249 182 243 224 q 267 120 255 141 q 302 85 279 99 q 363 71 324 71 q 413 81 389 71 q 466 116 437 91 q 508 167 495 142 q 520 225 520 192 l 520 479 q 518 538 520 518 q 511 569 516 557 q 500 589 507 581 q 482 602 494 596 q 444 615 470 608 l 444 648 l 637 648 l 637 185 q 639 110 637 133 q 648 73 641 87 q 669 51 654 60 q 720 35 683 43 l 720 0 l 564 -7 l 523 -7 l 527 104 l 517 107 q 409 18 460 46 q 307 -11 358 -11 q 205 14 245 -11 q 145 86 165 38 q 125 223 125 135 l 125 479 q 121 558 125 536 q 104 592 117 579 q 50 615 92 604 l 50 648 m 555 978 l 555 944 l 340 726 l 296 761 l 436 978 l 555 978 z "},"û":{"ha":767,"x_min":50,"x_max":720,"o":"m 50 648 l 243 648 l 243 303 q 249 182 243 224 q 267 120 255 141 q 302 85 279 99 q 363 71 324 71 q 413 81 389 71 q 466 116 437 91 q 508 167 495 142 q 520 225 520 192 l 520 479 q 518 538 520 518 q 511 569 516 557 q 500 589 507 581 q 482 602 494 596 q 444 615 470 608 l 444 648 l 637 648 l 637 185 q 639 110 637 133 q 648 73 641 87 q 669 51 654 60 q 720 35 683 43 l 720 0 l 564 -7 l 523 -7 l 527 104 l 517 107 q 409 18 460 46 q 307 -11 358 -11 q 205 14 245 -11 q 145 86 165 38 q 125 223 125 135 l 125 479 q 121 558 125 536 q 104 592 117 579 q 50 615 92 604 l 50 648 m 432 978 l 577 764 l 530 726 l 387 890 l 379 890 l 235 726 l 189 764 l 341 978 l 432 978 z "},"ũ":{"ha":767,"x_min":50,"x_max":720,"o":"m 50 648 l 243 648 l 243 303 q 249 182 243 224 q 267 120 255 141 q 302 85 279 99 q 363 71 324 71 q 413 81 389 71 q 466 116 437 91 q 508 167 495 142 q 520 225 520 192 l 520 479 q 518 538 520 518 q 511 569 516 557 q 500 589 507 581 q 482 602 494 596 q 444 615 470 608 l 444 648 l 637 648 l 637 185 q 639 110 637 133 q 648 73 641 87 q 669 51 654 60 q 720 35 683 43 l 720 0 l 564 -7 l 523 -7 l 527 104 l 517 107 q 409 18 460 46 q 307 -11 358 -11 q 205 14 245 -11 q 145 86 165 38 q 125 223 125 135 l 125 479 q 121 558 125 536 q 104 592 117 579 q 50 615 92 604 l 50 648 m 556 926 l 609 903 q 560 818 583 848 q 515 776 536 787 q 467 765 494 765 q 435 769 448 765 q 408 780 421 772 q 367 806 395 787 q 338 825 349 818 q 316 836 328 831 q 292 840 304 840 q 262 833 274 840 q 238 810 250 827 q 213 765 226 793 l 160 788 q 213 879 193 853 q 255 915 233 904 q 306 926 276 926 q 335 923 322 926 q 360 913 349 919 q 398 888 371 907 q 429 867 418 875 q 453 856 441 860 q 481 851 465 851 q 519 868 503 851 q 556 926 536 884 z "},"ü":{"ha":767,"x_min":50,"x_max":720,"o":"m 50 648 l 243 648 l 243 303 q 249 182 243 224 q 267 120 255 141 q 302 85 279 99 q 363 71 324 71 q 413 81 389 71 q 466 116 437 91 q 508 167 495 142 q 520 225 520 192 l 520 479 q 518 538 520 518 q 511 569 516 557 q 500 589 507 581 q 482 602 494 596 q 444 615 470 608 l 444 648 l 637 648 l 637 185 q 639 110 637 133 q 648 73 641 87 q 669 51 654 60 q 720 35 683 43 l 720 0 l 564 -7 l 523 -7 l 527 104 l 517 107 q 409 18 460 46 q 307 -11 358 -11 q 205 14 245 -11 q 145 86 165 38 q 125 223 125 135 l 125 479 q 121 558 125 536 q 104 592 117 579 q 50 615 92 604 l 50 648 m 555 908 l 555 789 l 441 789 l 441 908 l 555 908 m 325 908 l 325 789 l 212 789 l 212 908 l 325 908 z "},"ū":{"ha":767,"x_min":50,"x_max":720,"o":"m 50 648 l 243 648 l 243 303 q 249 182 243 224 q 267 120 255 141 q 302 85 279 99 q 363 71 324 71 q 413 81 389 71 q 466 116 437 91 q 508 167 495 142 q 520 225 520 192 l 520 479 q 518 538 520 518 q 511 569 516 557 q 500 589 507 581 q 482 602 494 596 q 444 615 470 608 l 444 648 l 637 648 l 637 185 q 639 110 637 133 q 648 73 641 87 q 669 51 654 60 q 720 35 683 43 l 720 0 l 564 -7 l 523 -7 l 527 104 l 517 107 q 409 18 460 46 q 307 -11 358 -11 q 205 14 245 -11 q 145 86 165 38 q 125 223 125 135 l 125 479 q 121 558 125 536 q 104 592 117 579 q 50 615 92 604 l 50 648 m 563 806 l 205 806 l 205 890 l 563 890 l 563 806 z "},"ŭ":{"ha":767,"x_min":50,"x_max":720,"o":"m 50 648 l 243 648 l 243 303 q 249 182 243 224 q 267 120 255 141 q 302 85 279 99 q 363 71 324 71 q 413 81 389 71 q 466 116 437 91 q 508 167 495 142 q 520 225 520 192 l 520 479 q 518 538 520 518 q 511 569 516 557 q 500 589 507 581 q 482 602 494 596 q 444 615 470 608 l 444 648 l 637 648 l 637 185 q 639 110 637 133 q 648 73 641 87 q 669 51 654 60 q 720 35 683 43 l 720 0 l 564 -7 l 523 -7 l 527 104 l 517 107 q 409 18 460 46 q 307 -11 358 -11 q 205 14 245 -11 q 145 86 165 38 q 125 223 125 135 l 125 479 q 121 558 125 536 q 104 592 117 579 q 50 615 92 604 l 50 648 m 589 941 q 520 802 571 849 q 378 755 469 755 q 245 802 294 755 q 179 941 197 848 l 231 957 q 270 887 248 912 q 317 852 291 862 q 381 843 342 843 q 447 853 419 843 q 497 888 475 863 q 536 957 520 913 l 589 941 z "},"ů":{"ha":767,"x_min":50,"x_max":720,"o":"m 50 648 l 243 648 l 243 303 q 249 182 243 224 q 267 120 255 141 q 302 85 279 99 q 363 71 324 71 q 413 81 389 71 q 466 116 437 91 q 508 167 495 142 q 520 225 520 192 l 520 479 q 518 538 520 518 q 511 569 516 557 q 500 589 507 581 q 482 602 494 596 q 444 615 470 608 l 444 648 l 637 648 l 637 185 q 639 110 637 133 q 648 73 641 87 q 669 51 654 60 q 720 35 683 43 l 720 0 l 564 -7 l 523 -7 l 527 104 l 517 107 q 409 18 460 46 q 307 -11 358 -11 q 205 14 245 -11 q 145 86 165 38 q 125 223 125 135 l 125 479 q 121 558 125 536 q 104 592 117 579 q 50 615 92 604 l 50 648 m 380 726 q 268 760 307 726 q 230 860 230 794 q 250 936 230 905 q 305 983 270 968 q 385 998 340 998 q 498 964 460 998 q 537 866 537 930 q 496 763 537 799 q 380 726 455 726 m 301 865 q 322 794 301 819 q 385 768 343 768 q 445 792 425 768 q 466 859 466 816 q 444 931 466 906 q 384 956 422 956 q 322 932 343 956 q 301 865 301 909 z "},"ű":{"ha":767,"x_min":50,"x_max":720,"o":"m 50 648 l 243 648 l 243 303 q 249 182 243 224 q 267 120 255 141 q 302 85 279 99 q 363 71 324 71 q 413 81 389 71 q 466 116 437 91 q 508 167 495 142 q 520 225 520 192 l 520 479 q 518 538 520 518 q 511 569 516 557 q 500 589 507 581 q 482 602 494 596 q 444 615 470 608 l 444 648 l 637 648 l 637 185 q 639 110 637 133 q 648 73 641 87 q 669 51 654 60 q 720 35 683 43 l 720 0 l 564 -7 l 523 -7 l 527 104 l 517 107 q 409 18 460 46 q 307 -11 358 -11 q 205 14 245 -11 q 145 86 165 38 q 125 223 125 135 l 125 479 q 121 558 125 536 q 104 592 117 579 q 50 615 92 604 l 50 648 m 652 978 l 652 944 l 450 726 l 406 761 l 559 978 l 652 978 m 446 978 l 446 944 l 244 726 l 199 761 l 353 978 l 446 978 z "},"ų":{"ha":767,"x_min":50,"x_max":720,"o":"m 50 648 l 243 648 l 243 303 q 249 182 243 224 q 267 120 255 141 q 302 85 279 99 q 363 71 324 71 q 413 81 389 71 q 466 116 437 91 q 508 167 495 142 q 520 225 520 192 l 520 479 q 518 538 520 518 q 511 569 516 557 q 500 589 507 581 q 482 602 494 596 q 444 615 470 608 l 444 648 l 637 648 l 637 185 q 639 110 637 133 q 648 73 641 87 q 669 51 654 60 q 720 35 683 43 l 720 0 l 640 -1 q 578 -78 599 -39 q 558 -156 558 -117 q 575 -212 558 -194 q 627 -231 593 -231 q 666 -224 650 -231 q 698 -208 683 -218 l 719 -254 q 665 -281 694 -271 q 598 -292 635 -292 q 548 -285 572 -292 q 505 -264 524 -279 q 476 -228 487 -250 q 465 -173 465 -205 q 494 -85 465 -129 q 578 -3 523 -42 l 523 -3 l 527 104 l 517 107 q 409 18 460 46 q 307 -11 358 -11 q 205 14 245 -11 q 145 86 165 38 q 125 223 125 135 l 125 479 q 121 558 125 536 q 104 592 117 579 q 50 615 92 604 l 50 648 z "},"ẁ":{"ha":1076,"x_min":20,"x_max":1072,"o":"m 541 507 l 363 -3 l 269 -3 l 106 500 q 80 569 91 549 q 58 598 70 589 q 20 615 46 608 l 20 648 l 288 648 l 288 615 q 234 594 248 607 q 220 554 220 581 q 224 516 220 536 q 237 469 229 496 l 343 123 l 517 648 l 613 648 l 761 123 l 880 455 q 896 504 890 481 q 902 548 902 528 q 887 592 902 576 q 835 615 871 608 l 835 648 l 1072 648 l 1072 615 q 1043 605 1053 610 q 1024 590 1034 600 q 1004 560 1015 581 q 976 496 993 539 l 780 -3 l 688 -3 l 541 507 m 500 978 l 640 761 l 595 726 l 381 944 l 381 978 l 500 978 z "},"ẃ":{"ha":1076,"x_min":20,"x_max":1072,"o":"m 541 507 l 363 -3 l 269 -3 l 106 500 q 80 569 91 549 q 58 598 70 589 q 20 615 46 608 l 20 648 l 288 648 l 288 615 q 234 594 248 607 q 220 554 220 581 q 224 516 220 536 q 237 469 229 496 l 343 123 l 517 648 l 613 648 l 761 123 l 880 455 q 896 504 890 481 q 902 548 902 528 q 887 592 902 576 q 835 615 871 608 l 835 648 l 1072 648 l 1072 615 q 1043 605 1053 610 q 1024 590 1034 600 q 1004 560 1015 581 q 976 496 993 539 l 780 -3 l 688 -3 l 541 507 m 724 978 l 724 944 l 509 726 l 465 761 l 606 978 l 724 978 z "},"ŵ":{"ha":1076,"x_min":20,"x_max":1072,"o":"m 541 507 l 363 -3 l 269 -3 l 106 500 q 80 569 91 549 q 58 598 70 589 q 20 615 46 608 l 20 648 l 288 648 l 288 615 q 234 594 248 607 q 220 554 220 581 q 224 516 220 536 q 237 469 229 496 l 343 123 l 517 648 l 613 648 l 761 123 l 880 455 q 896 504 890 481 q 902 548 902 528 q 887 592 902 576 q 835 615 871 608 l 835 648 l 1072 648 l 1072 615 q 1043 605 1053 610 q 1024 590 1034 600 q 1004 560 1015 581 q 976 496 993 539 l 780 -3 l 688 -3 l 541 507 m 602 978 l 747 764 l 700 726 l 556 890 l 549 890 l 405 726 l 359 764 l 511 978 l 602 978 z "},"ẅ":{"ha":1076,"x_min":20,"x_max":1072,"o":"m 541 507 l 363 -3 l 269 -3 l 106 500 q 80 569 91 549 q 58 598 70 589 q 20 615 46 608 l 20 648 l 288 648 l 288 615 q 234 594 248 607 q 220 554 220 581 q 224 516 220 536 q 237 469 229 496 l 343 123 l 517 648 l 613 648 l 761 123 l 880 455 q 896 504 890 481 q 902 548 902 528 q 887 592 902 576 q 835 615 871 608 l 835 648 l 1072 648 l 1072 615 q 1043 605 1053 610 q 1024 590 1034 600 q 1004 560 1015 581 q 976 496 993 539 l 780 -3 l 688 -3 l 541 507 m 724 908 l 724 789 l 611 789 l 611 908 l 724 908 m 494 908 l 494 789 l 381 789 l 381 908 l 494 908 z "},"ỳ":{"ha":700,"x_min":14,"x_max":701,"o":"m 353 -56 q 280 -192 315 -140 q 202 -271 245 -244 q 102 -297 160 -297 q 18 -288 64 -297 l 18 -154 l 78 -154 q 98 -193 86 -182 q 134 -203 111 -203 q 170 -196 154 -203 q 203 -169 186 -188 q 244 -111 220 -150 q 296 -11 267 -71 l 106 500 q 77 569 88 549 q 53 599 66 589 q 14 615 40 609 l 14 648 l 290 648 l 290 615 q 245 601 258 608 q 226 582 232 593 q 220 553 220 571 q 224 515 220 535 q 238 469 229 496 l 359 130 l 494 455 q 512 505 506 482 q 519 547 519 528 q 503 591 519 576 q 448 615 487 606 l 448 648 l 701 648 l 701 615 q 661 598 675 610 q 632 563 646 587 q 598 496 618 539 l 353 -56 m 297 978 l 437 761 l 393 726 l 178 944 l 178 978 l 297 978 z "},"ý":{"ha":700,"x_min":14,"x_max":701,"o":"m 353 -56 q 280 -192 315 -140 q 202 -271 245 -244 q 102 -297 160 -297 q 18 -288 64 -297 l 18 -154 l 78 -154 q 98 -193 86 -182 q 134 -203 111 -203 q 170 -196 154 -203 q 203 -169 186 -188 q 244 -111 220 -150 q 296 -11 267 -71 l 106 500 q 77 569 88 549 q 53 599 66 589 q 14 615 40 609 l 14 648 l 290 648 l 290 615 q 245 601 258 608 q 226 582 232 593 q 220 553 220 571 q 224 515 220 535 q 238 469 229 496 l 359 130 l 494 455 q 512 505 506 482 q 519 547 519 528 q 503 591 519 576 q 448 615 487 606 l 448 648 l 701 648 l 701 615 q 661 598 675 610 q 632 563 646 587 q 598 496 618 539 l 353 -56 m 534 978 l 534 944 l 319 726 l 275 761 l 415 978 l 534 978 z "},"ŷ":{"ha":700,"x_min":14,"x_max":701,"o":"m 353 -56 q 280 -192 315 -140 q 202 -271 245 -244 q 102 -297 160 -297 q 18 -288 64 -297 l 18 -154 l 78 -154 q 98 -193 86 -182 q 134 -203 111 -203 q 170 -196 154 -203 q 203 -169 186 -188 q 244 -111 220 -150 q 296 -11 267 -71 l 106 500 q 77 569 88 549 q 53 599 66 589 q 14 615 40 609 l 14 648 l 290 648 l 290 615 q 245 601 258 608 q 226 582 232 593 q 220 553 220 571 q 224 515 220 535 q 238 469 229 496 l 359 130 l 494 455 q 512 505 506 482 q 519 547 519 528 q 503 591 519 576 q 448 615 487 606 l 448 648 l 701 648 l 701 615 q 661 598 675 610 q 632 563 646 587 q 598 496 618 539 l 353 -56 m 399 978 l 544 764 l 497 726 l 353 890 l 346 890 l 202 726 l 156 764 l 308 978 l 399 978 z "},"ÿ":{"ha":700,"x_min":14,"x_max":701,"o":"m 353 -56 q 280 -192 315 -140 q 202 -271 245 -244 q 102 -297 160 -297 q 18 -288 64 -297 l 18 -154 l 78 -154 q 98 -193 86 -182 q 134 -203 111 -203 q 170 -196 154 -203 q 203 -169 186 -188 q 244 -111 220 -150 q 296 -11 267 -71 l 106 500 q 77 569 88 549 q 53 599 66 589 q 14 615 40 609 l 14 648 l 290 648 l 290 615 q 245 601 258 608 q 226 582 232 593 q 220 553 220 571 q 224 515 220 535 q 238 469 229 496 l 359 130 l 494 455 q 512 505 506 482 q 519 547 519 528 q 503 591 519 576 q 448 615 487 606 l 448 648 l 701 648 l 701 615 q 661 598 675 610 q 632 563 646 587 q 598 496 618 539 l 353 -56 m 524 908 l 524 789 l 410 789 l 410 908 l 524 908 m 294 908 l 294 789 l 180 789 l 180 908 l 294 908 z "},"ź":{"ha":631,"x_min":55,"x_max":577,"o":"m 577 197 l 577 0 l 55 0 l 55 33 l 427 593 l 243 593 q 189 581 209 593 q 152 541 170 569 q 118 464 134 512 l 59 464 l 59 648 l 573 648 l 573 614 l 202 55 l 380 55 q 433 60 416 55 q 464 78 451 66 q 489 115 477 90 q 518 197 501 141 l 577 197 m 488 978 l 488 944 l 273 726 l 229 761 l 369 978 l 488 978 z "},"ž":{"ha":631,"x_min":55,"x_max":577,"o":"m 577 197 l 577 0 l 55 0 l 55 33 l 427 593 l 243 593 q 189 581 209 593 q 152 541 170 569 q 118 464 134 512 l 59 464 l 59 648 l 573 648 l 573 614 l 202 55 l 380 55 q 433 60 416 55 q 464 78 451 66 q 489 115 477 90 q 518 197 501 141 l 577 197 m 267 735 l 122 949 l 168 987 l 312 823 l 319 823 l 463 987 l 510 949 l 357 735 l 267 735 z "},"ż":{"ha":631,"x_min":55,"x_max":577,"o":"m 577 197 l 577 0 l 55 0 l 55 33 l 427 593 l 243 593 q 189 581 209 593 q 152 541 170 569 q 118 464 134 512 l 59 464 l 59 648 l 573 648 l 573 614 l 202 55 l 380 55 q 433 60 416 55 q 464 78 451 66 q 489 115 477 90 q 518 197 501 141 l 577 197 m 378 914 l 378 783 l 254 783 l 254 914 l 378 914 z "},"ŋ":{"ha":765,"x_min":56,"x_max":650,"o":"m 650 41 q 644 -58 650 -16 q 623 -131 638 -99 q 585 -182 608 -162 q 533 -212 562 -202 q 467 -222 504 -222 q 380 -212 413 -222 l 380 -153 q 439 -163 411 -163 q 484 -155 467 -163 q 512 -125 501 -146 q 528 -67 522 -105 q 533 30 533 -29 l 533 345 q 530 431 533 392 q 521 494 528 469 q 506 533 515 519 q 484 556 496 547 q 455 572 471 566 q 412 578 439 578 q 362 567 386 578 q 310 531 338 557 q 269 480 281 505 q 256 422 256 455 l 256 170 q 261 89 256 111 q 282 54 267 66 q 332 33 297 42 l 332 0 l 66 0 l 66 33 q 103 47 92 41 q 122 64 115 54 q 135 98 130 75 q 139 168 139 120 l 139 463 q 138 533 139 507 q 128 575 136 559 q 103 599 120 591 q 56 612 87 607 l 56 648 l 215 654 l 256 654 l 249 544 l 258 541 q 339 614 309 592 q 402 647 370 635 q 469 659 433 659 q 534 651 505 659 q 585 625 563 642 q 621 581 607 607 q 643 518 635 555 q 650 425 650 481 l 650 41 z "},"ð":{"ha":736,"x_min":71,"x_max":736,"o":"m 146 746 l 328 847 q 161 916 263 887 l 176 973 q 403 890 306 943 l 539 967 l 569 915 l 459 856 q 611 661 559 783 q 663 376 663 540 q 632 169 663 255 q 532 36 600 83 q 359 -11 464 -11 q 145 70 220 -11 q 71 300 71 151 q 107 479 71 404 q 209 593 142 553 q 365 632 275 632 q 451 619 412 632 q 524 577 489 606 l 532 582 q 384 811 490 725 l 176 694 l 146 746 m 199 315 q 244 113 199 182 q 372 43 289 43 q 464 73 427 43 q 519 165 500 104 q 538 317 538 226 q 519 459 538 399 q 462 548 499 518 q 371 578 425 578 q 291 559 323 578 q 237 504 258 539 q 208 420 216 469 q 199 315 199 372 m 736 648 z "},"þ":{"ha":760,"x_min":33,"x_max":690,"o":"m 237 970 l 237 542 l 240 541 q 307 604 282 584 q 357 636 332 623 q 407 654 382 648 q 458 659 431 659 q 630 575 570 659 q 690 330 690 492 q 656 144 690 220 q 558 28 623 67 q 403 -11 493 -11 q 237 17 314 -11 l 237 -123 q 240 -189 237 -167 q 251 -223 243 -210 q 274 -243 259 -235 q 321 -258 288 -252 l 321 -292 l 44 -292 l 44 -258 q 84 -244 68 -252 q 107 -223 99 -237 q 118 -186 115 -210 q 121 -123 121 -162 l 121 737 q 120 828 121 802 q 114 872 119 854 q 102 900 110 890 q 81 916 94 910 q 33 928 68 922 l 33 964 l 197 970 l 237 970 m 237 244 q 243 156 237 188 q 261 104 249 123 q 294 70 273 84 q 341 49 314 55 q 399 43 368 43 q 520 113 479 43 q 562 312 562 182 q 524 511 562 445 q 407 578 486 578 q 341 566 369 578 q 287 528 314 554 q 249 476 260 501 q 237 423 237 452 l 237 244 z "},"ⁿ":{"ha":577,"x_min":53,"x_max":530,"o":"m 530 562 l 334 562 l 334 593 q 368 605 359 599 q 381 624 377 611 q 386 666 386 636 l 386 818 q 381 876 386 852 q 366 913 377 900 q 341 931 355 926 q 309 936 328 936 q 277 930 292 936 q 246 913 262 925 q 219 890 229 901 q 205 868 209 878 q 201 847 201 859 l 201 668 q 205 623 201 635 q 218 605 209 611 q 254 593 227 599 l 254 562 l 60 562 l 60 593 q 93 605 85 599 q 106 624 102 611 q 111 667 111 637 l 111 873 q 109 919 111 906 q 98 941 106 932 q 53 956 89 950 l 53 988 l 168 993 l 201 993 l 196 922 l 200 920 q 275 980 241 962 q 345 997 310 997 q 419 980 389 997 q 463 933 449 964 q 476 849 476 903 l 476 668 q 479 625 476 637 q 490 607 481 614 q 530 593 499 600 l 530 562 z "},"ﬀ":{"ha":841,"x_min":54,"x_max":924,"o":"m 835 580 l 673 580 l 673 170 q 677 101 673 124 q 690 66 682 78 q 712 47 699 54 q 757 33 726 40 l 757 0 l 479 0 l 479 33 q 522 49 509 41 q 542 68 535 56 q 553 101 549 79 q 556 170 556 123 l 556 580 l 252 580 l 252 170 q 257 101 252 124 q 270 66 261 78 q 292 47 278 54 q 336 33 306 40 l 336 0 l 59 0 l 59 33 q 102 49 89 41 q 122 68 115 56 q 132 101 129 79 q 136 170 136 123 l 136 580 l 54 580 l 54 614 q 88 621 80 619 q 104 628 96 623 q 118 642 112 633 q 128 668 123 650 q 135 716 132 685 q 162 836 141 790 q 222 915 182 882 q 307 961 262 947 q 413 974 352 974 q 504 966 467 974 l 504 844 l 437 844 q 407 900 424 884 q 358 917 389 917 q 320 911 336 917 q 292 892 305 905 q 270 857 279 879 q 257 803 261 836 q 252 720 252 771 l 252 648 l 541 648 q 555 716 549 664 q 582 836 562 790 q 643 915 603 882 q 727 961 682 947 q 833 974 772 974 q 924 966 887 974 l 924 844 l 857 844 q 827 900 844 884 q 779 917 810 917 q 741 911 756 917 q 713 892 726 905 q 691 857 700 879 q 677 803 682 836 q 673 720 673 771 l 673 648 l 835 648 l 835 580 z "},"ﬁ":{"ha":806,"x_min":54,"x_max":752,"o":"m 467 844 l 412 844 q 390 898 404 881 q 348 914 375 914 q 305 903 323 914 q 274 866 287 891 q 257 802 262 842 q 252 708 252 763 l 252 648 l 414 648 l 414 580 l 252 580 l 252 170 q 257 101 252 124 q 270 66 261 78 q 292 47 278 54 q 336 33 306 40 l 336 0 l 59 0 l 59 33 q 102 49 89 41 q 122 68 115 56 q 132 101 129 79 q 136 170 136 123 l 136 580 l 54 580 l 54 614 q 105 629 90 618 q 126 660 119 640 q 135 716 133 680 q 173 858 140 800 q 263 945 207 916 q 394 974 319 974 q 467 968 433 974 l 467 844 m 681 914 l 681 783 l 556 783 l 556 914 l 681 914 m 486 33 q 524 47 513 41 q 543 64 535 54 q 555 98 551 75 q 559 168 559 120 l 559 463 q 558 533 559 507 q 549 575 557 559 q 524 599 541 591 q 477 612 507 607 l 477 648 l 635 654 l 676 654 l 676 170 q 682 89 676 111 q 702 54 687 66 q 752 33 718 42 l 752 0 l 486 0 l 486 33 z "},"ﬃ":{"ha":1227,"x_min":54,"x_max":1173,"o":"m 888 844 l 832 844 q 810 898 825 881 q 768 914 795 914 q 725 903 743 914 q 695 866 707 891 q 677 802 682 842 q 673 708 673 763 l 673 648 l 835 648 l 835 580 l 673 580 l 673 170 q 677 101 673 124 q 690 66 682 78 q 712 47 699 54 q 757 33 726 40 l 757 0 l 479 0 l 479 33 q 522 49 509 41 q 542 68 535 56 q 553 101 549 79 q 556 170 556 123 l 556 580 l 252 580 l 252 170 q 257 101 252 124 q 270 66 261 78 q 292 47 278 54 q 336 33 306 40 l 336 0 l 59 0 l 59 33 q 102 49 89 41 q 122 68 115 56 q 132 101 129 79 q 136 170 136 123 l 136 580 l 54 580 l 54 614 q 88 621 80 619 q 104 628 96 623 q 118 642 112 633 q 128 668 123 650 q 135 716 132 685 q 162 836 141 790 q 222 915 182 882 q 307 961 262 947 q 413 974 352 974 q 504 966 467 974 l 504 844 l 437 844 q 407 900 424 884 q 358 917 389 917 q 320 911 336 917 q 292 892 305 905 q 270 857 279 879 q 257 803 261 836 q 252 720 252 771 l 252 648 l 542 648 q 555 716 552 666 q 594 858 560 800 q 684 945 627 916 q 814 974 740 974 q 888 968 853 974 l 888 844 m 1101 914 l 1101 783 l 977 783 l 977 914 l 1101 914 m 907 33 q 944 47 932 41 q 964 64 956 54 q 976 98 972 75 q 980 168 980 120 l 980 463 q 979 533 980 507 q 969 575 977 559 q 944 599 961 591 q 897 612 928 607 l 897 648 l 1055 654 l 1097 654 l 1097 170 q 1102 89 1097 111 q 1123 54 1107 66 q 1173 33 1138 42 l 1173 0 l 907 0 l 907 33 z "},"ﬂ":{"ha":797,"x_min":54,"x_max":743,"o":"m 667 170 q 673 89 667 111 q 693 54 678 66 q 743 33 709 42 l 743 0 l 474 0 l 474 33 q 517 49 504 41 q 537 68 530 56 q 547 101 544 79 q 551 170 551 123 l 551 737 q 550 828 551 802 q 544 871 549 854 q 532 899 540 889 q 512 916 525 909 q 467 928 498 922 l 467 844 l 412 844 q 390 898 404 881 q 348 914 375 914 q 305 903 323 914 q 274 866 287 891 q 257 802 262 842 q 252 708 252 763 l 252 648 l 414 648 l 414 580 l 252 580 l 252 170 q 257 101 252 124 q 270 66 261 78 q 292 47 278 54 q 336 33 306 40 l 336 0 l 59 0 l 59 33 q 102 49 89 41 q 122 68 115 56 q 132 101 129 79 q 136 170 136 123 l 136 580 l 54 580 l 54 614 q 105 629 90 618 q 126 660 119 640 q 135 716 133 680 q 173 858 140 800 q 263 945 207 916 q 394 974 319 974 q 467 968 433 974 l 467 964 l 627 970 l 667 970 l 667 170 z "},"ﬄ":{"ha":1217,"x_min":54,"x_max":1164,"o":"m 1088 170 q 1093 89 1088 111 q 1114 54 1099 66 q 1164 33 1129 42 l 1164 0 l 895 0 l 895 33 q 937 49 924 41 q 957 68 950 56 q 968 101 964 79 q 971 170 971 123 l 971 737 q 970 828 971 802 q 965 871 969 854 q 953 899 960 889 q 932 916 945 909 q 888 928 919 922 l 888 844 l 832 844 q 810 898 825 881 q 768 914 795 914 q 725 903 743 914 q 695 866 707 891 q 677 802 682 842 q 673 708 673 763 l 673 648 l 835 648 l 835 580 l 673 580 l 673 170 q 677 101 673 124 q 690 66 682 78 q 712 47 699 54 q 757 33 726 40 l 757 0 l 479 0 l 479 33 q 522 49 509 41 q 542 68 535 56 q 553 101 549 79 q 556 170 556 123 l 556 580 l 252 580 l 252 170 q 257 101 252 124 q 270 66 261 78 q 292 47 278 54 q 336 33 306 40 l 336 0 l 59 0 l 59 33 q 102 49 89 41 q 122 68 115 56 q 132 101 129 79 q 136 170 136 123 l 136 580 l 54 580 l 54 614 q 88 621 80 619 q 104 628 96 623 q 118 642 112 633 q 128 668 123 650 q 135 716 132 685 q 162 836 141 790 q 222 915 182 882 q 307 961 262 947 q 413 974 352 974 q 504 966 467 974 l 504 844 l 437 844 q 407 900 424 884 q 358 917 389 917 q 320 911 336 917 q 292 892 305 905 q 270 857 279 879 q 257 803 261 836 q 252 720 252 771 l 252 648 l 542 648 q 555 716 552 666 q 594 858 560 800 q 684 945 627 916 q 814 974 740 974 q 888 968 853 974 l 888 964 l 1047 970 l 1088 970 l 1088 170 z "},"&":{"ha":955,"x_min":60,"x_max":951,"o":"m 606 92 q 472 13 537 37 q 329 -11 408 -11 q 186 17 247 -11 q 93 97 125 45 q 60 218 60 149 q 81 319 60 274 q 148 407 102 364 q 272 495 193 450 q 201 613 222 560 q 180 722 180 667 q 213 834 180 785 q 306 909 245 882 q 439 937 366 937 q 524 927 484 937 q 593 898 564 918 q 640 845 623 878 q 656 766 656 812 q 652 723 656 743 q 637 683 647 702 q 613 645 628 665 q 571 602 597 625 q 503 553 544 579 q 411 499 461 528 q 513 373 445 454 q 649 217 581 292 q 716 311 694 264 q 739 407 739 357 q 722 460 739 442 q 670 481 706 477 l 670 515 l 863 515 l 863 481 q 857 441 863 472 q 846 402 852 422 q 832 364 840 383 q 814 327 824 345 q 791 288 804 307 q 763 250 778 269 q 728 211 747 231 q 689 172 710 191 q 747 111 722 133 q 791 80 772 90 q 831 71 810 71 q 870 81 852 71 q 920 117 889 90 l 951 78 q 866 13 911 36 q 781 -11 822 -11 q 723 -2 748 -11 q 673 27 699 7 q 606 92 647 47 m 373 545 q 504 644 460 591 q 549 755 549 697 q 534 822 549 793 q 492 864 519 850 q 431 879 465 879 q 360 862 391 879 q 312 811 329 844 q 294 734 294 779 q 312 649 294 692 q 373 545 329 606 m 309 446 q 212 355 243 403 q 182 246 182 307 q 205 149 182 190 q 268 87 228 108 q 358 67 308 67 q 465 83 417 67 q 566 138 512 98 q 503 210 544 162 l 391 343 q 342 404 363 377 l 309 446 z "},"`":{"ha":395,"x_min":43,"x_max":302,"o":"m 161 978 l 302 761 l 257 726 l 43 944 l 43 978 l 161 978 z "},"̀":{"ha":0,"x_min":-349,"x_max":-90,"o":"m -231 978 l -90 761 l -135 726 l -349 944 l -349 978 l -231 978 z "},"´":{"ha":395,"x_min":94,"x_max":353,"o":"m 353 978 l 353 944 l 138 726 l 94 761 l 235 978 l 353 978 z "},"́":{"ha":0,"x_min":-298,"x_max":-39,"o":"m -39 978 l -39 944 l -254 726 l -298 761 l -157 978 l -39 978 z "},"ˆ":{"ha":395,"x_min":4,"x_max":392,"o":"m 247 978 l 392 764 l 345 726 l 201 890 l 194 890 l 50 726 l 4 764 l 156 978 l 247 978 z "},"̂":{"ha":0,"x_min":-389,"x_max":0,"o":"m -146 978 l 0 764 l -47 726 l -191 890 l -199 890 l -342 726 l -389 764 l -237 978 l -146 978 z "},"ˇ":{"ha":395,"x_min":4,"x_max":392,"o":"m 149 735 l 4 949 l 50 987 l 194 823 l 201 823 l 345 987 l 392 949 l 239 735 l 149 735 z "},"̌":{"ha":0,"x_min":-388,"x_max":0,"o":"m -243 735 l -388 949 l -342 987 l -198 823 l -191 823 l -47 987 l 0 949 l -153 735 l -243 735 z "},"̕":{"ha":395,"x_min":87,"x_max":256,"o":"m 241 970 q 256 883 256 926 q 244 813 256 844 q 207 751 233 783 q 125 669 181 720 l 87 705 q 132 782 119 745 q 145 869 145 819 q 143 909 145 890 q 134 970 142 928 l 241 970 z "},"˜":{"ha":395,"x_min":-26,"x_max":423,"o":"m 370 926 l 423 903 q 374 818 397 848 q 329 776 351 787 q 281 765 308 765 q 249 769 262 765 q 222 780 235 772 q 181 806 209 787 q 152 825 163 818 q 130 836 142 831 q 106 840 119 840 q 76 833 88 840 q 52 810 64 827 q 27 765 40 793 l -26 788 q 27 879 7 853 q 69 915 47 904 q 120 926 90 926 q 150 923 136 926 q 174 913 163 919 q 212 888 185 907 q 243 867 232 875 q 267 856 255 860 q 295 851 279 851 q 334 868 317 851 q 370 926 351 884 z "},"̃":{"ha":0,"x_min":-418,"x_max":31,"o":"m -22 926 l 31 903 q -18 818 5 848 q -63 776 -41 787 q -111 765 -84 765 q -143 769 -130 765 q -170 780 -157 772 q -211 806 -183 787 q -240 825 -229 818 q -262 836 -250 831 q -286 840 -273 840 q -316 833 -304 840 q -340 810 -328 827 q -365 765 -352 793 l -418 788 q -365 879 -385 853 q -323 915 -345 904 q -272 926 -302 926 q -242 923 -256 926 q -218 913 -229 919 q -180 888 -207 907 q -149 867 -160 875 q -125 856 -137 860 q -97 851 -113 851 q -58 868 -75 851 q -22 926 -41 884 z "},"¨":{"ha":395,"x_min":26,"x_max":369,"o":"m 369 908 l 369 789 l 256 789 l 256 908 l 369 908 m 139 908 l 139 789 l 26 789 l 26 908 l 139 908 z "},"̈":{"ha":0,"x_min":-366,"x_max":-23,"o":"m -23 908 l -23 789 l -136 789 l -136 908 l -23 908 m -253 908 l -253 789 l -366 789 l -366 908 l -253 908 z "},"¯":{"ha":395,"x_min":18,"x_max":376,"o":"m 376 806 l 18 806 l 18 890 l 376 890 l 376 806 z "},"ˉ":{"ha":395,"x_min":18,"x_max":376,"o":"m 376 806 l 18 806 l 18 890 l 376 890 l 376 806 z "},"̄":{"ha":0,"x_min":-374,"x_max":-16,"o":"m -16 806 l -374 806 l -374 890 l -16 890 l -16 806 z "},"˘":{"ha":395,"x_min":-7,"x_max":403,"o":"m 403 941 q 334 802 385 849 q 193 755 283 755 q 60 802 109 755 q -7 941 11 848 l 45 957 q 84 887 62 912 q 131 852 105 862 q 195 843 157 843 q 261 853 233 843 q 312 888 289 863 q 351 957 334 913 l 403 941 z "},"̆":{"ha":0,"x_min":-399,"x_max":11,"o":"m 11 941 q -58 802 -7 849 q -199 755 -109 755 q -332 802 -283 755 q -399 941 -381 848 l -347 957 q -308 887 -330 912 q -261 852 -287 862 q -197 843 -235 843 q -131 853 -159 843 q -80 888 -103 863 q -41 957 -58 913 l 11 941 z "},"˚":{"ha":395,"x_min":44,"x_max":351,"o":"m 194 726 q 82 760 121 726 q 44 860 44 794 q 64 936 44 905 q 119 983 84 968 q 199 998 155 998 q 313 964 274 998 q 351 866 351 930 q 310 763 351 799 q 194 726 269 726 m 115 865 q 136 794 115 819 q 199 768 157 768 q 259 792 239 768 q 280 859 280 816 q 258 931 280 906 q 198 956 236 956 q 136 932 157 956 q 115 865 115 909 z "},"̊":{"ha":0,"x_min":-348,"x_max":-41,"o":"m -198 726 q -310 760 -271 726 q -348 860 -348 794 q -328 936 -348 905 q -273 983 -308 968 q -193 998 -237 998 q -79 964 -118 998 q -41 866 -41 930 q -82 763 -41 799 q -198 726 -123 726 m -277 865 q -256 794 -277 819 q -193 768 -235 768 q -133 792 -153 768 q -112 859 -112 816 q -134 931 -112 906 q -194 956 -156 956 q -256 932 -235 956 q -277 865 -277 909 z "},"˝":{"ha":395,"x_min":-3,"x_max":450,"o":"m 450 978 l 450 944 l 248 726 l 203 761 l 357 978 l 450 978 m 243 978 l 243 944 l 42 726 l -3 761 l 151 978 l 243 978 z "},"̋":{"ha":0,"x_min":-395,"x_max":58,"o":"m 58 978 l 58 944 l -144 726 l -189 761 l -35 978 l 58 978 m -149 978 l -149 944 l -350 726 l -395 761 l -241 978 l -149 978 z "},"˙":{"ha":395,"x_min":135,"x_max":260,"o":"m 260 914 l 260 783 l 135 783 l 135 914 l 260 914 z "},"̇":{"ha":0,"x_min":-257,"x_max":-132,"o":"m -132 914 l -132 783 l -257 783 l -257 914 l -132 914 z "},"¸":{"ha":395,"x_min":41,"x_max":353,"o":"m 353 25 l 247 -54 q 258 -90 254 -69 q 263 -130 263 -111 q 208 -242 263 -200 q 50 -292 153 -285 l 41 -241 q 111 -221 85 -236 q 148 -186 138 -206 q 158 -138 158 -166 q 154 -102 158 -120 l 154 -75 l 326 45 l 353 25 z "},"̧":{"ha":0,"x_min":-351,"x_max":-39,"o":"m -39 25 l -145 -54 q -134 -90 -138 -69 q -129 -130 -129 -111 q -184 -242 -129 -200 q -342 -292 -239 -285 l -351 -241 q -281 -221 -307 -236 q -244 -186 -254 -206 q -234 -138 -234 -166 q -238 -102 -234 -120 l -238 -75 l -66 45 l -39 25 z "},"˛":{"ha":395,"x_min":92,"x_max":347,"o":"m 279 7 q 209 -74 232 -33 q 186 -156 186 -115 q 203 -212 186 -194 q 255 -231 220 -231 q 294 -224 277 -231 q 326 -208 311 -218 l 347 -254 q 292 -281 321 -271 q 226 -292 263 -292 q 175 -285 199 -292 q 133 -264 151 -279 q 103 -228 115 -250 q 92 -173 92 -205 q 96 -140 92 -156 q 111 -104 100 -123 q 137 -66 121 -85 q 175 -28 153 -47 q 222 7 197 -9 l 279 7 z "},"̨":{"ha":0,"x_min":-300,"x_max":-45,"o":"m -113 7 q -183 -74 -160 -33 q -206 -156 -206 -115 q -189 -212 -206 -194 q -137 -231 -172 -231 q -98 -224 -115 -231 q -66 -208 -81 -218 l -45 -254 q -100 -281 -71 -271 q -166 -292 -129 -292 q -217 -285 -193 -292 q -259 -264 -241 -279 q -289 -228 -277 -250 q -300 -173 -300 -205 q -296 -140 -300 -156 q -281 -104 -292 -123 q -255 -66 -271 -85 q -217 -28 -239 -47 q -170 7 -195 -9 l -113 7 z "},"̦":{"ha":0,"x_min":-353,"x_max":-130,"o":"m -139 -67 q -130 -132 -130 -95 q -185 -243 -130 -201 q -344 -292 -240 -285 l -353 -241 q -285 -223 -309 -235 q -248 -190 -260 -211 q -236 -132 -236 -168 q -242 -67 -236 -97 l -139 -67 z "},",":{"ha":285,"x_min":16,"x_max":219,"o":"m 210 157 q 219 64 219 110 q 203 -23 219 16 q 151 -101 186 -62 q 53 -187 115 -140 l 16 -146 q 66 -87 51 -113 q 89 -28 82 -61 q 96 56 96 5 q 91 157 96 107 l 210 157 z "},";":{"ha":366,"x_min":50,"x_max":252,"o":"m 243 157 q 252 64 252 110 q 236 -23 252 16 q 184 -101 220 -62 q 86 -187 149 -140 l 50 -146 q 100 -87 84 -113 q 122 -28 115 -61 q 129 56 129 5 q 124 157 129 107 l 243 157 m 251 612 l 251 454 l 115 454 l 115 612 l 251 612 z "},":":{"ha":366,"x_min":115,"x_max":251,"o":"m 251 612 l 251 454 l 115 454 l 115 612 l 251 612 m 251 157 l 251 0 l 115 0 l 115 157 l 251 157 z "},".":{"ha":285,"x_min":74,"x_max":211,"o":"m 211 157 l 211 0 l 74 0 l 74 157 l 211 157 z "},"…":{"ha":1044,"x_min":169,"x_max":970,"o":"m 306 157 l 306 0 l 169 0 l 169 157 l 306 157 m 638 157 l 638 0 l 501 0 l 501 157 l 638 157 m 970 157 l 970 0 l 833 0 l 833 157 l 970 157 z "},"-":{"ha":461,"x_min":73,"x_max":388,"o":"m 388 304 l 73 304 l 73 410 l 388 410 l 388 304 z "},"­":{"ha":461,"x_min":73,"x_max":388,"o":"m 388 304 l 73 304 l 73 410 l 388 410 l 388 304 z "},"‐":{"ha":461,"x_min":73,"x_max":388,"o":"m 388 304 l 73 304 l 73 410 l 388 410 l 388 304 z "},"!":{"ha":397,"x_min":130,"x_max":273,"o":"m 273 926 l 229 282 l 163 282 l 130 926 l 273 926 m 267 157 l 267 0 l 131 0 l 131 157 l 267 157 z "},"¡":{"ha":397,"x_min":123,"x_max":397,"o":"m 130 490 l 130 648 l 266 648 l 266 490 l 130 490 m 123 -277 l 168 366 l 233 366 l 267 -277 l 123 -277 m 397 -292 z "},"?":{"ha":587,"x_min":62,"x_max":536,"o":"m 214 282 l 214 305 q 218 350 214 333 q 230 386 221 367 q 256 432 238 406 q 307 500 274 458 q 364 581 347 550 q 390 646 381 612 q 399 721 399 680 q 385 809 399 773 q 345 864 370 846 q 285 882 319 882 q 199 850 231 882 q 155 755 167 819 l 62 755 l 62 866 q 194 921 140 905 q 300 937 248 937 q 434 912 381 937 q 512 846 488 888 q 536 749 536 804 q 531 697 536 721 q 515 652 526 674 q 490 606 505 629 q 455 559 474 583 q 387 479 435 535 q 335 411 351 437 q 312 362 319 386 q 305 299 305 338 l 305 282 l 214 282 m 329 157 l 329 0 l 193 0 l 193 157 l 329 157 z "},"¿":{"ha":587,"x_min":51,"x_max":524,"o":"m 258 491 l 258 648 l 393 648 l 393 491 l 258 491 m 372 366 l 372 343 q 369 298 372 315 q 357 262 366 281 q 331 216 349 243 q 279 149 313 190 q 223 67 240 98 q 197 2 205 36 q 188 -73 188 -31 q 219 -192 188 -150 q 302 -234 250 -234 q 387 -203 354 -234 q 432 -106 419 -172 l 524 -106 l 524 -218 q 393 -273 447 -257 q 287 -288 339 -288 q 153 -264 205 -288 q 75 -198 100 -240 q 51 -100 51 -156 q 56 -49 51 -73 q 71 -3 61 -26 q 97 42 81 19 q 132 90 113 66 q 199 170 151 113 q 252 237 235 212 q 275 287 268 262 q 281 349 281 311 l 281 366 l 372 366 z "},"‘":{"ha":307,"x_min":71,"x_max":307,"o":"m 88 650 q 76 699 80 673 q 71 747 71 726 q 83 823 71 789 q 124 892 96 857 q 218 985 152 927 l 259 945 q 210 861 224 902 q 195 764 195 821 q 197 720 195 743 q 207 650 199 696 l 88 650 m 307 970 z "},"’":{"ha":307,"x_min":48,"x_max":236,"o":"m 219 970 q 232 922 227 948 q 236 873 236 895 q 222 794 236 829 q 179 724 209 760 q 90 635 150 688 l 48 676 q 97 757 81 716 q 113 857 113 798 q 111 901 113 878 q 100 970 109 924 l 219 970 z "}}}
